/* XPM */
static const char * cardsym_xpm[] = {
"80 54 4 1",
" 	c black",
".	c ivory",
"X	c white",
"o	c red",
"  .   .       ...     ...       .   .XXoo.ooo.ooooooo...ooooo...ooooooo.ooo.XX..",
"              .       ..  .          XXoooooooooooooo.ooooooo..oo.ooooooooooXX..",
"    .  ...    .    ....  .....    .  XXoooo.oo...oooo.oooo....oo.....oooo.ooXX..",
"  ...  ..  .  .      .    ....       XXoo...oo..oo.oo.oooooo.oooo....oooooooXX..",
"  ..  ..                   ..  ..   .XXoo..oo..ooooooooooooooooooo..oo..ooo.XX..",
"  .  .....       ...    .  ..  .     XXoo.oo.....ooooooo...oooo.oo..oo.oooooXX..",
"    ......  ...   ..    .  .  ..  .  XXoooo......oo...ooo..oooo.oo.oo..oo.ooXX..",
"            ...               ..     XXoooooooooooo...ooooooooooooooo..oooooXX..",
"       .   ....  .   ..   .  ....   .XXooooooo.ooo....oo.ooo..ooo.oo....ooo.XX..",
".   .  ..   ....  .   .  .  .X XX....XX.ooo.oo..ooo....oo.ooo.oo.oo.XoXX....XX..",
"       .     ...         .  .   .....XXooooooo.ooooo...ooooooooo.oo.ooo.....XX..",
"  .    .     ...           .  .  ....XXoo.oooo.ooooo...ooooooooooo.oo.oo....XX..",
"  .    .  .  ...    .     ..  .  ....XXoo.oooo.oo.oo...oooo.ooooo..oo.oo....XX..",
"       .  .  ...    .    ...     ....XXooooooo.oo.oo...oooo.oooo...ooooo....XX..",
".      .  .  ...    .     ..     ....XX.oooooo.oo.oo...oooo.ooooo..ooooo....XX..",
"..  .  .  .    .           .  .  ....XX..oo.oo.oo.oooo.ooooooooooo.oo.oo....XX..",
".  ..  .                 .    .  ....XX.oo..oo.ooooooooooooooooo.oooo.oo....XX..",
"  ...  ..   ..   .    .  .    .  ....XXoo...oo..ooo..ooo.oooo.oo.oooo.oo....XX..",
"...  .   ..  .   .    .  .    .  ....XX...oo.ooo..oo.ooo.oooo.oo.oooo.oo....XX..",
"..  .     .              .    .  ....XX..oo.ooooo.oooooooooooooo.oooo.oo....XX..",
".  ..  .  .    .       .      .  ....XX.oo..oo.oo.oooo.ooooooo.oooooo.oo....XX..",
"    .  .  .    ...  .  ..        ....XXoooo.oo.oo.oooo...oo.oo..oooooooo....XX..",
"       .  .    ...  .  ...       ....XXooooooo.oo.oooo...oo.oo...ooooooo....XX..",
"  .    .  .    ...  .  ..     .  ....XXoo.oooo.oo.oooo...oo.oo..ooooo.oo....XX..",
"  .       .    ...     .      .  ....XXoo.ooooooo.oooo...ooooo.oooooo.oo....XX..",
"          .    ...       .  .   .....XXoooooooooo.oooo...ooooooo.oo.ooo.....XX..",
".   ..   ..    ....   .  .  .X XX....XX.ooo..ooo..oooo....ooo.oo.oo.XoXX....XX..",
"       .   .  ....   ..   ....  .   .XXooooooo.ooo.oo....ooo..ooo....oo.ooo.XX..",
"              ...          ..        XXoooooooooooooo...oooooooooo..ooooooooXX..",
"  ...    ...  ...  ..   .  ..  .  .  XXoo...oooo...oo...oo..ooo.oo..oo.oo.ooXX..",
"  ..  .  ...       ...  .  .  ..     XXoo..oo.oo...ooooooo...oo.oo.oo..oooooXX..",
"  .  ..    .               .  ...   .XXoo.oo..oooo.ooooooooooooooo.oo...ooo.XX..",
"    ....  ..  .  .    .      ...     XXoooo....oo..oo.oo.oooo.oooooo...oooooXX..",
"    .    ...  .  ...  ..  .  ...  .  XXoooo.oooo...oo.oo...oo..oo.oo...oo.ooXX..",
"              .       .  ..          XXoooooooooooooo.ooooooo.oo..ooooooooooXX..",
"  .   .     ...         ...     .   .XXoo.ooo.ooooo...ooooooooo...ooooo.ooo.XX..",
"... .....   ..X     X.     ... ...   ....o....oo.oo....o......o...X.o...o.o.XX..",
"... ....     ...   ....   .... ..     ...o...ooooooo...o......o...X.o..oooooXX..",
"..   ...     .... ...... ...X   ..   ...ooo..ooooooo..ooo....ooo..Xooo.oooooXX..",
".     ...   ...     .. . . .      . . .ooooo.ooooooo.ooooo..ooooo.ooooooooooXX..",
".     .. . . .                        ooooooo.ooooo.ooooooo.ooooo.Xooo..ooo.XX..",
"                                      .ooooo..ooooo..ooooo.oooooooX.o....o..XX..",
"                            .   . . . ..ooo....ooo....ooo..oooooooX.o....o..XX..",
"              .     .. . . ... .... .....o......o......o...oooooooXXXXXXXXXXXX..",
".     .. . . ..     ...   ...   ..   ....o......o......o....oo.oo.XXXXXXXXX.XX..",
"... ...... .....   ...     ..   ..   .............................XXXXXXXXX.....",
"..   ....   ..... ....     ... .... ..............................XXXXXXXXXX....",
".     ..     .... .....   ...   . . . ............................X.o....o......",
"............................          ............................X.o....o......",
"............................          ............................Xooo..ooo.....",
"............................      . . ............................oooooooooo....",
"............................X   ..   .............................Xooo.ooooo....",
".............................. ..     ............................X.o..ooooo....",
".............................. ...   .............................X.o...o.o....."};
