/* XPM */
static const char * cardBackRedLg_xpm[] = {
/* width height num_colors chars_per_pixel */
"64 96 4 1",
/* colors */
" 	c darkgreen",
".	c black",
"X	c ivory",
"o	c red",
/* pixels */
"      ....................................................      ",
"    ........................................................    ",
"   ....XXXXXXXXXXXXXXXXXXXXXXXXXXXXXXXXXXXXXXXXXXXXXXXXXX....   ",
"  ...XXXXXXXXXXXXXXXXXXXXXXXXXXXXXXXXXXXXXXXXXXXXXXXXXXXXXX...  ",
" ...XXXXXXXXXXXXXXXXXXXXXXXXXXXXXXXXXXXXXXXXXXXXXXXXXXXXXXXX... ",
" ..XXXXXXXXXXXXXXXXXXXXXXXXXXXXXXXXXXXXXXXXXXXXXXXXXXXXXXXXXX.. ",
"...XXXXXooooooooooooooooooooooooooooooooooooooooooooooooXXXXX...",
"..XXXXXooooooooooooooooooooooooooooooooooooooooooooooooooXXXXX..",
"..XXXXooooooooooooooooooooooooooooooooooooooooooooooooooooXXXX..",
"..XXXXooooooooooooooooooooooooooooooooooooooooooooooooooooXXXX..",
"..XXXXooooXXXXXXXXooXXXXooooXXXXXXXXooooXXXXooXXXXXXXXooooXXXX..",
"..XXXXooooXXXXXXXXooXXXXXoooXXXXXXXXoooXXXXXooXXXXXXXXooooXXXX..",
"..XXXXooooXXXooooooooooXXXooooooooooooXXXooooooooooXXXooooXXXX..",
"..XXXXooooXXooooooooooooXXXooooooooooXXXooooooooooooXXooooXXXX..",
"..XXXXooooXXooooXXXXoooooXXXooXXXXooXXXoooooXXXXooooXXooooXXXX..",
"..XXXXooooXXoooXXXXXXoooooXXooXXXXooXXoooooXXXXXXoooXXooooXXXX..",
"..XXXXooooXXooXXXooXXXooooXXooooooooXXooooXXXooXXXooXXooooXXXX..",
"..XXXXooooXXooXXooooXXooooXXXooooooXXXooooXXooooXXooXXooooXXXX..",
"..XXXXooooooooXXoooooooooooXXXooooXXXoooooooooooXXooooooooXXXX..",
"..XXXXooooooooXXXoooooooooooXXooooXXoooooooooooXXXooooooooXXXX..",
"..XXXXooooXXoooXXXooooXXooooooooooooooooXXooooXXXoooXXooooXXXX..",
"..XXXXooooXXooooXXoooXXXooooooooooooooooXXXoooXXooooXXooooXXXX..",
"..XXXXooooXXooooooooXXXXooooXXooooXXooooXXXXooooooooXXooooXXXX..",
"..XXXXooooXXXoooooooXXXXooooXXXooXXXooooXXXXoooooooXXXooooXXXX..",
"..XXXXoooooXXXoooooooooooooooXXXXXXoooooooooooooooXXXoooooXXXX..",
"..XXXXooooooXXXoooooooooooooooXXXXoooooooooooooooXXXooooooXXXX..",
"..XXXXoooooooXXXXXooooooooXXooooooooXXooooooooXXXXXoooooooXXXX..",
"..XXXXooooooooXXXXXoooooooXXXooooooXXXoooooooXXXXXooooooooXXXX..",
"..XXXXoooooooooooXXXoooooooXXXooooXXXoooooooXXXoooooooooooXXXX..",
"..XXXXooooooooooooXXooooooooXXXooXXXooooooooXXooooooooooooXXXX..",
"..XXXXooooXXXXooooooooXXXXoooXXXXXXoooXXXXooooooooXXXXooooXXXX..",
"..XXXXooooXXXXXooooooXXXXXXoooXXXXoooXXXXXXooooooXXXXXooooXXXX..",
"..XXXXooooXXoXXXooooXXXooXXXooooooooXXXooXXXooooXXXoXXooooXXXX..",
"..XXXXooooXXooXXXoooXXooooXXXooooooXXXooooXXoooXXXooXXooooXXXX..",
"..XXXXooooXXoooXXXooXXoooooXXXooooXXXoooooXXooXXXoooXXooooXXXX..",
"..XXXXooooXXooooXXooXXooooooXXXooXXXooooooXXooXXooooXXooooXXXX..",
"..XXXXooooXXooooooooXXoooooooXXXXXXoooooooXXooooooooXXooooXXXX..",
"..XXXXooooXXooooooooXXooooooooXXXXooooooooXXooooooooXXooooXXXX..",
"..XXXXooooXXooooooooooooooooooooooooooooooooooooooooXXooooXXXX..",
"..XXXXooooXXooooooooooooooooooooooooooooooooooooooooXXooooXXXX..",
"..XXXXooooooooooooooXXXXooXXXXooooXXXXooXXXXooooooooooooooXXXX..",
"..XXXXoooooooooooooXXXXXooXXXXXooXXXXXooXXXXXoooooooooooooXXXX..",
"..XXXXooooXXooooooXXXooooooooXXXXXXooooooooXXXooooooXXooooXXXX..",
"..XXXXooooXXoooooXXXooooooooooXXXXooooooooooXXXoooooXXooooXXXX..",
"..XXXXooooXXooooXXXoooXXXXXXooooooooXXXXXXoooXXXooooXXooooXXXX..",
"..XXXXooooXXXoooXXoooXXXXXXXooooooooXXXXXXXoooXXoooXXXooooXXXX..",
"..XXXXoooooXXXooXXooXXXooooooooooooooooooXXXooXXooXXXoooooXXXX..",
"..XXXXooooooXXooXXooXXooooooooooooooooooooXXooXXooXXooooooXXXX..",
"..XXXXooooooXXooXXooXXooooooooooooooooooooXXooXXooXXooooooXXXX..",
"..XXXXoooooXXXooXXooXXXooooooooooooooooooXXXooXXooXXXoooooXXXX..",
"..XXXXooooXXXoooXXoooXXXXXXXooooooooXXXXXXXoooXXoooXXXooooXXXX..",
"..XXXXooooXXooooXXXoooXXXXXXooooooooXXXXXXoooXXXooooXXooooXXXX..",
"..XXXXooooXXoooooXXXooooooooooXXXXooooooooooXXXoooooXXooooXXXX..",
"..XXXXooooXXooooooXXXooooooooXXXXXXooooooooXXXooooooXXooooXXXX..",
"..XXXXoooooooooooooXXXXXooXXXXXooXXXXXooXXXXXoooooooooooooXXXX..",
"..XXXXooooooooooooooXXXXooXXXXooooXXXXooXXXXooooooooooooooXXXX..",
"..XXXXooooXXooooooooooooooooooooooooooooooooooooooooXXooooXXXX..",
"..XXXXooooXXooooooooooooooooooooooooooooooooooooooooXXooooXXXX..",
"..XXXXooooXXooooooooXXooooooooXXXXooooooooXXooooooooXXooooXXXX..",
"..XXXXooooXXooooooooXXoooooooXXXXXXoooooooXXooooooooXXooooXXXX..",
"..XXXXooooXXooooXXooXXooooooXXXooXXXooooooXXooXXooooXXooooXXXX..",
"..XXXXooooXXoooXXXooXXoooooXXXooooXXXoooooXXooXXXoooXXooooXXXX..",
"..XXXXooooXXooXXXoooXXooooXXXooooooXXXooooXXoooXXXooXXooooXXXX..",
"..XXXXooooXXoXXXooooXXXooXXXooooooooXXXooXXXooooXXXoXXooooXXXX..",
"..XXXXooooXXXXXooooooXXXXXXoooXXXXoooXXXXXXooooooXXXXXooooXXXX..",
"..XXXXooooXXXXooooooooXXXXoooXXXXXXoooXXXXooooooooXXXXooooXXXX..",
"..XXXXooooooooooooXXooooooooXXXooXXXooooooooXXooooooooooooXXXX..",
"..XXXXoooooooooooXXXoooooooXXXooooXXXoooooooXXXoooooooooooXXXX..",
"..XXXXooooooooXXXXXoooooooXXXooooooXXXoooooooXXXXXooooooooXXXX..",
"..XXXXoooooooXXXXXooooooooXXooooooooXXooooooooXXXXXoooooooXXXX..",
"..XXXXooooooXXXoooooooooooooooXXXXoooooooooooooooXXXooooooXXXX..",
"..XXXXoooooXXXoooooooooooooooXXXXXXoooooooooooooooXXXoooooXXXX..",
"..XXXXooooXXXoooooooXXXXooooXXXooXXXooooXXXXoooooooXXXooooXXXX..",
"..XXXXooooXXooooooooXXXXooooXXooooXXooooXXXXooooooooXXooooXXXX..",
"..XXXXooooXXooooXXoooXXXooooooooooooooooXXXoooXXooooXXooooXXXX..",
"..XXXXooooXXoooXXXooooXXooooooooooooooooXXooooXXXoooXXooooXXXX..",
"..XXXXooooooooXXXoooooooooooXXooooXXoooooooooooXXXooooooooXXXX..",
"..XXXXooooooooXXoooooooooooXXXooooXXXoooooooooooXXooooooooXXXX..",
"..XXXXooooXXooXXooooXXooooXXXooooooXXXooooXXooooXXooXXooooXXXX..",
"..XXXXooooXXooXXXooXXXooooXXooooooooXXooooXXXooXXXooXXooooXXXX..",
"..XXXXooooXXoooXXXXXXoooooXXooXXXXooXXoooooXXXXXXoooXXooooXXXX..",
"..XXXXooooXXooooXXXXoooooXXXooXXXXooXXXoooooXXXXooooXXooooXXXX..",
"..XXXXooooXXooooooooooooXXXooooooooooXXXooooooooooooXXooooXXXX..",
"..XXXXooooXXXooooooooooXXXooooooooooooXXXooooooooooXXXooooXXXX..",
"..XXXXooooXXXXXXXXooXXXXXoooXXXXXXXXoooXXXXXooXXXXXXXXooooXXXX..",
"..XXXXooooXXXXXXXXooXXXXooooXXXXXXXXooooXXXXooXXXXXXXXooooXXXX..",
"..XXXXooooooooooooooooooooooooooooooooooooooooooooooooooooXXXX..",
"..XXXXooooooooooooooooooooooooooooooooooooooooooooooooooooXXXX..",
"..XXXXXooooooooooooooooooooooooooooooooooooooooooooooooooXXXXX..",
"...XXXXXooooooooooooooooooooooooooooooooooooooooooooooooXXXXX...",
" ..XXXXXXXXXXXXXXXXXXXXXXXXXXXXXXXXXXXXXXXXXXXXXXXXXXXXXXXXXX.. ",
" ...XXXXXXXXXXXXXXXXXXXXXXXXXXXXXXXXXXXXXXXXXXXXXXXXXXXXXXXX... ",
"  ...XXXXXXXXXXXXXXXXXXXXXXXXXXXXXXXXXXXXXXXXXXXXXXXXXXXXXX...  ",
"   ....XXXXXXXXXXXXXXXXXXXXXXXXXXXXXXXXXXXXXXXXXXXXXXXXXX....   ",
"    ........................................................    ",
"      ....................................................      "};
