/* XPM */
static const char * cardSymLg_xpm[] = {
/* width height num_colors chars_per_pixel */
"160 108 4 1",
/* colors */
" 	c black",
".	c ivory",
"X	c white",
"o	c red",
/* pixels */
"   ...      ..         .   .......         .......   .         ...     ...Xooo...oooooo..ooooooooo.ooo.......ooooooooo.......ooo.ooooooooo...ooooo..XXXXXXXX....",
"   ..       ..         .   .......         ......    .         ..       ..Xooo..ooooooo..ooooooooo.ooo.......ooooooooo......oooo.ooooooooo..ooooooo.XXXXXXXX....",
"   .         .         .   ...   .         .....     .         .         .Xooo.ooooooooo.ooooooooo.ooo...ooo.ooooooooo.....ooooo.ooooooooo.oooooooooXXXXXXXX....",
"   .    .    .......   .   ...   .   ..........    .........   .   ...   .Xooo.oooo.oooo.......ooo.ooo...ooo.ooo..........oooo.........ooo.ooo...oooXXXXXXXX....",
"   .   ...   .......   .   ...   .   .........    ..........   .   ...   .Xooo.ooo...ooo.......ooo.ooo...ooo.ooo.........oooo..........ooo.ooo...oooXXXXXXXX....",
"   .   ...   ......    .   ...   .   ........    ..........   ..         .Xooo.ooo...ooo......oooo.ooo...ooo.ooo........oooo..........ooo..oooooooooXXXXXXXX....",
"   .......   .....    ..   ...   .       ...    ...........   ...       ..Xooo.......ooo.....oooo..ooo...ooo.ooooooo...oooo...........ooo...ooooooo.XXXXXXXX....",
"   ......    ....    ...   ...   .        ..       .......   .....     ...Xooo......oooo....oooo...ooo...ooo.oooooooo..ooooooo.......ooo.....ooooo..XXXXXXXX....",
"   .....    ....    ....   ...   .         .        ......   .....     ...Xooo.....oooo....oooo....ooo...ooo.ooooooooo.oooooooo......ooo.....ooooo..XXXXXXXX....",
"   ....    ....       ..         ......    .         ....   .....       ..Xooo....oooo....ooooooo..ooooooooo......oooo.ooooooooo....ooo.....ooooooo.XXXXXXXX....",
"   ...    .........    .         .......   .    .    ....   ....         .Xooo...oooo.........oooo.ooooooooo.......ooo.oooo.oooo....ooo....oooooooooXXXXXXXX....",
"   ..    ...........   .         .......   .   ...   ...   .....   ...   .Xooo..oooo...........ooo.ooooooooo.......ooo.ooo...ooo...ooo.....ooo...oooXXXXXXXX....",
"   .    ............   .......   .   ...   .   ...   ...   .....   ...   .Xooo.oooo............ooo.......ooo.ooo...ooo.ooo...ooo...ooo.....ooo...oooXXXXXXXX....",
"   .   .......    .    .......   .   ..    .    .    ...   .....         .Xooo.ooo.......oooo.oooo.......ooo.ooo..oooo.oooo.oooo...ooo.....oooooooooXXXXXXXX....",
"   .         .         .......   .         .         ...   .....         .Xooo.ooooooooo.ooooooooo.......ooo.ooooooooo.ooooooooo...ooo.....oooooooooXXXXXXXX....",
"   .         .         .......   .         .         ...   ......       ..Xooo.ooooooooo.ooooooooo.......ooo.ooooooooo.ooooooooo...ooo......ooooooo.XXXXXXXX....",
"   .         ...      ........   ...      ....      ....   .......     ...Xooo.ooooooooo...oooooo........ooo...oooooo....oooooo....ooo.......ooooo..XXXXXXXX....",
"..........................................................................X.........................................................................XXXXXXXX....",
".      ...   .X..     ..X.......   ...     ...   ...   ...X   XXXX........X.oooooo...ooo.X..ooooo..X.......ooo...ooooo...ooo...ooo...XoooXXXX.......XXXXXXXX....",
"         .   .X.       .X.......   ..       ..   ...   ...     XXX........Xooooooooo.ooo.X.ooooooo.X.......ooo..ooooooo..ooo...ooo...oooooXXX.......XXXXXXXX....",
"         .   .X         X.......   .         .   ...   ..       ..........Xooooooooo.ooo.XoooooooooX.......ooo.ooooooooo.ooo...ooo..ooooooo.........XXXXXXXX....",
"    .    .   .X    .    X.......   .         .   ..    ..       ..........Xoooo.oooo.ooo.Xoooo.ooooX.......ooo.ooooooooo.ooo..oooo..ooooooo.........XXXXXXXX....",
"   ...   .   .X   ...   X.......   .   ...   .   .    ..    .    .........Xooo...ooo.ooo.Xooo...oooX.......ooo.ooo...ooo.ooo.oooo..oooo.oooo........XXXXXXXX....",
"   ...   .   .X   ...   X.......   .   ...   .        ..   ...   .........Xooo...ooo.ooo.Xooo...oooX.......ooo.ooo...ooo.oooooooo..ooo...ooo........XXXXXXXX....",
"    .    .   .X   ...   X.......   .   ...   .      ....   ...   .........Xoooo.oooo.ooo.Xooo...oooX.......ooo.ooo...ooo.oooooo....ooo...ooo........XXXXXXXX....",
"         .   .X   ...   X.......   .   ...   .      ....   ...   .........Xooooooooo.ooo.Xooo...oooX.......ooo.ooo...ooo.oooooo....ooo...ooo........XXXXXXXX....",
".        .   .X   ...   X.......   .   ...   .    ......         .........X.oooooooo.ooo.Xooo...oooX.......ooo.ooo...ooo.oooo......ooooooooo........XXXXXXXX....",
"..       .   .X   ...   X.......   .   ...   .     .....         .........X..ooooooo.ooo.Xooo...oooX.......ooo.ooo...ooo.ooooo.....ooooooooo........XXXXXXXX....",
".....    .   .X   ...   X.......   .   ...   .      ....         .........X.....oooo.ooo.Xooo...oooX.......ooo.ooo...ooo.oooooo....ooooooooo........XXXXXXXX....",
"....    ..   .X   ...   X.   ...   .   ...   .       ...   ...   .........X....oooo..ooo.Xooo...oooX.ooo...ooo.ooo...ooo.ooooooo...ooo...ooo........XXXXXXXX....",
"...    ...   .X   ...   X.   ...   .   .     .        ..   ...   .........X...oooo...ooo.Xooo...oooX.ooo...ooo.ooo.ooooo.oooooooo..ooo...ooo........XXXXXXXX....",
"..    ....   .X    .    X.    .    .   .     .   .    ..   ...   .........X..oooo....ooo.Xoooo.ooooX.oooo.oooo.ooo.ooooo.ooo.oooo..ooo...ooo........XXXXXXXX....",
"     .....   .X         X.         .        ..   ..    .   ...   .........Xooooo.....ooo.XoooooooooX.ooooooooo.oooooooo..ooo..oooo.ooo...ooo........XXXXXXXX....",
"    ......   .X.       .X..       ...        .   ...   .   ...   .........Xoooo......ooo.X.ooooooo.X..ooooooo...oooooooo.ooo...ooo.ooo...ooo........XXXXXXXX....",
"   .......   .X..     ..X...     .....    .  .   ...   .   ...   .........Xooo.......ooo.X..ooooo..X...ooooo.....oooo.oo.ooo...ooo.ooo...ooo........XXXXXXXX....",
"..........................................................................XXXXXXXXXXXXXXXXXXXXXXXXXXXXXXXXXXXXXXXXXXXXXXXXXXXXXXXXXXXXXXXXXXXXXXXXXXXXXXXXXX....",
"......   ...     ..X.   X...     ...  .    ...   ...   .   ...   ........XX......ooo...ooooo..X.oooX...ooooo...oo.oooo...ooo...ooo.ooo...ooo........XXXXXXXX....",
".....    ..       .X.   X..       ..        ..   ...   .   ...   ........XX.....oooo..ooooooo.X.oooX..ooooooo..oooooooo..ooo...ooo.ooo...ooo........XXXXXXXX....",
"....     .         X.   X.         ..        .    ..   .   ...   ........XX....ooooo.oooooooooX.oooX.ooooooooo..oooooooo.oooo..ooo.ooo...ooo........XXXXXXXX....",
"...    ...    .    X.   X.    .    .     .   ..    .   .   ...   ........XX...oooo...oooo.ooooX.oooX.oooo.oooo.ooooo.ooo..oooo.ooo.ooo...ooo........XXXXXXXX....",
"..    ....   ...   X.   X.   ...   .     .   ..        .   ...   ........XX..oooo....ooo...oooX.oooX.ooo...ooo.ooooo.ooo..oooooooo.ooo...ooo........XXXXXXXX....",
".    .....   ...   X.   X.   ...   .   ...   ...       .   ...   ........XX.oooo.....ooo...oooX.oooX.ooo...ooo.ooo...ooo...ooooooo.ooo...ooo........XXXXXXXX....",
"    ......   ...   X.   X.   .......   ...   ....      .         ........XXoooo......ooo...oooX.oooX.ooo.......ooo...ooo....oooooo.ooooooooo........XXXXXXXX....",
"       ...   ...   X.   X.   .......   ...   .....     .         ........XXooooooo...ooo...oooX.oooX.ooo.......ooo...ooo.....ooooo.ooooooooo........XXXXXXXX....",
"        ..   ...   X.   X.   .......   ...   ......    .         ........XXoooooooo..ooo...oooX.oooX.ooo.......ooo...ooo......oooo.ooooooooo........XXXXXXXX....",
"         .   ...   X.   X.   .......   ...   ....      .   ...   ........XXooooooooo.ooo...oooX.oooX.ooo.......ooo...ooo....oooooo.ooo...ooo........XX..XXXX....",
"    .    .   ...   X.   X.   .......   ...   ....      .   ...   ........XXoooo.oooo.ooo...oooX.oooX.ooo.......ooo...ooo....oooooo.ooo...ooo........XX..XXXX....",
"   ...   .   ...   X.   X.   .......   ...   ..        .   ...   ........XXooo...ooo.ooo...oooX.oooX.ooo.......ooo...ooo..oooooooo.ooo...ooo........XX..XXXX....",
"   ...   .   ...   X.   X.   .......   ...   ..    .   .    .    ........XXooo...ooo.ooo...oooX.oooX.ooo.......ooo...ooo..oooo.ooo.oooo.oooo........XX..XXXX....",
"    .    .    .    X.   X.   .......         .    ..   ..       .........XXoooo.oooo.oooo.ooooX.oooX.ooo.......ooooooooo.oooo..ooo..ooooooo.........XX..XXXX....",
"         .         X.   X.   .......         .   ...   ..       .........XXooooooooo.oooooooooX.oooX.ooo.......ooooooooo.ooo...ooo..ooooooo.........XX..XXXX....",
"         ..       .X.   X.   ........       ..   ...   ...     XXX.......XXooooooooo..ooooooo.X.oooX.ooo........ooooooo..ooo...ooo...oooooXXX.......XX..XXXX....",
"..      ....     ..X.   X.   .........     ...   ...   ...X   XXXX.......XX..oooooo....ooooo..X.oooX.ooo.........ooooo...ooo...ooo...XoooXXXX.......XX..XXXX....",
".........................................................................XX.........................................................................XX..XXXX....",
"   .         ..      ...   ........      ....      .......   .....     ..XXooo.ooooooooo..oooooo...ooo........oooooo....oooooo.......ooo.....ooooo..XX..XXXX....",
"   .         .         .   .......         .         .....   ....       .XXooo.ooooooooo.ooooooooo.ooo.......ooooooooo.ooooooooo.....ooo....ooooooo.XX..XXXX....",
"   .         .         .   .......         .         .....   ...         XXooo.ooooooooo.ooooooooo.ooo.......ooooooooo.ooooooooo.....ooo...oooooooooXX..XXXX....",
"   .......   .    .    .   .......    ..   .    .    .....   ...         XXooo.......ooo.oooo.oooo.ooo.......oooo..ooo.oooo.oooo.....ooo...oooooooooXX..XXXX....",
"   ......    .   .......   .......   ...   .   ...   .....   ...   ...   XXooo......oooo.ooo.......ooo.......ooo...ooo.ooo...ooo.....ooo...ooo...oooXX..XXXX....",
"   .....    ..   .......         .   .......   ...   .....   ...   ...   XXooo.....oooo..ooo.......ooooooooo.ooo.......ooo...ooo.....ooo...ooo...oooXX..XXXX....",
"   ....    ...    ......         .   .......    .    ....   ....         XXooo....oooo...oooo......ooooooooo.ooo.......oooo.oooo....ooo....oooooooooXX..XXXX....",
"   ...    .....       ..         .    ......         ....   .....       .XXooo...oooo.....ooooooo..ooooooooo.oooo......ooooooooo....ooo.....ooooooo.XX..XXXX....",
"   ..    ........    ...   ...   .         ..        ...   .......     ..XXooo..oooo........oooo...ooo...ooo.ooooooooo..oooooooo...ooo.......ooooo..XX..XXXX....",
"   .    ........    ....   ...   ..        ...       ...   .......     ..XXooo.oooo........oooo....ooo...ooo..oooooooo...ooooooo...ooo.......ooooo..XX..XXXX....",
"   .   ........    .....   ...   ...       ......    ..   .......       .XXooo.ooo........oooo.....ooo...ooo...ooooooo......oooo..ooo.......ooooooo.XX..XXXX....",
"   .   ...   .    ......   ...   .......   .....    ...   ......         XXooo.ooo...ooo.oooo......ooo...ooo.......ooo.....oooo...ooo......oooooooooXX..XXXX....",
"   .   ...   .   .......   ...   .......   ....    ...   .......   ...   XXooo.ooo...ooo.ooo.......ooo...ooo.......ooo....oooo...ooo.......ooo...oooXX..XXXX....",
"   .    .    .   .......   ...   .......   ...    ....   .......   ...   XXooo.oooo.oooo.ooo.......ooo...ooo.......ooo...oooo....ooo.......ooo...oooXX..XXXX....",
"   .         .         .   ...   .         .     .....         .         XXooo.ooooooooo.ooooooooo.ooo...ooo.ooooooooo.ooooo.....ooooooooo.oooooooooXX..XXXX....",
"   ..       ..         .......   .         .    ......         ..       .XXooo..ooooooo..ooooooooo.......ooo.ooooooooo.oooo......ooooooooo..ooooooo.XX..XXXX....",
"   ..      ...         .......   .         .   .......         ...     ..XXooo..oooooo...ooooooooo.......ooo.ooooooooo.ooo.......ooooooooo...ooooo..XX..XXXX....",
"XXXXXXXXXXXXXXXXXXXXXXXXXXXXXXXXXXXXXXXXXXXXXXXXXXXXXXXXXXXXXXXXXXXXXXXXXXXXXXXXXXXXXXXXXXXXXXXXXXXXXXXXXXXXXXXXXXXXXXXXXXXXXXXXXXXXXXXXXXXXXXXXXXXXXX..XXXX....",
"......  ..........      ....            ..            .X....  .......    .........oo........oooo..oooo........oo............oo......XX..oo......oo..oo..XXXX....",
"......  .........        ....          ....          ..X....  ......      ........oo.......ooooo..ooooo.......oo............oo......XX..oo.....ooo..ooo.XXXX....",
"......  ........          ....        ......        ...X....  .....        ......oooo.....oooooooooooooo.....oooo..........oooo.....XX.oooo...ooooooooooXXXX....",
".....    .......          .....      ........      ....X...    ....        ......oooo.....oooooooooooooo.....oooo..........oooo.....XX.oooo...ooooooooooXXXX....",
"....      ......          .......  ............  ......XXX      ....      ......oooooo....oooooooooooooo....oooooo........oooooo....XXoooooo..ooooooooooXXXX....",
"...        .....          .......  ............  ......XX.      ....      .....oooooooo...oooooooooooooo...oooooooo......oooooooo...Xoooooooo.ooooooooooXXXX....",
"..          .....        ....          ....  ..  ..  ..X.        .. .    . ...oooooooooo..oooooooooooooo..oooooooooo....oooooooooo..ooooooooooooooooooooXXXX....",
".            .....      ....            ..    .  .    .X                    .oooooooooooo.oooooooooooooo.oooooooooooo...oooooooooo..ooooooooooooooooooooXXXX....",
".            ...  ..  ..  ..                           X                    oooooooooooooo.oooooooooooo.oooooooooooooo.oooooooooooo.Xoooooooo..oooooooo.XXXX....",
"              .    .  .    .                           X                    oooooooooooooo.oooooooooooo.oooooooooooooo.oooooooooooo.XXoooooo....oooooo..XXXX....",
"                                                       X                    .oooooooooooo...oooooooooo...oooooooooooo.ooooooooooooooXX.oooo......oooo...XXXX....",
"                                                       X                    ..oooooooooo....oooooooooo....oooooooooo..ooooooooooooooXX.oooo......oooo...XXXX....",
"                                                       X                .   ...oooooooo......oooooooo......oooooooo...ooooooooooooooXX..oo........oo....XXXX....",
"                                                       X.        .. ..  .. .....oooooo........oooooo........oooooo....ooooooooooooooXX..oo........oo....XXXX....",
"                                         .    .  .    .X....  ........  .........oooo..........oooo..........oooo.....ooooooooooooooXXXXXXXXXXXXXXXXXXXXXXXX....",
"                                        ...  ..  ..  ..X....  ........  .........oooo..........oooo..........oooo.....ooooooooooooooXXXXXXXXXXXXXXXXXXXXXXXX....",
".            ..    .  .    .            .....      ....X..      ....      ........oo............oo............oo.......ooooo..ooooo.XXXXXXXXXXXXXXXXXX..XXXX....",
"..          ....  ..  ..  ...          .....        ...X.        ..        .......oo............oo............oo........oooo..oooo..XXXXXXXXXXXXXXXXXX..XXXX....",
"......  ............  ........        .....          ..X.        ..        .........................................................XXXXXXXXXXXXXXXXXX..........",
"......  ............  .........      ......          ..X..      ....      ..........................................................XXXXXXXXXXXXXXXXXX..........",
"....      ........      ........    .......          ..X....  ........  ............................................................XXXXXXXXXXXXXXXXXXXXX.......",
"...        ......        ........  ........          ..X....  ........  ............................................................XXXXXXXXXXXXXXXXXXXXX.......",
"..          ....          .......  .........        ...X.        .. ..  .. .........................................................XX..oo........oo....X.......",
".            ..            .XXXXXXXXXXXXXXXXXXXXXXXXXXXX                .   ........................................................XX..oo........oo....X.......",
"........................................................                    ........................................................XX.oooo......oooo...X.......",
"........................................................                    ........................................................XX.oooo......oooo...X.......",
"........................................................                    ........................................................XXoooooo....oooooo..X.......",
"........................................................                    ........................................................Xoooooooo..oooooooo.X.......",
"........................................................                    ........................................................ooooooooooooooooooooX.......",
".........................................................        .. .    . .........................................................ooooooooooooooooooooX.......",
"........................................................X.      ....      ..........................................................Xoooooooo.ooooooooooX.......",
"........................................................XX      ....      ..........................................................XXoooooo..ooooooooooX.......",
"...........................................................    ....        .........................................................XX.oooo...ooooooooooX.......",
"............................................................  .....        .........................................................XX.oooo...ooooooooooX.......",
"............................................................  ......      ..........................................................XX..oo.....ooo..ooo.X.......",
"............................................................  .......    ...........................................................XX..oo......oo..oo..X......."};
