/* XPM */
static const char * cardbacksm_xpm[] = {
"32 48 4 1",
" 	c white",
".	c black",
"X	c ivory",
"o	c red",
"   ..........................   ",
"  .XXXXXXXXXXXXXXXXXXXXXXXXXX.  ",
" .XXX       XXXXXXXXXXXXXXXXXX. ",
".XXXooooooooooooooooooooooooXXX.",
".XXooooooooooooooooooooooooooXX.",
".XXooXXXXoXXoo    ooXXoXXXXooXX.",
".XXooXooooooXooooooXooooooXooXX.",
".XXooXooXXoooXo  oXooo  ooXooXX.",
".XXooXoXoo ooXooooXoo oo oXooXX.",
".XXooooXooooooXooXoooooo ooooXX.",
".XXooXoo oo oooooooo oo ooXooXX.",
".XXooXoooo  oo oo oo  ooooXooXX.",
".XXoooXoooooooo  ooooooooXoooXX.",
".XXooooXXoooo oooo ooooXXooooXX.",
".XXooooooXoooo oo ooooXooooooXX.",
".XXoo  oooo  oo  oo  oooo  ooXX.",
".XXoo o oo oo oooo oo oo o ooXX.",
".XXoo oo o ooo oo ooo o oo ooXX.",
".XXoo oooo oooo  oooo oooo ooXX.",
".XXoo oooooooooooooooooooo ooXX.",
".XXooooooo  o  oo  o  oooooooXX.",
".XXoo ooo ooooo  ooooo ooo ooXX.",
".XXoo oo oo   oooo   oo oo ooXX.",
".XXooo o o oooooooooo o o oooXX.",
".XXooo o o oooooooooo o o oooXX.",
".XXoo oo oo   oooo   oo oo ooXX.",
".XXoo ooo ooooo  ooooo ooo ooXX.",
".XXooooooo  o  oo  o  oooooooXX.",
".XXoo oooooooooooooooooooo ooXX.",
".XXoo oooo oooo  oooo oooo ooXX.",
".XXoo oo o ooo oo ooo o oo ooXX.",
".XXoo o oo oo oooo oo oo o ooXX.",
".XXoo  oooo  oo  oo  oooo  ooXX.",
".XXooooooXoooo oo ooooXooooooXX.",
".XXooooXXoooo oooo ooooXXooooXX.",
".XXoooXoooooooo  ooooooooXoooXX.",
".XXooXoooo  oo oo oo  ooooXooXX.",
".XXooXoo oo oooooooo oo ooXooXX.",
".XXoooo ooooooXooXoooooo ooooXX.",
".XXooXo oo ooXooooXoo oo oXooXX.",
".XXooXoo  oooXo  oXooo  ooXooXX.",
".XXooXooooooXooooooXooooooXooXX.",
".XXooXXXXoXXoo    ooXXoXXXXooXX.",
".XXooooooooooooooooooooooooooXX.",
".XXXooooooooooooooooooooooooXXX.",
" .XXXXXXXXXXXXXXXXXXXXXXXXXXXX. ",
"  .XXXXXXXXXXXXXXXXXXXXXXXXXX.  ",
"   ..........................   "};
