/* XPM */
static const char * cardbackbluelg_xpm[] = {
/* width height num_colors chars_per_pixel */
"64 96 4 1",
/* colors */
" 	c white",
".	c black",
"X	c #fffff0",
"o	c blue",
/* pixels */
"      ....................................................      ",
"    ........................................................    ",
"   ....XXXXXXXXXXXXXXXXXXXXXXXXXXXXXXXXXXXXXXXXXXXXXXXXXX....   ",
"  ...XXXXXXXXXXXXXXXXXXXXXXXXXXXXXXXXXXXXXXXXXXXXXXXXXXXXXX...  ",
" ...XXXXXX              XXXXXXXXXXXXXXXXXXXXXXXXXXXXXXXXXXXX... ",
" ..XXXXXXX              XXXXXXXXXXXXXXXXXXXXXXXXXXXXXXXXXXXXX.. ",
"...XXXXXooooooooooooooooooooooooooooooooooooooooooooooooXXXXX...",
"..XXXXXooooooooooooooooooooooooooooooooooooooooooooooooooXXXXX..",
"..XXXXooooooooooooooooooooooooooooooooooooooooooooooooooooXXXX..",
"..XXXXooooooooooooooooooooooooooooooooooooooooooooooooooooXXXX..",
"..XXXXooooXXXXXXXXooXXXXoooo        ooooXXXXooXXXXXXXXooooXXXX..",
"..XXXXooooXXXXXXXXooXXXXXooo        oooXXXXXooXXXXXXXXooooXXXX..",
"..XXXXooooXXXooooooooooXXXooooooooooooXXXooooooooooXXXooooXXXX..",
"..XXXXooooXXooooooooooooXXXooooooooooXXXooooooooooooXXooooXXXX..",
"..XXXXooooXXooooXXXXoooooXXXoo    ooXXXooooo    ooooXXooooXXXX..",
"..XXXXooooXXoooXXXXXXoooooXXoo    ooXXoooooX    XoooXXooooXXXX..",
"..XXXXooooXXooXXXooX  ooooXXooooooooXXoooo  XooX  ooXXooooXXXX..",
"..XXXXooooXXooXXoooo  ooooXXXooooooXXXoooo  oooo  ooXXooooXXXX..",
"..XXXXooooooooXXoooooooooooXXXooooXXXooooooooooo  ooooooooXXXX..",
"..XXXXooooooooXXXoooooooooooXXooooXXoooooooooooX  ooooooooXXXX..",
"..XXXXooooXXoooX  oooo  oooooooooooooooo  oooo  XoooXXooooXXXX..",
"..XXXXooooXXoooo  oooX  oooooooooooooooo  Xooo  ooooXXooooXXXX..",
"..XXXXooooXXoooooooo    oooo  oooo  oooo    ooooooooXXooooXXXX..",
"..XXXXooooXXXooooooo    oooo  XooX  oooo    oooooooXXXooooXXXX..",
"..XXXXoooooXXXoooooooooooooooX    XoooooooooooooooXXXoooooXXXX..",
"..XXXXooooooXXXooooooooooooooo    oooooooooooooooXXXooooooXXXX..",
"..XXXXoooooooXXXXXoooooooo  oooooooo  ooooooooXXXXXoooooooXXXX..",
"..XXXXooooooooXXXXXooooooo  XooooooX  oooooooXXXXXooooooooXXXX..",
"..XXXXoooooooooooXXXoooooooX  oooo  XoooooooXXXoooooooooooXXXX..",
"..XXXXooooooooooooXXoooooooo  XooX  ooooooooXXooooooooooooXXXX..",
"..XXXXoooo    oooooooo    oooX    Xooo    oooooooo    ooooXXXX..",
"..XXXXoooo    XooooooX    Xooo    oooX    XooooooX    ooooXXXX..",
"..XXXXoooo  oX  oooo  XooX  oooooooo  XooX  oooo  Xo  ooooXXXX..",
"..XXXXoooo  oo  Xooo  oooo  XooooooX  oooo  oooX  oo  ooooXXXX..",
"..XXXXoooo  oooX  oo  oooooX  oooo  Xooooo  oo  Xooo  ooooXXXX..",
"..XXXXoooo  oooo  oo  oooooo  XooX  oooooo  oo  oooo  ooooXXXX..",
"..XXXXoooo  oooooooo  oooooooX    Xooooooo  oooooooo  ooooXXXX..",
"..XXXXoooo  oooooooo  oooooooo    oooooooo  oooooooo  ooooXXXX..",
"..XXXXoooo  oooooooooooooooooooooooooooooooooooooooo  ooooXXXX..",
"..XXXXoooo  oooooooooooooooooooooooooooooooooooooooo  ooooXXXX..",
"..XXXXoooooooooooooo    oo    oooo    oo    ooooooooooooooXXXX..",
"..XXXXoooooooooooooX    oo    XooX    oo    XoooooooooooooXXXX..",
"..XXXXoooo  oooooo XXooooooooX    XooooooooX  oooooo  ooooXXXX..",
"..XXXXoooo  oooooX  oooooooooo    oooooooooo  Xooooo  ooooXXXX..",
"..XXXXoooo  oooo  Xooo      oooooooo      oooX  oooo  ooooXXXX..",
"..XXXXoooo  Xooo  oooX      oooooooo      Xooo  oooX  ooooXXXX..",
"..XXXXoooooX  oo  oo  XooooooooooooooooooX  oo  oo  XoooooXXXX..",
"..XXXXoooooo  oo  oo  oooooooooooooooooooo  oo  oo  ooooooXXXX..",
"..XXXXoooooo  oo  oo  oooooooooooooooooooo  oo  oo  ooooooXXXX..",
"..XXXXoooooX  oo  oo  XooooooooooooooooooX  oo  oo  XoooooXXXX..",
"..XXXXoooo  Xooo  oooX      oooooooo      Xooo  oooXX ooooXXXX..",
"..XXXXoooo  oooo  Xooo      oooooooo      oooX  oooo  ooooXXXX..",
"..XXXXoooo  oooooX  oooooooooo    oooooooooo  Xooooo  ooooXXXX..",
"..XXXXoooo  oooooo  XooooooooX    XooooooooX  oooooo  ooooXXXX..",
"..XXXXoooooooooooooX    oo    XooX    oo    XoooooooooooooXXXX..",
"..XXXXoooooooooooooo    oo    oooo    oo    ooooooooooooooXXXX..",
"..XXXXoooo  oooooooooooooooooooooooooooooooooooooooo  ooooXXXX..",
"..XXXXoooo  oooooooooooooooooooooooooooooooooooooooo  ooooXXXX..",
"..XXXXoooo  oooooooo  oooooooo    oooooooo  oooooooo  ooooXXXX..",
"..XXXXoooo  oooooooo  oooooooX    Xooooooo  oooooooo  ooooXXXX..",
"..XXXXoooo  oooo  oo  oooooo  XooX  oooooo  oo  oooo  ooooXXXX..",
"..XXXXoooo  oooX  oo  oooooX  oooo  Xooooo  oo  Xooo  ooooXXXX..",
"..XXXXoooo  oo  Xooo  oooo  XooooooX  oooo  oooX  oo  ooooXXXX..",
"..XXXXoooo  oX  oooo  XooX  oooooooo  XooX  oooo  Xo  ooooXXXX..",
"..XXXXoooo    XooooooXX   Xooo    oooX    XooooooX    ooooXXXX..",
"..XXXXoooo    oooooooo    oooX    Xooo    oooooooo    ooooXXXX..",
"..XXXXooooooooooooXXoooooooo  XooX  ooooooooXXooooooooooooXXXX..",
"..XXXXoooooooooooXXXoooooooX  oooo  XoooooooXXXoooooooooooXXXX..",
"..XXXXooooooooXXXXXooooooo  XooooooX  oooooooXXXXXooooooooXXXX..",
"..XXXXoooooooXXXXXoooooooo  oooooooo  ooooooooXXXXXoooooooXXXX..",
"..XXXXooooooXXXooooooooooooooo    oooooooooooooooXXXooooooXXXX..",
"..XXXXoooooXXXoooooooooooooooX    XoooooooooooooooXXXoooooXXXX..",
"..XXXXooooXXXooooooo    oooo  XooX  oooo    oooooooXXXooooXXXX..",
"..XXXXooooXXoooooooo    oooo  oooo  oooo    ooooooooXXooooXXXX..",
"..XXXXooooXXoooo  oooX  oooooooooooooooo  Xooo  ooooXXooooXXXX..",
"..XXXXooooXXoooX  oooo  oooooooooooooooo  oooo  XoooXXooooXXXX..",
"..XXXXoooooooo  XoooooooooooXXooooXXoooooooooooX  ooooooooXXXX..",
"..XXXXoooooooo  oooooooooooXXXooooXXXooooooooooo  ooooooooXXXX..",
"..XXXXooooXXoo  oooo  ooooXXXooooooXXXoooo  oooo  ooXXooooXXXX..",
"..XXXXooooXXoo  XooX  ooooXXooooooooXXoooo  XooX  ooXXooooXXXX..",
"..XXXXooooXXoooX    XoooooXXoo    ooXXoooooX    XoooXXooooXXXX..",
"..XXXXooooXXoooo    oooooXXXoo    ooXXXooooo    ooooXXooooXXXX..",
"..XXXXooooXXooooooooooooXXXooooooooooXXXooooooooooooXXooooXXXX..",
"..XXXXooooXXXooooooooooXXXooooooooooooXXXooooooooooXXXooooXXXX..",
"..XXXXooooXXXXXXXXooXXXXXooo        oooXXXXXooXXXXXXXXooooXXXX..",
"..XXXXooooXXXXXXXXooXXXXoooo        ooooXXXXooXXXXXXXXooooXXXX..",
"..XXXXooooooooooooooooooooooooooooooooooooooooooooooooooooXXXX..",
"..XXXXooooooooooooooooooooooooooooooooooooooooooooooooooooXXXX..",
"..XXXXXooooooooooooooooooooooooooooooooooooooooooooooooooXXXXX..",
"...XXXXXooooooooooooooooooooooooooooooooooooooooooooooooXXXXX...",
" ..XXXXXXXXXXXXXXXXXXXXXXXXXXXXXXXXXXXXXXXXXXXXXXXXXXXXXXXXXX.. ",
" ...XXXXXXXXXXXXXXXXXXXXXXXXXXXXXXXXXXXXXXXXXXXXXXXXXXXXXXXX... ",
"  ...XXXXXXXXXXXXXXXXXXXXXXXXXXXXXXXXXXXXXXXXXXXXXXXXXXXXXX...  ",
"   ....XXXXXXXXXXXXXXXXXXXXXXXXXXXXXXXXXXXXXXXXXXXXXXXXXX....   ",
"    ........................................................    ",
"      ....................................................      "};
