/* XPM */
static const char * chip10000_xpm[] = {
"27 27 5 1",
" 	c None",
".	c gray",
"X	c black",
"o	c white",
"O	c yellow",
"          ........         ",
"       ....XXXXXX...       ",
"      ..XXXXXXXXXXX..      ",
"    ...XXXXXXXXXXXXX...    ",
"   ..oooXXXXXXXXXXXooo..   ",
"   .oooooXXoooooXXooooo.   ",
"  ..oooooXooOOOooXooooo..  ",
" ..XooooXXOOOOOOOXXooooX.. ",
" .XXXooXXOOOOOOOOOXXooXXX. ",
" .XXXXXXOOOOOOOOOOOXXXXXX. ",
"..XXXXoOXOXXXOXOOXOOoXXXX..",
".XXXXooOXOXOXOXOOXOOooXXXX.",
".XXXXoOOXOXOXOXOXOOOOoXXXX.",
".XXXXoOOXOXOXOXXOOOOOoXXXX.",
".XXXXoOOXOXOXOXOXOOOOoXXXX.",
".XXXXooOXOXOXOXOOXOOooXXXX.",
"..XXXXoOXOXXXOXOOXOOoXXXX..",
" .XXXXXXOOOOOOOOOOOXXXXXX. ",
" .XXXooXXOOOOOOOOOXXooXXX. ",
" ..XooooXXOOOOOOOXXooooX.. ",
"  ..oooooXooOOOooXooooo..  ",
"   .oooooXXoooooXXooooo.   ",
"   ..oooXXXXXXXXXXXooo..   ",
"    ...XXXXXXXXXXXXX...    ",
"      ..XXXXXXXXXXX..      ",
"       ....XXXXX....       ",
"          .......          "};
