/* XPM */
static const char * chip1000_xpm[] = {
"27 27 5 1",
" 	c None",
".	c gray",
"X	c cyan",
"o	c black",
"O	c yellow",
"          ........         ",
"       ....XXXXXX...       ",
"      ..XXXXXXXXXXX..      ",
"    ...XXXXXXXXXXXXX...    ",
"   ..oooXXXXXXXXXXXooo..   ",
"   .oooooXXoooooXXooooo.   ",
"  ..oooooXooOOOooXooooo..  ",
" ..XooooXXOOOOOOOXXooooX.. ",
" .XXXooXXOOOOOOOOOXXooXXX. ",
" .XXXXXXOOoOOoOOoOOXXXXXX. ",
"..XXXXoOOOoOOoOOoOOOoXXXX..",
".XXXXooOOOoOOoOOoOOOooXXXX.",
".XXXXoOOOOoOOoOoOOOOOoXXXX.",
".XXXXoOOOOoOOooOOOOOOoXXXX.",
".XXXXoOOOOoOOoOoOOOOOoXXXX.",
".XXXXooOOOoOOoOOoOOOooXXXX.",
"..XXXXoOOOoOOoOOoOOOoXXXX..",
" .XXXXXXOOoOOoOOoOOXXXXXX. ",
" .XXXooXXOOOOOOOOOXXooXXX. ",
" ..XooooXXOOOOOOOXXooooX.. ",
"  ..oooooXooOOOooXooooo..  ",
"   .oooooXXoooooXXooooo.   ",
"   ..oooXXXXXXXXXXXooo..   ",
"    ...XXXXXXXXXXXXX...    ",
"      ..XXXXXXXXXXX..      ",
"       ....XXXXX....       ",
"          .......          "};
