/* XPM */
static const char * chip25_xpm[] = {
"27 27 5 1",
" 	c None",
".	c gray",
"X	c green",
"o	c black",
"O	c yellow",
"          ........         ",
"       ....XXXXXX...       ",
"      ..XXXXXXXXXXX..      ",
"    ...XXXXXXXXXXXXX...    ",
"   ..oooXXXXXXXXXXXooo..   ",
"   .oooooXXoooooXXooooo.   ",
"  ..oooooXooOOOooXooooo..  ",
" ..XooooXXOOOOOOOXXooooX.. ",
" .XXXooXXOOOOOOOOOXXooXXX. ",
" .XXXXXXOoooOOooooOXXXXXX. ",
"..XXXXoOOOOOoOoOOOOOoXXXX..",
".XXXXooOOOOOoOoOOOOOooXXXX.",
".XXXXoOOOOOOoOoOOOOOOoXXXX.",
".XXXXoOOOOooOOoooOOOOoXXXX.",
".XXXXoOOOoOOOOOOOoOOOoXXXX.",
".XXXXooOOoOOOOOOOoOOooXXXX.",
"..XXXXoOOoOOOOoOOoOOoXXXX..",
" .XXXXXXOooooOOooOOXXXXXX. ",
" .XXXooXXOOOOOOOOOXXooXXX. ",
" ..XooooXXOOOOOOOXXooooX.. ",
"  ..oooooXooOOOooXooooo..  ",
"   .oooooXXoooooXXooooo.   ",
"   ..oooXXXXXXXXXXXooo..   ",
"    ...XXXXXXXXXXXXX...    ",
"      ..XXXXXXXXXXX..      ",
"       ....XXXXX....       ",
"          .......          "};
