/* XPM */
static const char * chip50_xpm[] = {
"27 27 5 1",
" 	c None",
".	c gray",
"X	c purple",
"o	c black",
"O	c yellow",
"          ........         ",
"       ....XXXXXX...       ",
"      ..XXXXXXXXXXX..      ",
"    ...XXXXXXXXXXXXX...    ",
"   ..oooXXXXXXXXXXXooo..   ",
"   .oooooXXoooooXXooooo.   ",
"  ..oooooXooOOOooXooooo..  ",
" ..XooooXXOOOOOOOXXooooX.. ",
" .XXXooXXOOOOOOOOOXXooXXX. ",
" .XXXXXXOooooOOooOOXXXXXX. ",
"..XXXXoOOoOOOOoOOoOOoXXXX..",
".XXXXooOOoOOOOoOOoOOooXXXX.",
".XXXXoOOOoOOOOoOOoOOOoXXXX.",
".XXXXoOOOoooOOoOOoOOOoXXXX.",
".XXXXoOOOOOOoOoOOoOOOoXXXX.",
".XXXXooOOOOOoOoOOoOOooXXXX.",
"..XXXXoOOoOOoOoOOoOOoXXXX..",
" .XXXXXXOOooOOOooOOXXXXXX. ",
" .XXXooXXOOOOOOOOOXXooXXX. ",
" ..XooooXXOOOOOOOXXooooX.. ",
"  ..oooooXooOOOooXooooo..  ",
"   .oooooXXoooooXXooooo.   ",
"   ..oooXXXXXXXXXXXooo..   ",
"    ...XXXXXXXXXXXXX...    ",
"      ..XXXXXXXXXXX..      ",
"       ....XXXXX....       ",
"          .......          "};
