/* XPM */
static const char * chip1_xpm[] = {
"27 27 4 1",
" 	c None",
".	c gray",
"X	c gray90",
"o	c gray50",
"          ........         ",
"       ....XooXXo...       ",
"      ..ooXXooXXooX..      ",
"    ...XooXXXXXXooXX...    ",
"   ..oXXooXooooXXXXooo..   ",
"   .oooXXXoXoXoooXXooXX.   ",
"  ..XooXXoXoXoXoXoXXXXX..  ",
" ..XXXXXXoooXooXoXoXXXXo.. ",
" .ooXXXXoooooXXoXoXoXXooo. ",
" .oooXXXoXXXXooXXXooXXooX. ",
"..XXoXXXoXooXoooooXoXXXXX..",
".XXXXXXoXXoXXXooXooooXXooo.",
".oooXXXoXXXXXXoXXoXooXXooo.",
".oooXXooXXXXXXoXXoXXoXXXXX.",
".XXXXXoXXXXXXXoXoXoXoXXXXX.",
".XXXXXXoooXXXXoXoXXooXXXXX.",
"..XXXXX....oXXXoXoooXXXXX..",
" .XXXXXoooXXXXXoXoXXXXXXX. ",
" .XXXXXoXXXXXooXXoXXXXXXX. ",
" ..XXXXXoooooXXXXXoXXXXX.. ",
"  ..XoXoXXXXoXXXXXoXXoX..  ",
"   .XXXXXXXXoXXXooooXXX.   ",
"   ..XXXXoXXXoooXXXooX..   ",
"    ...XoXXoXXXXXoXX...    ",
"      ..XXoXXoXoXXo..      ",
"       ....XXoXo....       ",
"          .......          "};
