/* XPM */
static const char * chip5_xpm[] = {
"27 27 5 1",
" 	c None",
".	c gray",
"X	c red",
"o	c black",
"O	c yellow",
"          ........         ",
"       ....XXXXXX...       ",
"      ..XXXXXXXXXXX..      ",
"    ...XXXXXXXXXXXXX...    ",
"   ..oooXXXXXXXXXXXooo..   ",
"   .oooooXXoooooXXooooo.   ",
"  ..oooooXooOOOooXooooo..  ",
" ..XooooXXOOOOOOOXXooooX.. ",
" .XXXooXXOOOOOOOOOXXooXXX. ",
" .XXXXXXOOOoooooOOOXXXXXX. ",
"..XXXXoOOOOoOOOOOOOOoXXXX..",
".XXXXooOOOOoOOOOOOOOooXXXX.",
".XXXXoOOOOOoOOOOOOOOOoXXXX.",
".XXXXoOOOOOooooOOOOOOoXXXX.",
".XXXXoOOOOOOOOOoOOOOOoXXXX.",
".XXXXooOOOOOOOOoOOOOooXXXX.",
"..XXXXoOOOOoOOOoOOOOoXXXX..",
" .XXXXXXOOOOoooOOOOXXXXXX. ",
" .XXXooXXOOOOOOOOOXXooXXX. ",
" ..XooooXXOOOOOOOXXooooX.. ",
"  ..oooooXooOOOooXooooo..  ",
"   .oooooXXoooooXXooooo.   ",
"   ..oooXXXXXXXXXXXooo..   ",
"    ...XXXXXXXXXXXXX...    ",
"      ..XXXXXXXXXXX..      ",
"       ....XXXXX....       ",
"          .......          "};
