/* XPM */
static const char * chip5000_xpm[] = {
"27 27 5 1",
" 	c None",
".	c gray",
"X	c brown",
"o	c black",
"O	c yellow",
"          ........         ",
"       ....XXXXXX...       ",
"      ..XXXXXXXXXXX..      ",
"    ...XXXXXXXXXXXXX...    ",
"   ..oooXXXXXXXXXXXooo..   ",
"   .oooooXXoooooXXooooo.   ",
"  ..oooooXooOOOooXooooo..  ",
" ..XooooXXOOOOOOOXXooooX.. ",
" .XXXooXXOOOOOOOOOXXooXXX. ",
" .XXXXXXOooooOoOOoOXXXXXX. ",
"..XXXXoOOoOOOOoOOoOOoXXXX..",
".XXXXooOOoOOOOoOOoOOooXXXX.",
".XXXXoOOOoOOOOoOoOOOOoXXXX.",
".XXXXoOOOoooOOooOOOOOoXXXX.",
".XXXXoOOOOOOoOoOoOOOOoXXXX.",
".XXXXooOOOOOoOoOOoOOooXXXX.",
"..XXXXoOOoOOoOoOOoOOoXXXX..",
" .XXXXXXOOooOOoOOoOXXXXXX. ",
" .XXXooXXOOOOOOOOOXXooXXX. ",
" ..XooooXXOOOOOOOXXooooX.. ",
"  ..oooooXooOOOooXooooo..  ",
"   .oooooXXoooooXXooooo.   ",
"   ..oooXXXXXXXXXXXooo..   ",
"    ...XXXXXXXXXXXXX...    ",
"      ..XXXXXXXXXXX..      ",
"       ....XXXXX....       ",
"          .......          "};
