/* XPM */
static const char * kenomenu246_xpm[] = {
"146 66 6 1",
" 	c #000000000000",
".	c #51445144FFFF",
"X	c #FFFFFFFFFFFF",
"o	c #FFFF0000FFFF",
"O	c #FFFFFFFF0000",
"+	c #FFFF14514103",
"                                                                                                                                                  ",
"                                                                                                                                                  ",
"  ............................................................................................................................................... ",
"  ............................................................................................................................................... ",
"  ............................................................................................................................................... ",
"  ............................................................................................................................................... ",
"  ..................................................................XXXXXXX...................................................................... ",
"  ................................................................XXX     XXX.................................................................... ",
"  ...............................................................XX  XXX    XX................................................................... ",
"  ...............................................................X   XXXX    X................................................................... ",
"  ...............................................................X    X.X    X................................................................... ",
"  .......oooooooooooo.......oooooooooooooooooooooooooooooooooooooX    X.X    Xoooooooo......ooooooooooooo......ooooooooooooooooooo............... ",
"  .......oooooooooooo.......oooooooooooooooooooooooooooooooooooooX    X.X    Xoooooooo......ooooooooooooo......ooooooooooooooooooo............... ",
"  .......oOOOOOOOOOOo.....oooOOOOOOOOOOoooOOOOOOOOOOOOOOOOOOOOOOOXX  XXoX    XOOOOOOooo.....ooOOOOOOOOOoo.....oooOOOOOOOOOOOOOOOOooo............. ",
"  .......oOOOOOOOOOOo.....oooOOOOOOOOOOoooOOOOOOOOOOOOOOOOOOOOOOOOXXXXoXX   XXOOOOOOooo.....ooOOOOOOOOOoo.....oooOOOOOOOOOOOOOOOOooo............. ",
"  .......oOO++++++OOo....oooOOO++++++OOoooOO++++++++++++++++++++++++OOOX    X+++++OOOOo.....ooO+++++++Ooo...oooOOO+++++++++++++OOOoooo........... ",
"  .......oOO++++++OOo..oooOOO++++++++OOoooOO+++++++++++++++++++++++++OXX   XX+++++++OOooo...ooO+++++++Ooo.ooooOOO++++++++++++++++OOOooo.......... ",
"  .......oOO++++++OOo..oooOOO++++++++OOoooOO+++++++++++++++++++++++++XX   XX++++++++OOooo...ooO+++++++Ooo.ooooOOO++++++++++++++++OOOooo.......... ",
"  .......oOO++++++OOoooooOOO++++++++OOOoooOO++++++++++++++++++++++++XX   XXXXX++++++OOOoo...ooO+++++++OoooooOOO+++++++++++++++++++OOOOooo........ ",
"  .......oOO++++++OOoooOOO++++++++OOOoooooOO+++++++++++++++++++++++XX  XXXOX X++++++++Oooo..ooO+++++++OoooOOOO++++++++++++++++++++++OOOoo........ ",
"  .......oOO++++++OOoooOOO++++++++OOOoooooOO++++++++++++++++++++++XX  XXooXX X++++++++Oooo..ooO+++++++OoooOOOO++++++++++++++++++++++OOOoo........ ",
"  .......oOO++++++OOoOOOO++++++++OOOooo..oOO++++++OOOOOOOOOOOOOOOXX   XXXXX  X++++++++OOOo..ooO+++++++OoooOO++++++++++OOOOOO++++++++++Ooo........ ",
"  .......oOO++++++OOOOO++++++++OOOooo....oOO++++++OOoooooooooooooX           X+++++++++OOoooooO+++++++OoooOO++++++++OOOoooOOOO++++++++Ooo........ ",
"  .......oOO++++++OOOOO++++++++OOOooo....oOO++++++OOoooooooooooooX           X+++++++++OOoooooO+++++++OoooOO++++++++OOOoooOOOO++++++++Ooo........ ",
"  .......oOO++++++OOO++++++++OOOOooo.....oOO++++++OOo............X           X+++++++++OOOooooO+++++++OoooOO++++++OOOOooooooOOO+++++++Ooo........ ",
"  .......oOO++++++OOO++++++++OOOOooo.....oOO++++++OOo............XXXXXXXXXXXXX+++++++++OOOooooO+++++++OoooOO++++++OOOOooooooOOO+++++++Ooo........ ",
"  .......oOO++++++OO++++++++OOOooo.......oOO++++++OOo....................oOO+++++++++++++OooooO+++++++OoooOO++++++OOooo...ooooO+++++++Ooo........ ",
"  .......oOO++++++++++++++OOOoooo........oOO++++++OOoooooooooooooo.......oOO+++++++++++++OOOooO+++++++OoooOO++++++OOoo......ooO+++++++Ooo........ ",
"  .......oOO++++++++++++++OOOoooo........oOO++++++OOoooooooooooooo.......oOO+++++++++++++OOOooO+++++++OoooOO++++++OOoo......ooO+++++++Ooo........ ",
"  .......oOO+++++++++++++OOOooo..........oOO++++++OOOOOOOOOOOOOOOo.......oOO++++++OO++++++OOooO+++++++OoooOO++++++OOoo......ooO+++++++Ooo........ ",
"  .......oOO+++++++++++OOOooo............oOO+++++++++++++++++++OOo.......oOO++++++OO++++++OOOOO+++++++OoooOO++++++OOoo......ooO+++++++Ooo........ ",
"  .......oOO+++++++++++OOOooo............oOO+++++++++++++++++++OOo.......oOO++++++OO++++++OOOOO+++++++OoooOO++++++OOoo......ooO+++++++Ooo........ ",
"  .......oOO+++++++++OOOOooo.............oOO+++++++++++++++++++OOo.......oOO++++++OOOO++++++OOO+++++++OoooOO++++++OOoo......ooO+++++++Ooo........ ",
"  .......oOO+++++++++++OOOooo............oOO+++++++++++++++++++OOo.......oOO++++++OOOO++++++OOO+++++++OoooOO++++++OOoo......ooO+++++++Ooo........ ",
"  .......oOO+++++++++++OOOooo............oOO+++++++++++++++++++OOo.......oOO++++++OOOO++++++OOO+++++++OoooOO++++++OOoo......ooO+++++++Ooo........ ",
"  .......oOO+++++++++++++OOOooo..........oOO+++++++++++++++++++OOo.......oOO++++++OOOOO+++++++O+++++++OoooOO++++++OOoo......ooO+++++++Ooo........ ",
"  .......oOO+++++++++++++OOOooo..........oOO+++++++++++++++++++OOo.......oOO++++++OOOOO+++++++O+++++++OoooOO++++++OOoo......ooO+++++++Ooo........ ",
"  .......oOO++++++++++++++OOOoooo........oOO++++++OOOOOOOOOOOOOOOo.......oOO++++++OOooO+++++++O+++++++OoooOO++++++OOoo......ooO+++++++Ooo........ ",
"  .......oOO++++++OO++++++++OOOooo.......oOO++++++OOoooooooooooooo.......oOO++++++OOooOOO+++++++++++++OoooOO++++++OOoo......ooO+++++++Ooo........ ",
"  .......oOO++++++OO++++++++OOOooo.......oOO++++++OOXXXXoooooooooo.......oOO++++++OOooOOO+++XXXXXXX+++OoooOO++++++OOoo......ooO+++++++Ooo........ ",
"  .......oOO++++++OOO++++++++OOOOooo.....oOO++++++OXX  X.................oOO++++++OOoooOO+XXX     XX++OoooOO++++++OOooo...ooooO+++++++Ooo........ ",
"  .......oOO++++++OOOOO++++++++OOOooo....oOO++++++OX   X.................oOO++++++OOoooOOXX   XXX  XX+OoooOO++++++OOOOooooooOOO+++++++Ooo........ ",
"  .......oOO++++++OOOOO++++++++OOOooo....oOO++++++XX   X.................oOO++++++OOoooOOX   XXX    X+OoooOO++++++OOOOooooooOOO+++++++Ooo........ ",
"  .......oOO++++++OOoOOOO++++++++OOOooo..oOO+++++XX    Xooooooooooooooo..oOO++++++OOooooXX   X+X    X+OoooOO++++++++OOOoooOOOO++++++++Ooo........ ",
"  .......oOO++++++OOoooOOO++++++++OOOoooooOO++++XX     XOOOOOOOOOOOOOoooooOO++++++OOoo.oX    X+X    X+OoooOO++++++++++OOOOOO++++++++++Ooo........ ",
"  .......oOO++++++OOoooOOO++++++++OOOoooooOO+++XX X    XOOOOOOOOOOOOOoooooOO++++++OOoo.oX    X+XX  XX+OoooOO++++++++++OOOOOO++++++++++Ooo........ ",
"  .......oOO++++++OOoooooOOO++++++++OOOoooOO+++X XX    X++++++++++++OOOoooOO++++++OOoo.oX    XXXXXXX++OoooOOOO++++++++++++++++++++++OOOoo........ ",
"  .......oOO++++++OOoooooOOO++++++++OOOoooOO++XX XX    X++++++++++++OOOoooOO++++++OOoo.oX    X    XXX+OoooOOOO++++++++++++++++++++++OOOoo........ ",
"  .......oOO++++++OOo..oooOOO++++++++OOoooOO+XX XXX    X+++++++++++++OOoooOO++++++OOoo..X     XX    X+OoooooOOO+++++++++++++++++++OOOOooo........ ",
"  .......oOO++++++OOo....oooOOO++++++OOoooOO+X XX+X    X+++++++++++++OOoooOO++++++OOoo..X    XXXX   XXOoo.ooooOOO++++++++++++++++OOOooo.......... ",
"  .......oOO++++++OOo....oooOOO++++++OOoooOOXX X++X    X+++++++++++++OOoooOO++++++OOoo..X    X++X    XOoo.ooooOOO++++++++++++++++OOOooo.......... ",
"  .......oOO++++++OOo.....oooOOOO++++OOoooOOX XXXXX    XXX++++++++++OOOoooOO++++++OOoo..X    XO+X    XOoo...oooOOO+++++++++++++OOOoooo........... ",
"  .......oOOOOOOOOOOo.......oooOOOOOOOOoooOOX            XOOOOOOOOOOOoooooOOOOOOOOOOoo..X    XOOX    XOoo.....oooOOOOOOOOOOOOOOOOooo............. ",
"  .......oOOOOOOOOOOo.......oooOOOOOOOOoooOOX            XOOOOOOOOOOOoooooOOOOOOOOOOoo..X    XOOX    XOoo.....oooOOOOOOOOOOOOOOOOooo............. ",
"  .......oooooooooooo........oooooooooooooooXXXXXXX    XXXooooooooooooo..ooooooooooooo..X    XooX    Xooo......ooooooooooooooooooo............... ",
"  ................................................X    X................................XX   XXXX   XX........................................... ",
"  ..............................................XXX    XXX...............................X    XX    X............................................ ",
"  ..............................................X        X...............................XXX      XXX............................................ ",
"  ..............................................XXXXXXXXXX.................................XXXXXXXX.............................................. ",
"  ............................................................................................................................................... ",
"  ............................................................................................................................................... ",
"  ............................................................................................................................................... ",
"  ............................................................................................................................................... ",
"  ............................................................................................................................................... ",
"  ............................................................................................................................................... ",
"                                                                                                                                                  "};
