/* XPM */
static const char * kenomenu369_xpm[] = {
"146 66 6 1",
" 	c #000000000000",
".	c #51445144FFFF",
"X	c #FFFFFFFFFFFF",
"o	c #FFFF0000FFFF",
"O	c #FFFFFFFF0000",
"+	c #FFFF14514103",
"                                                                                                                                                  ",
"                                                                                                                                                  ",
"  ............................................................................................................................................... ",
"  ............................................................................................................................................... ",
"  ............................................................................................................................................... ",
"  ............................................................................................................................................... ",
"  ...................................................................XXXXXXX..................................................................... ",
"  .................................................................XXX     XXX................................................................... ",
"  ................................................................XX  XXX    X................................................................... ",
"  ................................................................X   XXXX   XX.................................................................. ",
"  ................................................................X    X.X    X.................................................................. ",
"  .......oooooooooooo.......ooooooooooooooooooooooooooooooooooooooX    X.X    Xooooooo......ooooooooooooo......ooooooooooooooooooo............... ",
"  .......oooooooooooo.......ooooooooooooooooooooooooooooooooooooooX    X.X    Xooooooo......ooooooooooooo......ooooooooooooooooooo............... ",
"  .......oOOOOOOOOOOo.....oooOOOOOOOOOOoooOOOOOOOOOOOOOOOOOOOOOOOOXX  XXXX   XXOOOOOooo.....ooOOOOOOOOOoo.....oooOOOOOOOOOOOOOOOOooo............. ",
"  .......oOOOOOOOOOOo.....oooOOOOOOOOOOoooOOOOOOOOOOOOOOOOOOOOOOOOOXXXXXX   XXOOOOOOooo.....ooOOOOOOOOOoo.....oooOOOOOOOOOOOOOOOOooo............. ",
"  .......oOO++++++OOo....oooOOO++++++OOoooOO++++++++++++++++++++++++OX    XXX+++++OOOOo.....ooO+++++++Ooo...oooOOO+++++++++++++OOOoooo........... ",
"  .......oOO++++++OOo..oooOOO++++++++OOoooOO+++++++++++++++++++++++++XXXX   XX++++++OOooo...ooO+++++++Ooo.ooooOOO++++++++++++++++OOOooo.......... ",
"  .......oOO++++++OOo..oooOOO++++++++OOoooOO++++++++++++++++++++++XXXXOoXX   XX+++++OOooo...ooO+++++++Ooo.ooooOOO++++++++++++++++OOOooo.......... ",
"  .......oOO++++++OOoooooOOO++++++++OOOoooOO+++++++++++++++++++++XX  XXooX    X+++++OOOoo...ooO+++++++OoooooOOO+++++++++++++++++++OOOOooo........ ",
"  .......oOO++++++OOoooOOO++++++++OOOoooooOO+++++++++++++++++++++X    XooX    X+++++++Oooo..ooO+++++++OoooOOOO++++++++++++++++++++++OOOoo........ ",
"  .......oOO++++++OOoooOOO++++++++OOOoooooOO+++++++++++++++++++++X    XooX    X+++++++Oooo..ooO+++++++OoooOOOO++++++++++++++++++++++OOOoo........ ",
"  .......oOO++++++OOoOOOO++++++++OOOooo..oOO++++++OOOOOOOOOOOOOOOX    XooX    X+++++++OOOo..ooO+++++++OoooOO++++++++++OOOOOO++++++++++Ooo........ ",
"  .......oOO++++++OOOOO++++++++OOOooo....oOO++++++OOoooooooooooooX   XX.XX   XX++++++++OOoooooO+++++++OoooOO++++++++OOOoooOOOO++++++++Ooo........ ",
"  .......oOO++++++OOOOO++++++++OOOooo....oOO++++++OOoooooooooooooXX  XXXX    X+++++++++OOoooooO+++++++OoooOO++++++++OOOoooOOOO++++++++Ooo........ ",
"  .......oOO++++++OOO++++++++OOOOooo.....oOO++++++OOo.............XXX      XXX+++++++++OOOooooO+++++++OoooOO++++++OOOOooooooOOO+++++++Ooo........ ",
"  .......oOO++++++OOO++++++++OOOOooo.....oOO++++++OOo...............XXXXXXXX+++++++++++OOOooooO+++++++OoooOO++++++OOOOooooooOOO+++++++Ooo........ ",
"  .......oOO++++++OO++++++++OOOooo.......oOO++++++OOo....................oOO+++++++++++++OooooO+++++++OoooOO++++++OOooo...ooooO+++++++Ooo........ ",
"  .......oOO++++++++++++++OOOoooo........oOO++++++OOoooooooooooooo.......oOO+++++++++++++OOOooO+++++++OoooOO++++++OOoo......ooO+++++++Ooo........ ",
"  .......oOO++++++++++++++OOOoooo........oOO++++++OOoooooooooooooo.......oOO+++++++++++++OOOooO+++++++OoooOO++++++OOoo......ooO+++++++Ooo........ ",
"  .......oOO+++++++++++++OOOooo..........oOO++++++OOOOOOOOOOOOOOOo.......oOO++++++OO++++++OOooO+++++++OoooOO++++++OOoo......ooO+++++++Ooo........ ",
"  .......oOO+++++++++++OOOooo............oOO+++++++++++++++++++OOo.......oOO++++++OO++++++OOOOO+++++++OoooOO++++++OOoo......ooO+++++++Ooo........ ",
"  .......oOO+++++++++++OOOooo............oOO+++++++++++++++++++OOo.......oOO++++++OO++++++OOOOO+++++++OoooOO++++++OOoo......ooO+++++++Ooo........ ",
"  .......oOO+++++++++OOOOooo.............oOO+++++++++++++++++++OOo.......oOO++++++OOOO++++++OOO+++++++OoooOO++++++OOoo......ooO+++++++Ooo........ ",
"  .......oOO+++++++++++OOOooo............oOO+++++++++++++++++++OOo.......oOO++++++OOOO++++++OOO+++++++OoooOO++++++OOoo......ooO+++++++Ooo........ ",
"  .......oOO+++++++++++OOOooo............oOO+++++++++++++++++++OOo.......oOO++++++OOOO++++++OOO+++++++OoooOO++++++OOoo......ooO+++++++Ooo........ ",
"  .......oOO+++++++++++++OOOooo..........oOO+++++++++++++++++++OOo.......oOO++++++OOOOO+++++++O+++++++OoooOO++++++OOoo......ooO+++++++Ooo........ ",
"  .......oOO+++++++++++++OOOooo..........oOO+++++++++++++++++++OOo.......oOO++++++OOOOO+++++++O+++++++OoooOO++++++OOoo......ooO+++++++Ooo........ ",
"  .......oOO++++++++++++++OOOoooo........oOO++++++OOOOOOOOOOOOOOOo.......oOO++++++OOooO+++++++O+++++++OoooOO++++++OOoo......ooO+++++++Ooo........ ",
"  .......oOO++++++OO++++++++OOOooo.......oOO++++++OOoooooooooooooo.......oOO++++++OOooOOO+++++++++++++OoooOO++++++OOoo......ooO+++++++Ooo........ ",
"  .......oOO++++++OO++++++++OOOooo.......oOO++++XXXXXXXooooooooooo.......oOO++++++OOooOOO++XXXXXXXX+++OoooOO++++++OOoo......ooO+++++++Ooo........ ",
"  .......oOO++++++OOO++++++++OOOOooo.....oOO++XXX     XX.................oOO++++++OOoooOOXXX      XXX+OoooOO++++++OOooo...ooooO+++++++Ooo........ ",
"  .......oOO++++++OOOOO++++++++OOOooo....oOO+XX   XXX  XX................oOO++++++OOoooOOX    XX    X+OoooOO++++++OOOOooooooOOO+++++++Ooo........ ",
"  .......oOO++++++OOOOO++++++++OOOooo....oOO+X   XXX    X................oOO++++++OOoooOXX   XXXX   XXOoooOO++++++OOOOooooooOOO+++++++Ooo........ ",
"  .......oOO++++++OOoOOOO++++++++OOOooo..oOOXX   XOX    Xoooooooooooooo..oOO++++++OOooooX    X++X    XOoooOO++++++++OOOoooOOOO++++++++Ooo........ ",
"  .......oOO++++++OOoooOOO++++++++OOOoooooOOX    XOX    XOOOOOOOOOOOOoooooOO++++++OOoo.oX    X++X    XOoooOO++++++++++OOOOOO++++++++++Ooo........ ",
"  .......oOO++++++OOoooOOO++++++++OOOoooooOOX    XOXX  XXOOOOOOOOOOOOoooooOO++++++OOoo.oX    X++X    XOoooOO++++++++++OOOOOO++++++++++Ooo........ ",
"  .......oOO++++++OOoooooOOO++++++++OOOoooOOX    XXXXXXX++++++++++++OOOoooOO++++++OOoo.oX    X++X    XOoooOOOO++++++++++++++++++++++OOOoo........ ",
"  .......oOO++++++OOoooooOOO++++++++OOOoooOOX    X    XXX+++++++++++OOOoooOO++++++OOoo.oX    X++X    XOoooOOOO++++++++++++++++++++++OOOoo........ ",
"  .......oOO++++++OOo..oooOOO++++++++OOoooOOX     XX    X++++++++++++OOoooOO++++++OOoo..XX   XXXX    XOoooooOOO+++++++++++++++++++OOOOooo........ ",
"  .......oOO++++++OOo....oooOOO++++++OOoooOOX    XXXX   XX+++++++++++OOoooOO++++++OOoo...X    XX     XOoo.ooooOOO++++++++++++++++OOOooo.......... ",
"  .......oOO++++++OOo....oooOOO++++++OOoooOOX    X++X    X+++++++++++OOoooOO++++++OOoo...XXX    X    XOoo.ooooOOO++++++++++++++++OOOooo.......... ",
"  .......oOO++++++OOo.....oooOOOO++++OOoooOOX    X++X    X++++++++++OOOoooOO++++++OOoo....XXXXXXX    XOoo...oooOOO+++++++++++++OOOoooo........... ",
"  .......oOOOOOOOOOOo.......oooOOOOOOOOoooOOX    XOOX    XOOOOOOOOOOOoooooOOOOOOOOOOoo...XX  XXOX    XOoo.....oooOOOOOOOOOOOOOOOOooo............. ",
"  .......oOOOOOOOOOOo.......oooOOOOOOOOoooOOX    XOOX    XOOOOOOOOOOOoooooOOOOOOOOOOoo...X    XOX    XOoo.....oooOOOOOOOOOOOOOOOOooo............. ",
"  .......oooooooooooo........oooooooooooooooX    XooX    Xooooooooooooo..ooooooooooooo...X    XoX   XXooo......ooooooooooooooooooo............... ",
"  ..........................................XX   XXXX   XX...............................X    XXX   X............................................ ",
"  ...........................................X    XX    X................................XX  XXX   XX............................................ ",
"  ...........................................XXX      XXX.................................XX     XXX............................................. ",
"  .............................................XXXXXXXX....................................XXXXXXX............................................... ",
"  ............................................................................................................................................... ",
"  ............................................................................................................................................... ",
"  ............................................................................................................................................... ",
"  ............................................................................................................................................... ",
"  ............................................................................................................................................... ",
"  ............................................................................................................................................... ",
"                                                                                                                                                  "};
