/* XPM */
static const char * kenomenudiamond_xpm[] = {
"146 66 7 1",
" 	c #000000000000",
".	c #51445144FFFF",
"X	c #000086178E38",
"o	c #0000E79DE79D",
"O	c #FFFF0000FFFF",
"+	c #FFFFFFFF0000",
"@	c #FFFF14514103",
"                                                                                                                                                  ",
"                                                                                                                                                  ",
"  ............................................................................................................................................... ",
"  ............................................................................................................................................... ",
"  ...........................................................XXXXXXXXXXXXXXXXXXXXXXX............................................................. ",
"  ..........................................................XoooXoooXoooXoooXoooXoooX............................................................ ",
"  .........................................................XoooXooooXoooXoooXooooXoooX........................................................... ",
"  ........................................................XooooXoooXooooXooooXoooXooooX.......................................................... ",
"  .......................................................XooooXooooXooooXooooXooooXooooX......................................................... ",
"  ......................................................XooooXoooooXooooXooooXoooooXooooX........................................................ ",
"  .....................................................XoooooXooooXoooooXoooooXooooXoooooX....................................................... ",
"  .......OOOOOOOOOOOO.......OOOOOOOOOOOOOOOOOOOOOOOOOOXoooooXoooooXoooooXoooooXoooooXoooooX.OOOOOOOOOOOOO......OOOOOOOOOOOOOOOOOOO............... ",
"  .......OOOOOOOOOOOO.......OOOOOOOOOOOOOOOOOOOOOOOOOXXXXXXXXXXXXXXXXXXXXXXXXXXXXXXXXXXXXXXXOOOOOOOOOOOOO......OOOOOOOOOOOOOOOOOOO............... ",
"  .......O++++++++++O.....OOO++++++++++OOO++++++++++++XooooooXooooXoooooXoooooXooooXooooooX.OO+++++++++OO.....OOO++++++++++++++++OOO............. ",
"  .......O++++++++++O.....OOO++++++++++OOO+++++++++++++XoooooXooooXoooooXoooooXooooXoooooX..OO+++++++++OO.....OOO++++++++++++++++OOO............. ",
"  .......O++@@@@@@++O....OOO+++@@@@@@++OOO++@@@@@@@@@@@XooooooXooooXooooXooooXooooXooooooX..OO+@@@@@@@+OO...OOO+++@@@@@@@@@@@@@+++OOOO........... ",
"  .......O++@@@@@@++O..OOO+++@@@@@@@@++OOO++@@@@@@@@@@@@XoooooXooooXooooXooooXooooXoooooX...OO+@@@@@@@+OO.OOOO+++@@@@@@@@@@@@@@@@+++OOO.......... ",
"  .......O++@@@@@@++O..OOO+++@@@@@@@@++OOO++@@@@@@@@@@@@@XoooooXoooXooooXooooXoooXoooooXO...OO+@@@@@@@+OO.OOOO+++@@@@@@@@@@@@@@@@+++OOO.......... ",
"  .......O++@@@@@@++OOOOO+++@@@@@@@@+++OOO++@@@@@@@@@@@@@@XooooXoooXooooXooooXoooXooooXOO...OO+@@@@@@@+OOOOO+++@@@@@@@@@@@@@@@@@@@++++OOO........ ",
"  .......O++@@@@@@++OOO+++@@@@@@@@+++OOOOO++@@@@@@@@@@@@@@@XooooXoooXoooXoooXoooXooooX+OOO..OO+@@@@@@@+OOO++++@@@@@@@@@@@@@@@@@@@@@@+++OO........ ",
"  .......O++@@@@@@++OOO+++@@@@@@@@+++OOOOO++@@@@@@@@@@@@@@@@XoooXoooXoooXoooXoooXoooX@+OOO..OO+@@@@@@@+OOO++++@@@@@@@@@@@@@@@@@@@@@@+++OO........ ",
"  .......O++@@@@@@++O++++@@@@@@@@+++OOO..O++@@@@@@++++++++++XooooXooXoooXoooXooXooooX@+++O..OO+@@@@@@@+OOO++@@@@@@@@@@++++++@@@@@@@@@@+OO........ ",
"  .......O++@@@@@@+++++@@@@@@@@+++OOO....O++@@@@@@++OOOOOOOOOXoooXoooXooXooXoooXoooX@@@++OOOOO+@@@@@@@+OOO++@@@@@@@@+++OOO++++@@@@@@@@+OO........ ",
"  .......O++@@@@@@+++++@@@@@@@@+++OOO....O++@@@@@@++OOOOOOOOOOXoooXooXooXooXooXoooX@@@@++OOOOO+@@@@@@@+OOO++@@@@@@@@+++OOO++++@@@@@@@@+OO........ ",
"  .......O++@@@@@@+++@@@@@@@@++++OOO.....O++@@@@@@++O..........XoooXoXooXooXoXoooX@@@@@+++OOOO+@@@@@@@+OOO++@@@@@@++++OOOOOO+++@@@@@@@+OO........ ",
"  .......O++@@@@@@+++@@@@@@@@++++OOO.....O++@@@@@@++O...........XooXoXooXooXoXooX@@@@@@+++OOOO+@@@@@@@+OOO++@@@@@@++++OOOOOO+++@@@@@@@+OO........ ",
"  .......O++@@@@@@++@@@@@@@@+++OOO.......O++@@@@@@++O............XooXoXoXoXoXooX@@@@@@@@@+OOOO+@@@@@@@+OOO++@@@@@@++OOO...OOOO+@@@@@@@+OO........ ",
"  .......O++@@@@@@@@@@@@@@+++OOOO........O++@@@@@@++OOOOOOOOOOOOOXooXoXoXoXoXooX@@@@@@@@@+++OO+@@@@@@@+OOO++@@@@@@++OO......OO+@@@@@@@+OO........ ",
"  .......O++@@@@@@@@@@@@@@+++OOOO........O++@@@@@@++OOOOOOOOOOOOOOXooXXoXoXXooX@@@@@@@@@@+++OO+@@@@@@@+OOO++@@@@@@++OO......OO+@@@@@@@+OO........ ",
"  .......O++@@@@@@@@@@@@@+++OOO..........O++@@@@@@+++++++++++++++O.XoXoXXXoXoX@@@@++@@@@@@++OO+@@@@@@@+OOO++@@@@@@++OO......OO+@@@@@@@+OO........ ",
"  .......O++@@@@@@@@@@@+++OOO............O++@@@@@@@@@@@@@@@@@@@++O..XoXXXXXoX@@@@@++@@@@@@+++++@@@@@@@+OOO++@@@@@@++OO......OO+@@@@@@@+OO........ ",
"  .......O++@@@@@@@@@@@+++OOO............O++@@@@@@@@@@@@@@@@@@@++O...XXXXXXX@@@@@@++@@@@@@+++++@@@@@@@+OOO++@@@@@@++OO......OO+@@@@@@@+OO........ ",
"  .......O++@@@@@@@@@++++OOO.XXXXXXXXXXXXXXXXXXXXXXX@@@@@@@@@@@++O....XXXXX+@@@@@@++++@@@@@@+XXXXXXXXXXXXXXXXXXXXXXXOO......OO+@@@@@@@+OO........ ",
"  .......O++@@@@@@@@@@@+++OOXoooXoooXoooXoooXoooXoooX@@@@@@@@@@++O....XXXXX+@@@@@@++++@@@@@@XoooXoooXoooXoooXoooXoooXO......OO+@@@@@@@+OO........ ",
"  .......O++@@@@@@@@@@@+++OXoooXooooXoooXoooXooooXoooX@@@@@@@@@++O.....XXX++@@@@@@++++@@@@@XoooXooooXoooXoooXooooXoooX......OO+@@@@@@@+OO........ ",
"  .......O++@@@@@@@@@@@@@+XooooXoooXooooXooooXoooXooooX@@@@@@@@++O......XO++@@@@@@+++++@@@XooooXoooXooooXooooXoooXooooX.....OO+@@@@@@@+OO........ ",
"  .......O++@@@@@@@@@@@@@XooooXooooXooooXooooXooooXooooX@@@@@@@++O.......O++@@@@@@+++++@@XooooXooooXooooXooooXooooXooooX....OO+@@@@@@@+OO........ ",
"  .......O++@@@@@@@@@@@@XooooXoooooXooooXooooXoooooXooooX++++++++O.......O++@@@@@@++OO+@XooooXoooooXooooXooooXoooooXooooX...OO+@@@@@@@+OO........ ",
"  .......O++@@@@@@++@@@XoooooXooooXoooooXoooooXooooXoooooXOOOOOOOO.......O++@@@@@@++OO+XoooooXooooXoooooXoooooXooooXoooooX..OO+@@@@@@@+OO........ ",
"  .......O++@@@@@@++@@XoooooXoooooXoooooXoooooXoooooXoooooXOOOOOOO.......O++@@@@@@++OOXoooooXoooooXoooooXoooooXoooooXoooooX.OO+@@@@@@@+OO........ ",
"  .......O++@@@@@@+++XXXXXXXXXXXXXXXXXXXXXXXXXXXXXXXXXXXXXXX.............O++@@@@@@++OXXXXXXXXXXXXXXXXXXXXXXXXXXXXXXXXXXXXXXXOO+@@@@@@@+OO........ ",
"  .......O++@@@@@@++++XooooooXooooXoooooXoooooXooooXooooooX..............O++@@@@@@++OOXooooooXooooXoooooXoooooXooooXooooooXO+++@@@@@@@+OO........ ",
"  .......O++@@@@@@+++++XoooooXooooXoooooXoooooXooooXoooooX...............O++@@@@@@++OOOXoooooXooooXoooooXoooooXooooXoooooXOO+++@@@@@@@+OO........ ",
"  .......O++@@@@@@++O++XooooooXooooXooooXooooXooooXooooooXOOOOOOOOOOOOO..O++@@@@@@++OOOXooooooXooooXooooXooooXooooXooooooX++++@@@@@@@@+OO........ ",
"  .......O++@@@@@@++OOO+XoooooXooooXooooXooooXooooXoooooX++++++++++++OOOOO++@@@@@@++OO.OXoooooXooooXooooXooooXooooXoooooX+++@@@@@@@@@@+OO........ ",
"  .......O++@@@@@@++OOO++XoooooXoooXooooXooooXoooXoooooX+++++++++++++OOOOO++@@@@@@++OO.OOXoooooXoooXooooXooooXoooXoooooX++++@@@@@@@@@@+OO........ ",
"  .......O++@@@@@@++OOOOO+XooooXoooXooooXooooXoooXooooX@@@@@@@@@@@@@+++OOO++@@@@@@++OO.OOOXooooXoooXooooXooooXoooXooooX@@@@@@@@@@@@@+++OO........ ",
"  .......O++@@@@@@++OOOOO++XooooXoooXoooXoooXoooXooooX@@@@@@@@@@@@@@+++OOO++@@@@@@++OO.OOO+XooooXoooXoooXoooXoooXooooX@@@@@@@@@@@@@@+++OO........ ",
"  .......O++@@@@@@++O..OOO++XoooXoooXoooXoooXoooXoooX@@@@@@@@@@@@@@@@++OOO++@@@@@@++OO...O++XoooXoooXoooXoooXoooXoooX@@@@@@@@@@@@@++++OOO........ ",
"  .......O++@@@@@@++O....OOOXooooXooXoooXoooXooXooooX@@@@@@@@@@@@@@@@++OOO++@@@@@@++OO...OOOXooooXooXoooXoooXooXooooX@@@@@@@@@@@@+++OOO.......... ",
"  .......O++@@@@@@++O....OOO+XoooXoooXooXooXoooXoooX@@@@@@@@@@@@@@@@@++OOO++@@@@@@++OO...OOO+XoooXoooXooXooXoooXoooX@@@@@@@@@@@@@+++OOO.......... ",
"  .......O++@@@@@@++O.....OOO+XoooXooXooXooXooXoooX@@@@@@@@@@@@@@@@@+++OOO++@@@@@@++OO....OO++XoooXooXooXooXooXoooX@@@@@@@@@@@@+++OOOO........... ",
"  .......O++++++++++O.......OOOXoooXoXooXooXoXoooX+++++++++++++++++++OOOOO++++++++++OO....OOOO+XoooXoXooXooXoXoooX+++++++++++++++OOO............. ",
"  .......O++++++++++O.......OOO+XooXoXooXooXoXooX++++++++++++++++++++OOOOO++++++++++OO....OOOO++XooXoXooXooXoXooX++++++++++++++++OOO............. ",
"  .......OOOOOOOOOOOO........OOOOXooXoXoXoXoXooXOOOOOOOOOOOOOOOOOOOOOOO..OOOOOOOOOOOOO......OOOOOXooXoXoXoXoXooXOOOOOOOOOOOOOOOOOO............... ",
"  ...............................XooXoXoXoXoXooX.................................................XooXoXoXoXoXooX................................. ",
"  ................................XooXXoXoXXooX...................................................XooXXoXoXXooX.................................. ",
"  .................................XoXoXXXoXoX.....................................................XoXoXXXoXoX................................... ",
"  ..................................XoXXXXXoX.......................................................XoXXXXXoX.................................... ",
"  ...................................XXXXXXX.........................................................XXXXXXX..................................... ",
"  ....................................XXXXX...........................................................XXXXX...................................... ",
"  ....................................XXXXX...........................................................XXXXX...................................... ",
"  .....................................XXX.............................................................XXX....................................... ",
"  ......................................X...............................................................X........................................ ",
"  ............................................................................................................................................... ",
"                                                                                                                                                  "};
