/* XPM */
static const char * kenomenutop_xpm[] = {
"146 66 6 1",
" 	c #000000000000",
".	c #51445144FFFF",
"X	c #FFFFFFFFFFFF",
"o	c #FFFF0000FFFF",
"O	c #FFFFFFFF0000",
"+	c #FFFF14514103",
"                                                                                                                                                  ",
"                                                                                                                                                  ",
"  ............................................................................................................................................... ",
"  ............................................................................................................................................... ",
"  ............................................................................................................................................... ",
"  ........................................XXXXXXXXXXXXXXXXXX......XXXXXXXXX......XXXXXXXXXXXXXXXX................................................ ",
"  ........................................X                X....XXX       XXX....X              XXX.............................................. ",
"  ........................................X   XXX    XXX   X..XXX    XXX    XXX..XXX    XXXXX     X.............................................. ",
"  ........................................X  XX.X    X.XX  X..X    XXX.XXX    X....X    X...XX    XX............................................. ",
"  ........................................X XX..X    X..XX X.XX    X.....X    XX...X    X....X     X............................................. ",
"  ........................................X X...X    X...X X.X    XX.....XX    X...X    X....X     X............................................. ",
"  .......oooooooooooo.......ooooooooooooooX XoooX    XoooX XXX    Xoooo..oX    XXooX    X...oX     Xooooo......ooooooooooooooooooo............... ",
"  .......oooooooooooo.......ooooooooooooooXXXoooX    XoooXXXX     Xoooo..oX     XooX    X...oX     Xooooo......ooooooooooooooooooo............... ",
"  .......oOOOOOOOOOOo.....oooOOOOOOOOOOoooOOOOOOX    XOOOOOOX     XOOoooooX     XOOX    X...XX    XXOOOoo.....oooOOOOOOOOOOOOOOOOooo............. ",
"  .......oOOOOOOOOOOo.....oooOOOOOOOOOOoooOOOOOOX    XOOOOOOX     XOOoooooX     XOOX    XXXXX     XOOOOoo.....oooOOOOOOOOOOOOOOOOooo............. ",
"  .......oOO++++++OOo....oooOOO++++++OOoooOO++++X    X++++++X     X+OOOoooX     X+OX           XXXX+++Ooo...oooOOO+++++++++++++OOOoooo........... ",
"  .......oOO++++++OOo..oooOOO++++++++OOoooOO++++X    X++++++X     X++OOoooX     X++X    XXXXXXXX++++++Ooo.ooooOOO++++++++++++++++OOOooo.......... ",
"  .......oOO++++++OOo..oooOOO++++++++OOoooOO++++X    X++++++X     X++OOoooX     X++X    X...ooO+++++++Ooo.ooooOOO++++++++++++++++OOOooo.......... ",
"  .......oOO++++++OOoooooOOO++++++++OOOoooOO++++X    X++++++XX    X++OOoooX    XX++X    X...ooO+++++++OoooooOOO+++++++++++++++++++OOOOooo........ ",
"  .......oOO++++++OOoooOOO++++++++OOOoooooOO++++X    X+++++++X    XXOOOooXX    X+++X    Xo..ooO+++++++OoooOOOO++++++++++++++++++++++OOOoo........ ",
"  .......oOO++++++OOoooOOO++++++++OOOoooooOO++++X    X+++++++XX    XOOOooX    XX+++X    Xo..ooO+++++++OoooOOOO++++++++++++++++++++++OOOoo........ ",
"  .......oOO++++++OOoOOOO++++++++OOOooo..oOO++++X    XOOOOOOOOX    XXXoXXX    X++++X    Xo..ooO+++++++OoooOO++++++++++OOOOOO++++++++++Ooo........ ",
"  .......oOO++++++OOOOO++++++++OOOooo....oOO++XXX    XXXooooooXXX    XXX    XXX++XXX    XXXXooO+++++++OoooOO++++++++OOOoooOOOO++++++++Ooo........ ",
"  .......oOO++++++OOOOO++++++++OOOooo....oOO++X        XooooooooXXX       XXX++++X         XooO+++++++OoooOO++++++++OOOoooOOOO++++++++Ooo........ ",
"  .......oOO++++++OOO++++++++OOOOooo.....oOO++XXXXXXXXXX..........XXXXXXXXXO+++++XXXXXXXXXXXooO+++++++OoooOO++++++OOOOooooooOOO+++++++Ooo........ ",
"  .......oOO++++++OOO++++++++OOOOooo.....oOO++++++OOo....................oOO+++++++++++OOOooooO+++++++OoooOO++++++OOOOooooooOOO+++++++Ooo........ ",
"  .......oOO++++++OO++++++++OOOooo.......oOO++++++OOo....................oOO+++++++++++++OooooO+++++++OoooOO++++++OOooo...ooooO+++++++Ooo........ ",
"  .......oOO++++++++++++++OOOoooo........oOO++++++OOoooooooooooooo.......oOO+++++++++++++OOOooO+++++++OoooOO++++++OOoo......ooO+++++++Ooo........ ",
"  .......oOO++++++++++++++OOOoooo........oOO++++++OOoooooooooooooo.......oOO+++++++++++++OOOooO+++++++OoooOO++++++OOoo......ooO+++++++Ooo........ ",
"  .......oOO+++++++++++++OOOooo..........oOO++++++OOOOOOOOOOOOOOOo.......oOO++++++OO++++++OOooO+++++++OoooOO++++++OOoo......ooO+++++++Ooo........ ",
"  .......oOO+++++++++++OOOooo............oOO+++++++++++++++++++OOo.......oOO++++++OO++++++OOOOO+++++++OoooOO++++++OOoo......ooO+++++++Ooo........ ",
"  .......oOO+++++++++++OOOooo............oOO+++++++++++++++++++OOo.......oOO++++++OO++++++OOOOO+++++++OoooOO++++++OOoo......ooO+++++++Ooo........ ",
"  .......oOO+++++++++OOOOooo.............oOO+++++++++++++++++++OOo.......oOO++++++OOOO++++++OOO+++++++OoooOO++++++OOoo......ooO+++++++Ooo........ ",
"  .......oOO+++++++++++OOOooo............oOO+++++++++++++++++++OOo.......oOO++++++OOOO++++++OOO+++++++OoooOO++++++OOoo......ooO+++++++Ooo........ ",
"  .......oOO+++++++++++OOOooo............oOO+++++++++++++++++++OOo.......oOO++++++OOOO++++++OOO+++++++OoooOO++++++OOoo......ooO+++++++Ooo........ ",
"  .......oOO+++++++++++++OOOooo..........oOO+++++++++++++++++++OOo.......oOO++++++OOOOO+++++++O+++++++OoooOO++++++OOoo......ooO+++++++Ooo........ ",
"  .......oOO+++++++++++++OOOooo..........oOO+++++++++++++++++++OOo.......oOO++++++OOOOO+++++++O+++++++OoooOO++++++OOoo......ooO+++++++Ooo........ ",
"  .......oOO++++++++++++++OOOoooo........oOO++++++OOOOOOOOOOOOOOOo.......oOO++++++OOooO+++++++O+++++++OoooOO++++++OOoo......ooO+++++++Ooo........ ",
"  .......oOOXXXXXXXXXXXXXXX+OOOooo...XXXXXXXXX++++OOXXXXXXXXXXXXXXXXXXXXXXXXXXXXXXXXXXXXO+++++XXXXXXXXXoooOO+XXXXXXXXo......XXXXXXXXX+Ooo........ ",
"  .......oOOX             XXXOOooo.XXX       XXX++OOX                XX                XO+++XXX       XXXoOO+X      Xo......X       X+Ooo........ ",
"  .......oOOXXX    XXXX     XXOOOXXX    XXX    XXXOOX   XXX    XXX   XX   XXX    XXX   XO+XXX    XXX    XXXO+XXX    XXo...oXX     XXX+Ooo........ ",
"  .......oOO++X    XOOXX     X+OOX    XXXoXXX    XOOX  XX.X    X.XX  XX  XXOX    XOXX  XOOX    XXX+XXX    XO+++X     XoooooX      X+++Ooo........ ",
"  .......oOO++X    XOOOX     X+OXX    X..oOO+    XXOX XX..X    X..XX XX XXOOX    XOOXX XOXX    X+++++X    XX+++X     XoooooX X    X+++Ooo........ ",
"  .......oOO++X    XoOOX     X++X    XX..oOOXX    XOX XoooX    XoooX XX XoOOX    XOOoX XoX    XX+++++XX    X+++X X   XXoooXX X    X+++Ooo........ ",
"  .......oOO++X    XoooX     X+XX    XooooOO+X    XXX XOOOX    XOOOX XX XoOOX    XOOoX XXX    X+++++++X    XX++X X    XOOOX  X    X+++Ooo........ ",
"  .......oOO++X    XooXX    XX+X     XooooOO+X     XXXXOOOX    XOOOXXXXXXoOOX    XOOoXXXX     X+++++++X     X++X X    XOOOX XX    X+++Ooo........ ",
"  .......oOO++X    XXXX    XX++X     XOoooOO+X     X++++++X    X++++OOOoooOOX    XOOoo.oX     X+++++++X     XO+X XX   XX+XX XX    X+OOOoo........ ",
"  .......oOO++X           XXX++X     XOoooOO+X     X++++++X    X++++OOOoooOOX    XOOoo.oX     X+++++++X     XO+X XX    X+X  XX    X+OOOoo........ ",
"  .......oOO++X    XXXXX    XX+X     XOoooOO+X     X++++++X    X+++++OOoooOOX    XOOoo..X     X+++++++X     XOOX XX    X+X XXX    XOOOooo........ ",
"  .......oOO++X    Xo..XX    XXX     XOoooOO+X     X++++++X    X+++++OOoooOOX    XOOoo..X     X+++++++X     XoOX XXX   XXX X+X    XOooo.......... ",
"  .......oOO++X    Xo...X     XX     XOoooOO+X     X++++++X    X+++++OOoooOOX    XOOoo..X     X+++++++X     XoOX X+X    X  X+X    XOooo.......... ",
"  .......oOO++X    Xo...X     XXX    XOoooOO+X    XX++++++X    X++++OOOoooOOX    XOOoo..XX    X+++++++X    XXooX X+X    X XX+X    Xooo........... ",
"  .......oOOOOX    Xo...X     XOX    XXoooOOXX    XOOOOOOOX    XOOOOOoooooOOX    XOOoo...X    XXOOOOOXX    X..oX XOXX   X XOOX    Xo............. ",
"  .......oOOOOX    Xo...X     XOXX    XoooOOX    XXOOOOOOOX    XOOOOOoooooOOX    XOOoo...XX    XOOOOOX    XX..oX XOOX     XOOX    Xo............. ",
"  .......oooooX    Xo..XX     XooX    XXXoXXX    XooooooooX    Xooooooo..oooX    Xoooo....X    XXXoXXX    X...XX XXoX    XXooX    X.............. ",
"  ..........XXX    XXXXX     XX..XXX    XXX    XXX......XXX    XXX........XXX    XXX......XXX    XXX    XXX..XX   XXXX   X.XXX    XXX............ ",
"  ..........X              XXX.....XXX       XXX........X        X........X        X........XXX       XXX....X     X.X   X.X        X............ ",
"  ..........XXXXXXXXXXXXXXXX.........XXXXXXXXX..........XXXXXXXXXX........XXXXXXXXXX..........XXXXXXXXX......XXXXXXX.XXXXX.XXXXXXXXXX............ ",
"  ............................................................................................................................................... ",
"  ............................................................................................................................................... ",
"  ............................................................................................................................................... ",
"  ............................................................................................................................................... ",
"  ............................................................................................................................................... ",
"  ............................................................................................................................................... ",
"  ............................................................................................................................................... ",
"                                                                                                                                                  "};
