/* XPM */
static const char * kenoreddollar_xpm[] = {
"48 43 3 1",
" 	c #FFFF14514103",
".	c #000000000000",
"X	c #38E3FBEE30C2",
"                                                ",
"                                                ",
"                                                ",
"                   .........                    ",
"               ....XXXXXXXXX....                ",
"             ..XXXXXXXXXXXXXXXXX..              ",
"           ..XXXXXXXXXXXXXXXXXXXXX..            ",
"          .XXXXXXXXXXXXXXXXXXXXXXXXX.           ",
"         .XXXXXXXXXXXXXXXXXXXXXXXXXXX.          ",
"        .XXXXXXXXXXXXXX XXXXXXXXXXXXXX.         ",
"       .XXXXXXXXXXXXXXX XXXXXXXXXXXXXXX.        ",
"      .XXXXXXXXXXXXXX       XXXXXXXXXXXX.       ",
"     .XXXXXXXXXXXXX   X XXX  XXXXXXXXXXXX.      ",
"     .XXXXXXXXXXXXX  XX XX    XXXXXXXXXXX.      ",
"    .XXXXXXXXXXXXX   XX XX    XXXXXXXXXXXX.     ",
"    .XXXXXXXXXXXXX   XX XX    XXXXXXXXXXXX.     ",
"    .XXXXXXXXXXXXX    X XXX  XXXXXXXXXXXXX.     ",
"   .XXXXXXXXXXXXXX      XXXXXXXXXXXXXXXXXXX.    ",
"   .XXXXXXXXXXXXXX        XXXXXXXXXXXXXXXXX.    ",
"   .XXXXXXXXXXXXXXX         XXXXXXXXXXXXXXX.    ",
"   .XXXXXXXXXXXXXXXXX        XXXXXXXXXXXXXX.    ",
"   .XXXXXXXXXXXXXXXXXXX       XXXXXXXXXXXXX.    ",
"   .XXXXXXXXXXXXXXXXXXX X     XXXXXXXXXXXXX.    ",
"   .XXXXXXXXXXXXXXX  XX XX    XXXXXXXXXXXXX.    ",
"    .XXXXXXXXXXXXX    X XXX   XXXXXXXXXXXX.     ",
"    .XXXXXXXXXXXXX    X XXX   XXXXXXXXXXXX.     ",
"    .XXXXXXXXXXXXX    X XXX  XXXXXXXXXXXXX.     ",
"     .XXXXXXXXXXXXX  XX XX   XXXXXXXXXXXX.      ",
"     .XXXXXXXXXXXXXX       XXXXXXXXXXXXXX.      ",
"      .XXXXXXXXXXXXXXXX XXXXXXXXXXXXXXXX.       ",
"       .XXXXXXXXXXXXXXX XXXXXXXXXXXXXXX.        ",
"        .XXXXXXXXXXXXXX XXXXXXXXXXXXXX.         ",
"         .XXXXXXXXXXXXXXXXXXXXXXXXXXX.          ",
"          .XXXXXXXXXXXXXXXXXXXXXXXXX.           ",
"           ..XXXXXXXXXXXXXXXXXXXXX..            ",
"             ..XXXXXXXXXXXXXXXXX..              ",
"               ....XXXXXXXXX....                ",
"                   .........                    ",
"                                                ",
"                                                ",
"                                                ",
"                                                ",
"                                                "};
