/* XPM */
static const char * kenoreda_xpm[] = {
"48 43 3 1",
" 	c #FFFF14514103",
".	c #000000000000",
"X	c #FFFFFFFFFFFF",
"                                                ",
"                                                ",
"                                                ",
"                                                ",
"                ...............                 ",
"              ...................               ",
"           ......XXXXXXXXXXXXX......            ",
"          ....XXXXXXXXXXXXXXXXXXX....           ",
"        ....XXXXXXXXXXXXXXXXXXXXXXX....         ",
"       ...XXXXXXXXXXXXXXXXXXXXXXXXXXX...        ",
"      ...XXXXXXXXXXXXXXXXXXXXXXXXXXXXX...       ",
"     ...XXXXXXXXXXXXXXXXXXXXXXXXXXXXXXX...      ",
"     ..XXXXXXXXXXXXXXX    XXXXXXXXXXXXXX..      ",
"    ..XXXXXXXXXXXXXXXX    XXXXXXXXXXXXXXX..     ",
"   ...XXXXXXXXXXXXXXXX    XXXXXXXXXXXXXXX...    ",
"   ..XXXXXXXXXXXXXXXX      XXXXXXXXXXXXXXX..    ",
"  ...XXXXXXXXXXXXXXXX X    XXXXXXXXXXXXXXX...   ",
"  ..XXXXXXXXXXXXXXXXX X    XXXXXXXXXXXXXXXX..   ",
"  ..XXXXXXXXXXXXXXXX  XX    XXXXXXXXXXXXXXX..   ",
"  ..XXXXXXXXXXXXXXXX XXX    XXXXXXXXXXXXXXX..   ",
"  ..XXXXXXXXXXXXXXXX XXX    XXXXXXXXXXXXXXX..   ",
"  ..XXXXXXXXXXXXXXX  XXXX    XXXXXXXXXXXXXX..   ",
"  ..XXXXXXXXXXXXXXX XXXXX    XXXXXXXXXXXXXX..   ",
"  ..XXXXXXXXXXXXXXX          XXXXXXXXXXXXXX..   ",
"  ..XXXXXXXXXXXXXX  XXXXXX    XXXXXXXXXXXXX..   ",
"  ..XXXXXXXXXXXXXX XXXXXXX    XXXXXXXXXXXXX..   ",
"  ..XXXXXXXXXXXXXX XXXXXXX    XXXXXXXXXXXXX..   ",
"  ...XXXXXXXXXXXX  XXXXXXXX    XXXXXXXXXXX...   ",
"   ..XXXXXXXXXXX   XXXXXXXX    XXXXXXXXXXX..    ",
"   ...XXXXXXXX       XXXX        XXXXXXXX...    ",
"    ..XXXXXXXXXXXXXXXXXXXXXXXXXXXXXXXXXXX..     ",
"     ..XXXXXXXXXXXXXXXXXXXXXXXXXXXXXXXXX..      ",
"     ...XXXXXXXXXXXXXXXXXXXXXXXXXXXXXXX...      ",
"      ...XXXXXXXXXXXXXXXXXXXXXXXXXXXXX...       ",
"       ...XXXXXXXXXXXXXXXXXXXXXXXXXXX...        ",
"        ....XXXXXXXXXXXXXXXXXXXXXXX....         ",
"          ....XXXXXXXXXXXXXXXXXXX....           ",
"           ......XXXXXXXXXXXXX......            ",
"              ...................               ",
"                ...............                 ",
"                                                ",
"                                                ",
"                                                "};
