/* XPM */
static const char * kenomenubonus_xpm[] = {
"146 66 7 1",
" 	c #000000000000",
".	c #51445144FFFF",
"X	c #FFFFFFFFFFFF",
"o	c #FFFF0000FFFF",
"O	c #FFFFFFFF0000",
"+	c #FFFF14514103",
"@	c #10409E790000",
"                                                                                                                                                  ",
"                                                                                                                                                  ",
"  ............................................................................................................................................... ",
"  ............................................................................................................................................... ",
"  ............................................................................................................................................... ",
"  ............................................................................................................................................... ",
"  .......................XXXXXXXXXXXXXXX..........XXXXXXXXX......XXXXXXXX.....XXXXXXXXXXXXXXXXXXX..XXXXXXXXX....XXXXXXXXXXX...................... ",
"  .......................X             XXX......XXX       XXX....X      XX....X       XX        X..X       X..XXX      XX X...................... ",
"  .......................XXX    XXXX     XX...XXX    XXX    XXX..XXX     XX...XXX   XXXXXX    XXX..XXX   XXX.XX   XXXX    X...................... ",
"  .........................X    X..XX     X...X    XXX.XXX    X....XX     XX....XX XX....X    X......XX XX..XX  XXX..XXX  X...................... ",
"  .........................X    X...X     X..XX    X.....X    XX....X      XX....X X.....X    X.......X X...X   X......X  X...................... ",
"  .......oooooooooooo......X    XoooX     XooX    XXoooooXX    XooooX       XXoooX Xoo...X    XoooooooX X...X   XXoooooXX Xooooooo............... ",
"  .......oooooooooooo......X    XoooX     XoXX    XoooooooX    XXoooX X      XXooX Xoo...X    XoooooooX X...X    XXXXoooX Xooooooo............... ",
"  .......oOOOOOOOOOOo.....oX    XOOXX    XXOX     XOOOOOOOX     XOOOX XX      XOOX Xooo..X    XOOOOOOOX X...X       XXXXXXXOOOOOOooo............. ",
"  .......oOOOOOOOOOOo.....oX    XXXX    XXOOX     XOOOOOOOX     XOOOX XXX     XXOX Xooo..X    XOOOOOOOX X...X          XXXOOOOOOOooo............. ",
"  .......oOO++++++OOo....ooX           XXXOOX     X+++++++X     X+++X XoXX     XXX XOOo..X    X+++++++X X...XX           XX++++OOOoooo........... ",
"  .......oOO++++++OOo..oooOX    XXXXX    XXOX     X+++++++X     X+++X XooXX     XX XOOoooX    X+++++++X X.oooXX           XX+++++OOOooo.......... ",
"  .......oOO++++++OOo..oooOX    X+++XX    XXX     X+++++++X     X+++X XoooX      X XOOoooX    X+++++++X X.ooooXXX          X+++++OOOooo.......... ",
"  .......oOO++++++OOoooooOOX    X+++OX     XX     X+++++++X     X+++X XoooXX       XOOOooX    X+++++++X XoooXXX+XXXX       X++++++OOOOooo........ ",
"  .......oOO++++++OOoooOOO+X    X+OOOX     XXX    X+++++++X    XX+++X XoooOXX      X++OooX    X+++++++X XoOOX X++++XXXX    X++++++++OOOoo........ ",
"  .......oOO++++++OOoooOOO+X    X+OOOX     X+X    XX+++++XX    X++++X XoooOOXX     X++OooX    X+++++++X XoOOX XX++++++XX   X++++++++OOOoo........ ",
"  .......oOO++++++OOoOOOO++X    XOOOoX     X+XX    XOOOOOX    XXOOOOX XoooOO+XX    X++OOOX    XX+++++XX XoOOX  X++++++OX   X++++++++++Ooo........ ",
"  .......oOO++++++OOOOO++++X    XOooXX     X++X    XXXoXXX    XooooXX XX.oOO++XX   X+++OOX     XXX+XXX  XoOOX  XXX++OXXX  XXOO++++++++Ooo........ ",
"  .......oOO++++++OOOOO++XXX    XXXXX     XX++XXX    XXX    XXXooXXX   XXXOO+++XX  X+++OOXX      XXX   XXoOOX    XXXXX   XXOOO++++++++Ooo........ ",
"  .......oOO++++++OOO++++X              XXXO++++XXX       XXX....X       XOO++++XX X+++OOOXXX        XXXooOOX XX       XXXooOOO+++++++Ooo........ ",
"  .......oOO++++++OOO++++XXXXXXXXXXXXXXXXoOO++++++XXXXXXXXX......XXXXXXXXXOO+++++XXX+++OOOooXXXXXXXXXXOoooOOXXXXXXXXXXXXooooOOO+++++++Ooo........ ",
"  .......oOO++++++OO++++++++OOOooo.......oOO++++++OOo....................oOO+++++++++++++OooooO+++++++OoooOO++++++OOooo...ooooO+++++++Ooo........ ",
"  .......oOO++++++++++++++OOOoooo........oOO++++++OOoooooooooooooo.......oOO+++++++++++++OOOooO+++++++OoooOO++++++OOoo......ooO+++++++Ooo........ ",
"  .......oOO++++++++++++++OOOoooo........oOO++++++OOoooooooooooooo.......oOO+++++++++++++OOOooO+++++++OoooOO++++++OOoo......ooO+++++++Ooo........ ",
"  .......oOO+++++++++++++OOOooo..........oOO++++++OOOOOOOOOOOOOOOo.......oOO++++++OO++++++OOooO+++++++OoooOO++++++OOoo......ooO+++++++Ooo........ ",
"  .......oOO+++++++++++OOOooo............oOO+++++++++++++++++++OOo.......oOO++++++OO++++++OOOOO+++++++OoooOO++++++OOoo......ooO+++++++Ooo........ ",
"  .......oOO+++++++++++OOOooo............oOO+++++++++++++++++++OOo.......oOO++++++OO++++++OOOOO+++++++OoooOO++++++OOoo......ooO+++++++Ooo........ ",
"  .......oOO+++++++++OOOOooo.............oOO+++++++++++++++++++OOo.......oOO++++++OOOO++++++OOO+++++++OoooOO++++++OOoo......ooO+++++++Ooo........ ",
"  .......oOO+++++++++++OOOooo............oOO+++++++++++++++++++OOo.......oOO++++++OOOO++++++OOO+++++++OoooOO++++++OOoo......ooO+++++++Ooo........ ",
"  .......oOO+++++++++++OOOooo............oOO+++++++++++++++++++OOo.......oOO++++++OOOO++++++OOO+++++++OoooOO++++++OOoo......ooO+++++++Ooo........ ",
"  .......oOO+++++++++++++OOOooo..........oOO+++++++++++++++++++OOo.......oOO++++++OOOOO+++++++O+++++++OoooOO++++++OOoo......ooO+++++++Ooo........ ",
"  .......oOO+++++++++++++OOOooo..........oOO+++++++++XXX+++++++OOo.......oXXX+++++OOOOO+++++++OXXX++++OoooOO++++++OOoo......ooO+++++++Ooo........ ",
"  .......oOO++++++++++++++OOOoooo........oOO++++++OOOX@XOOOOOOOOOo.......oX@X+++++OOooO+++++++OX@X++++OoooOO++++++OOoo......ooO+++++++Ooo........ ",
"  .......oOO++++++OO++++++++OOOooo.......oOO++++++OXXX@XXXXXoooooo......XXX@XXXXX+OOooOOO++++XXX@XXXXXOoooOO++++++OOoo......ooO+++++++Ooo........ ",
"  .......oOO++++++OO++++++++OOOooo.......oOO+++++XXX@@@@@@@XXooooo....XXX@@@@@@@XXOOooOOO++XXX@@@@@@@XXoooOO++++++OOoo......ooO+++++++Ooo........ ",
"  .......oOO++++++OOO++++++++OOOOooo.....oOO+++++X@@@X@XXX@@XX........X@@@X@XXX@@XXOoooOO++X@@@X@XXX@@XXooOO++++++OOooo...ooooO+++++++Ooo........ ",
"  .......oOO++++++OOOOO++++++++OOOooo....oOO++++XX@@XX@XX@@@@X.......XX@@XX@XX@@@@XOoooOOOXX@@XX@XX@@@@XooOO++++++OOOOooooooOOO+++++++Ooo........ ",
"  .......oOO++++++OOOOO++++++++OOOooo....oOO++++X@@@XX@XX@@@@X.......X@@@XX@XX@@@@XOoooOOOX@@@XX@XX@@@@XooOO++++++OOOOooooooOOO+++++++Ooo........ ",
"  .......oOO++++++OOoOOOO++++++++OOOooo..oOO++++X@@@XX@XX@@@@XoooooooX@@@XX@XX@@@@XOoooooOX@@@XX@XX@@@@XooOO++++++++OOOoooOOOO++++++++Ooo........ ",
"  .......oOO++++++OOoooOOO++++++++OOOoooooOO++++X@@@@X@XXX@@XXOOOOOOOX@@@@X@XXX@@XXOoo.ooOX@@@@X@XXX@@XXooOO++++++++++OOOOOO++++++++++Ooo........ ",
"  .......oOO++++++OOoooOOO++++++++OOOoooooOO++++X@@@@@@XXXXXXOOOOOOOOX@@@@@@XXXXXXOOoo.ooOX@@@@@@XXXXXXoooOO++++++++++OOOOOO++++++++++Ooo........ ",
"  .......oOO++++++OOoooooOOO++++++++OOOoooOO++++X@@@@@@@@XXX++++++++OX@@@@@@@@XXX+OOoo.oooX@@@@@@@@XXXOoooOOOO++++++++++++++++++++++OOOoo........ ",
"  .......oOO++++++OOoooooOOO++++++++OOOoooOO++++XX@@@@@@@@@XX+++++++OXX@@@@@@@@@XXOOoo.oooXX@@@@@@@@@XXoooOOOO++++++++++++++++++++++OOOoo........ ",
"  .......oOO++++++OOo..oooOOO++++++++OOoooOO+++++XXX@@@@@@@@XX+++++++OXXX@@@@@@@@XXOoo...oOXXX@@@@@@@@XXooooOOO+++++++++++++++++++OOOOooo........ ",
"  .......oOO++++++OOo....oooOOO++++++OOoooOO+++++++XXX@@@@@@@X+++++++OOoXXX@@@@@@@XOoo...oooOXXX@@@@@@@Xo.ooooOOO++++++++++++++++OOOooo.......... ",
"  .......oOO++++++OOo....oooOOO++++++OOoooOO+++++XXXXX@X@@@@@X+++++++OXXXXX@X@@@@@XOoo...ooXXXXX@X@@@@@Xo.ooooOOO++++++++++++++++OOOooo.......... ",
"  .......oOO++++++OOo.....oooOOOO++++OOoooOO++++XX@@XX@XX@@@@X++++++OXX@@XX@XX@@@@XOoo....XX@@XX@XX@@@@Xo...oooOOO+++++++++++++OOOoooo........... ",
"  .......oOOOOOOOOOOo.......oooOOOOOOOOoooOOOOOOX@@@@X@XXX@@@XOOOOOOOX@@@@X@XXX@@@XOoo....X@@@@X@XXX@@@Xo.....oooOOOOOOOOOOOOOOOOooo............. ",
"  .......oOOOOOOOOOOo.......oooOOOOOOOOoooOOOOOOX@@@@X@XOX@@@XOOOOOOOX@@@@X@XOX@@@XOoo....X@@@@X@XOX@@@Xo.....oooOOOOOOOOOOOOOOOOooo............. ",
"  .......oooooooooooo........oooooooooooooooooooX@@@@X@XXX@@XXoooooooX@@@@X@XXX@@XXooo....X@@@@X@XXX@@XXo......ooooooooooooooooooo............... ",
"  ..............................................XX@@XX@XX@@@X........XX@@XX@XX@@@X........XX@@XX@XX@@@X.......................................... ",
"  ...............................................XX@@@@@@@XXX.........XX@@@@@@@XXX.........XX@@@@@@@XXX.......................................... ",
"  ................................................XXXX@XXXX............XXXX@XXXX............XXXX@XXXX............................................ ",
"  ...................................................X@X..................X@X..................X@X............................................... ",
"  ...................................................X@X..................X@X..................X@X............................................... ",
"  ...................................................XXX..................XXX..................XXX............................................... ",
"  ............................................................................................................................................... ",
"  ............................................................................................................................................... ",
"  ............................................................................................................................................... ",
"  ............................................................................................................................................... ",
"                                                                                                                                                  "};
