/* XPM */
static const char * kenodiamond_xpm[] = {
"48 43 3 1",
" 	c #FFFF14514103",
".	c #000086178E38",
"X	c #0000E79DE79D",
"                                                ",
"                                                ",
"                                                ",
"                                                ",
"                                                ",
"                                                ",
"                                                ",
"                                                ",
"            .......................             ",
"           .XXX.XXX.XXX.XXX.XXX.XXX.            ",
"          .XXX.XXXX.XXX.XXX.XXXX.XXX.           ",
"         .XXXX.XXX.XXXX.XXXX.XXX.XXXX.          ",
"        .XXXX.XXXX.XXXX.XXXX.XXXX.XXXX.         ",
"       .XXXX.XXXXX.XXXX.XXXX.XXXXX.XXXX.        ",
"      .XXXXX.XXXX.XXXXX.XXXXX.XXXX.XXXXX.       ",
"     .XXXXX.XXXXX.XXXXX.XXXXX.XXXXX.XXXXX.      ",
"    .......................................     ",
"     .XXXXXX.XXXX.XXXXX.XXXXX.XXXXX.XXXXX.      ",
"      .XXXXX.XXXX.XXXXX.XXXXX.XXXX.XXXXX.       ",
"       .XXXXX.XXXX.XXXX.XXXX.XXXXX.XXXX.        ",
"       .XXXXX.XXXX.XXXX.XXXX.XXXX.XXXXX.        ",
"        .XXXXX.XXX.XXXX.XXXX.XXXX.XXXX.         ",
"         .XXXX.XXX.XXXX.XXXX.XXX.XXXX.          ",
"          .XXXX.XXX.XXX.XXX.XXXX.XXX.           ",
"           .XXX.XXX.XXX.XXX.XXX.XXX.            ",
"            .XXX.XX.XXX.XXX.XX.XXX.             ",
"            .XXX.XXX.XX.XX.XXX.XXX.             ",
"             .XXX.XX.XX.XX.XX.XXX.              ",
"              .XXX.X.XX.XX.XX.XX.               ",
"               .XX.X.XX.XX.X.XX.                ",
"                .XX.X.X.X.XX.X.                 ",
"                .XX.X.X.X.X.XX.                 ",
"                 .XX..X.X..XX.                  ",
"                  .X.X...X.X.                   ",
"                   .X.....X.                    ",
"                    .......                     ",
"                     .....                      ",
"                     .....                      ",
"                      ...                       ",
"                       .                        ",
"                                                ",
"                                                ",
"                                                "};
