/* XPM */
static const char * kenomenusway_xpm[] = {
"146 66 6 1",
" 	c #000000000000",
".	c #51445144FFFF",
"X	c #FFFFFFFFFFFF",
"o	c #FFFF0000FFFF",
"O	c #FFFFFFFF0000",
"+	c #FFFF14514103",
"                                                                                                                                                  ",
"                                                                                                                                                  ",
"  ............................................................................................................................................... ",
"  ............................................................................................................................................... ",
"  ............................................................................................................................................... ",
"  ............................................................................................................................................... ",
"  ..............................XXXXXXXXXXX.XXXXXXXXXX..XXXXXXXXXXXXXXXXXXXXXXXXX..XXXXXXXXXXXXXXXXX.XXXXXXXXXXXXXXX............................. ",
"  ............................XXX      XX X.X        X..X       XX              XXXX               X.X             XXX........................... ",
"  ...........................XX   XXXX    X.XXX    XXX..XXX   XXXXXX    XXXXX     XXXX    XXXXX    X.XXX    XXXX     XX.......................... ",
"  ..........................XX  XXX..XXX  X...X    X......XX XX....X    X...XX    XX.X    X...XXX  X...X    X..XX     X.......................... ",
"  ..........................X   X......X  X...X    X.......X X.....X    X....X     X.X    X.....XX X...X    X...X     X.......................... ",
"  .......oooooooooooo.......X   XXoooooXX XoooX    XoooooooX XoooooX    XooooX     XoX    X.oXXXoX XoooX    X..oX     Xooooooooooo............... ",
"  .......oooooooooooo.......X    XXXXoooX XoooX    XoooooooX XoooooX    XooooX     XoX    X.oX XoX XoooX    X..oX     Xooooooooooo............... ",
"  .......oOOOOOOOOOOo.....ooX       XXXXXXXOOOX    XOOOOOOOX XOOOOOX    XoOOOX     XoX    X.XX XOXXXOOOX    X.oXX    XXOOOOOOOOOOooo............. ",
"  .......oOOOOOOOOOOo.....ooX          XXXOOOOX    XOOOOOOOX XOOOOOX    XoOOXX    XXoX    XXX  XOOOOOOOX    XXXX    XXOOOOOOOOOOOooo............. ",
"  .......oOO++++++OOo....oooXX           XXO++X    X+++++++X X+++++X    XXXXX     XOOX         X++++++OX         XXXX++++++++++OOOoooo........... ",
"  .......oOO++++++OOo..oooOOOXX           XX++X    X+++++++X X+++++X           XXXX+OX    XXX  X++++++OX    XXX    XX++++++++++++OOOooo.......... ",
"  .......oOO++++++OOo..oooOOO+XXX          X++X    X+++++++X X+++++X    XXXXXXXX++++OX    X.XX X++++++OX    XoXX    X++++++++++++OOOooo.......... ",
"  .......oOO++++++OOoooooOOOXXX+XXXX       X++X    X+++++++X X+++++X    XoOO++++++++OX    X.oX X+XXX++OX    XOOX    XX++++++++++++OOOOooo........ ",
"  .......oOO++++++OOoooOOO++X X+++OXXXX    X++X    X+++++++X X+++++X    XoOO+++++++++X    X.oXXX+X X++OX    XO+X     X++++++++++++++OOOoo........ ",
"  .......oOO++++++OOoooOOO++X XX++OOOoXX   X++X    X+++++++X X+++++X    XoOO+++++++++X    X.ooO++X X++OX    XO+XX    XXXXX++++++++++OOOoo........ ",
"  .......oOO++++++OOoOOOO+++X  X+OOOoooX   X++X    XXOOOOOXX XOOOOOX    XoOO+++++++++X    X.ooO+XX X++OX    X+++X     XX XOO++++++++++Ooo........ ",
"  .......oOO++++++OOOOO+++++X  XXXoooXXX  XX++X     XXXoXXX  XoooooX    XoOO+++++++++X    XoooXXX  X++OX    X+++XX    XX XOOOO++++++++Ooo........ ",
"  .......oOO++++++OOOOO+++++X    XXXXX   XXO++XX      XXX   XXoooXXX    XXXX+++++++XXX    XXXXX    X+XXX    XXXX+X      XXOOOO++++++++Ooo........ ",
"  .......oOO++++++OOO+++++++X XX       XXXOO+++XXX        XXX....X         X+++++++X               X+X         X+XX    XXoooOOO+++++++Ooo........ ",
"  .......oOO++++++OOO+++++++XXXXXXXXXXXX.oOO+++++XXXXXXXXXX......XXXXXXXXXXX+++++++XXXXXXXXXXXXXXXXX+XXXXXXXXXXX++XXXXXXooooOOO+++++++Ooo........ ",
"  .......oOO++++++OO++++++++OOOooo.......oOO++++++OOo....................oOO+++++++++++++OooooO+++++++OoooOO++++++OOooo...ooooO+++++++Ooo........ ",
"  .......oOO++++++++++++++OOOoooo........oOO++++++OOoooooooooooooo.......oOO+++++++++++++OOOooO+++++++OoooOO++++++OOoo......ooO+++++++Ooo........ ",
"  .......oOO++++++++++++++OOOoooo........oOO++++++OOoooooooooooooo.......oOO+++++++++++++OOOooO+++++++OoooOO++++++OOoo......ooO+++++++Ooo........ ",
"  .......oOO+++++++++++++OOOooo..........oOO++++++OOOOOOOOOOOOOOOo.......oOO++++++OO++++++OOooO+++++++OoooOO++++++OOoo......ooO+++++++Ooo........ ",
"  .......oOO+++++++++++OOOooo............oOO+++++++++++++++++++OOo.......oOO++++++OO++++++OOOOO+++++++OoooOO++++++OOoo......ooO+++++++Ooo........ ",
"  .......oOO+++++++++++OOOooo............oOO+++++++++++++++++++OOo.......oOO++++++OO++++++OOOOO+++++++OoooOO++++++OOoo......ooO+++++++Ooo........ ",
"  .......oOO+++++++++OOOOooo.............oOO+++++++++++++++++++OOo.......oOO++++++OOOO++++++OOO+++++++OoooOO++++++OOoo......ooO+++++++Ooo........ ",
"  .......oOO+++++++++++OOOooo............oOO+++++++++++++++++++OOo.......oOO++++++OOOO++++++OOO+++++++OoooOO++++++OOoo......ooO+++++++Ooo........ ",
"  .......oOO+++++++++++OOOooo............oOO+++++++++++++++++++OOo.......oOO++++++OOOO++++++OOO+++++++OoooOO++++++OOoo......ooO+++++++Ooo........ ",
"  .......oOO+++++++++++++OOOooo..........oOO+++++++++++++++++++OOo.......oOO++++++OOOOO+++++++O+++++++OoooOO++++++OOoo......ooO+++++++Ooo........ ",
"  .......oOO+++++++++++++OOOooo........XXXXXXXXXXXXXXXXXXXXXXXXXXXX......XXXXXX+++OOXXXXXXXXXXO+XXXXXXXXooOO++++++OOoo......ooO+++++++Ooo........ ",
"  .......oOO++++++++++++++OOOoooo......X        X        XX       X......X    X+++OOX        XO+X      XooOO++++++OOoo......ooO+++++++Ooo........ ",
"  .......oOO++++++OO++++++++OOOooo.....XXX    XXXXX    XXXXXX   XXX......X    X+++OOXXX    XXX++XXX  XXXooOO++++++OOoo......ooO+++++++Ooo........ ",
"  .......oOO++++++OO++++++++OOOooo.......X    XX++X    XXoooX  XXo......XX    XX++OOooXX    X++++XX XXOoooOO++++++OOoo......ooO+++++++Ooo........ ",
"  .......oOO++++++OOO++++++++OOOOooo.....XX    X++XX    X...X XX........X      X++OOoooX    XX+++X  X+OoooOO++++++OOooo...ooooO+++++++Ooo........ ",
"  .......oOO++++++OOOOO++++++++OOOooo....oX    X++OX    X..XX X.........X X    X++OOoooXX    X++XX XX+OoooOO++++++OOOOooooooOOO+++++++Ooo........ ",
"  .......oOO++++++OOOOO++++++++OOOooo....oX    XX+XX    XX.X  X........XX X    XX+OOoooOX    XX+X  X++OoooOO++++++OOOOooooooOOO+++++++Ooo........ ",
"  .......oOO++++++OOoOOOO++++++++OOOooo..oXX    X+X      XoX XXooooooooX  XX    X+OOooooXX    XXX XX++OoooOO++++++++OOOoooOOOO++++++++Ooo........ ",
"  .......oOO++++++OOoooOOO++++++++OOOoooooOX    X+X X    XXX XOOOOOOOooX XXX    X+OOoo.ooX    XX  X+++OoooOO++++++++++OOOOOO++++++++++Ooo........ ",
"  .......oOO++++++OOoooOOO++++++++OOOoooooOX    XXX X    XX  XOOOOOOOoXX XOX    XXOOoo.ooXX      XX+++OoooOO++++++++++OOOOOO++++++++++Ooo........ ",
"  .......oOO++++++OOoooooOOO++++++++OOOoooOXX    X  XX    X XX++++++OOX  XOXX    XOOoo.oooX      X++++OoooOOOO++++++++++++++++++++++OOOoo........ ",
"  .......oOO++++++OOoooooOOO++++++++OOOoooOOX    X XXX    X X+++++++OOX XXXXX    XOOoo.oooXX    XX++++OoooOOOO++++++++++++++++++++++OOOoo........ ",
"  .......oOO++++++OOo..oooOOO++++++++OOoooOOX    X X+X      X++++++++XX          XXOoo...oOX    X+++++OoooooOOO+++++++++++++++++++OOOOooo........ ",
"  .......oOO++++++OOo....oooOOO++++++OOoooOOXX     X+XX    XX++++++++X  XXXXXX    XOoo...ooX    X+++++Ooo.ooooOOO++++++++++++++++OOOooo.......... ",
"  .......oOO++++++OOo....oooOOO++++++OOoooOO+X    XX++X    X+++++++++X XXoOO+X    XOoo...ooX    X+++++Ooo.ooooOOO++++++++++++++++OOOooo.......... ",
"  .......oOO++++++OOo.....oooOOOO++++OOoooOO+X    X+++X    X++++++++XX XooOO+X    XXoo....oX    X+++++Ooo...oooOOO+++++++++++++OOOoooo........... ",
"  .......oOOOOOOOOOOo.......oooOOOOOOOOoooOOOXX   XOOOXX  XXOOOOOOOXX  XooOOOXX    Xoo....oX    XOOOOOOoo.....oooOOOOOOOOOOOOOOOOooo............. ",
"  .......oOOOOOOOOOOo.......oooOOOOOOOOoooOOOOX  XXOOOOX  XOOOOOOXXX   XXXOOXXX    XXX...XXX    XXXOOOOoo.....oooOOOOOOOOOOOOOOOOooo............. ",
"  .......oooooooooooo........oooooooooooooooooX  XoooooX  XooooooX       XooX        X...X        Xoooooo......ooooooooooooooooooo............... ",
"  ............................................XXXX.....XXXX......XXXXXXXXX..XXXXXXXXXX...XXXXXXXXXX.............................................. ",
"  ............................................................................................................................................... ",
"  ............................................................................................................................................... ",
"  ............................................................................................................................................... ",
"  ............................................................................................................................................... ",
"  ............................................................................................................................................... ",
"  ............................................................................................................................................... ",
"  ............................................................................................................................................... ",
"  ............................................................................................................................................... ",
"  ............................................................................................................................................... ",
"                                                                                                                                                  "};
