/* XPM */
static const char * kenobluecheck_xpm[] = {
"48 43 3 1",
" 	c #51445144FFFF",
".	c #000000000000",
"X	c #FFFFFFFFFFFF",
"                                                ",
"                                                ",
"                                                ",
"                                                ",
"                ...............                 ",
"              ...................               ",
"           ......XXXXXXXXXXXXX......            ",
"          ....XXXXXXXXXXXXXXXXXXX....           ",
"        ....XXXXXXXXXXXXXXXXXXXXXXX....         ",
"       ...XXXXXXXXXXXXXXXXXXXXXXXXXXX...        ",
"      ...XXXXXXXXXXXXXXXXXXXXXXXXXXXXX...       ",
"     ...XXXXXXXXXXXXXXXXXXXXXXX XXXXXXX...      ",
"     ..XXXXXXXXXXXXXXXXXXXXXXX   XXXXXXX..      ",
"    ..XXXXXXXXXXXXXXXXXXXXXXXX    XXXXXXX..     ",
"   ...XXXXXXXXXXXXXXXXXXXXXXX      XXXXXX...    ",
"   ..XXXXXXXXXXXXXXXXXXXXXXX        XXXXXX..    ",
"  ...XXXXXXXXXXXXXXXXXXXXXXX        XXXXXX...   ",
"  ..XXXXXXXXXXXXXXXXXXXXXXX         XXXXXXX..   ",
"  ..XXXXXXXXXXXXXXXXXXXXXX         XXXXXXXX..   ",
"  ..XXXXXXXXXXXXXXXXXXXXX         XXXXXXXXX..   ",
"  ..XXXXXXXXXXXXXXXXXXXXX        XXXXXXXXXX..   ",
"  ..XXXXXXXXXX XXXXXXXXX        XXXXXXXXXXX..   ",
"  ..XXXXXXXXX   XXXXXXX        XXXXXXXXXXXX..   ",
"  ..XXXXXXXXX    XXXXXX       XXXXXXXXXXXXX..   ",
"  ..XXXXXXXX      XXXX       XXXXXXXXXXXXXX..   ",
"  ..XXXXXXX        XX       XXXXXXXXXXXXXXX..   ",
"  ..XXXXXXXX        X       XXXXXXXXXXXXXXX..   ",
"  ...XXXXXXXXX             XXXXXXXXXXXXXXX...   ",
"   ..XXXXXXXXXX           XXXXXXXXXXXXXXXX..    ",
"   ...XXXXXXXXXXX        XXXXXXXXXXXXXXXX...    ",
"    ..XXXXXXXXXXXX      XXXXXXXXXXXXXXXXX..     ",
"     ..XXXXXXXXXXXXX   XXXXXXXXXXXXXXXXX..      ",
"     ...XXXXXXXXXXXXXXXXXXXXXXXXXXXXXXX...      ",
"      ...XXXXXXXXXXXXXXXXXXXXXXXXXXXXX...       ",
"       ...XXXXXXXXXXXXXXXXXXXXXXXXXXX...        ",
"        ....XXXXXXXXXXXXXXXXXXXXXXX....         ",
"          ....XXXXXXXXXXXXXXXXXXX....           ",
"           ......XXXXXXXXXXXXX......            ",
"              ...................               ",
"                ...............                 ",
"                                                ",
"                                                ",
"                                                "};
