/* XPM */
static const char * kenolightning_xpm[] = {
"48 43 4 1",
" 	c #FFFF14514103",
".	c #000000000000",
"X	c #FFFFFFFF0000",
"o	c #FFFFFFFFFFFF",
"                                                ",
"                                                ",
"                                       ..       ",
"                                      .XX..     ",
"                ...............       .XXXX..   ",
"              ...................    .XXXXXXX.. ",
"           ......ooooooooooooo...... .XXXXXXX.  ",
"          ....ooooooooooooooooooo....XXXXXXX.   ",
"        ....ooooooooooooooooooooooo.XXXXXXX.    ",
"       ...ooooooooooooooooooooooooo.XXXXXXX.    ",
"      ...ooooooooooooooooooooooooo.XXXXXXX.     ",
"     ...ooooooooooooooooooooooo oo.XXXXXX.      ",
"     ..ooooooooooooooooooooooo   .XXXXXX..      ",
"    ..oooooooooooooooooooooooo   .XXXXX.o..     ",
"   ...ooooooooooooooooooooooo   .XXXXX.oo...    ",
"   ..oooooooooooooooooo.oooo   .XXXXXX.ooo..    ",
"  ...ooooooooooooooooo.X..oo   .XXXXX.oooo...   ",
"  ..oooooooooooooooooo.XXX.   .XXXXX.oooooo..   ",
"  ..ooooooooooooooooo.XXXXX.. .XXXX.ooooooo..   ",
"  ..ooooooooooooooooo.XXXXXXX.XXXX.oooooooo..   ",
"  ..oooooooooooooooo.XXXXX.XXXXXX.ooooooooo..   ",
"  ..oooooooooo ooooo.XXXX. ..XXXX.ooooooooo..   ",
"  ..ooooooooo   ooo.XXXX.    ..X.oooooooooo..   ",
"  ..ooooooooo    oo.XXXX.     o.ooooooooooo..   ",
"  ..oooooooo      .XXXX.     oooooooooooooo..   ",
"  ..ooooooo.      .XXX.     ooooooooooooooo..   ",
"  ..oooooo.X.    .XXX.      ooooooooooooooo..   ",
"  ...oooo.XXX..  .XXX.     ooooooooooooooo...   ",
"   ..oooo.XXXXX..XXX.     oooooooooooooooo..    ",
"   ...oo.XXXX.XX.XX.     oooooooooooooooo...    ",
"    ..o.XXX..o.XXX.     ooooooooooooooooo..     ",
"     ..XXX.oooo..X.o   ooooooooooooooooo..      ",
"     ..XX.ooooooo.ooooooooooooooooooooo...      ",
"     .X..ooooooooooooooooooooooooooooo...       ",
"    .X....ooooooooooooooooooooooooooo...        ",
"   .X.  ....ooooooooooooooooooooooo....         ",
"   ..     ....ooooooooooooooooooo....           ",
"  .        ......ooooooooooooo......            ",
" .            ...................               ",
"                ...............                 ",
"                                                ",
"                                                ",
"                                                "};
