/* XPM */
static const char * kenomenusuper_xpm[] = {
"146 66 6 1",
" 	c #000000000000",
".	c #51445144FFFF",
"X	c #FFFF0000FFFF",
"o	c #FFFFFFFF0000",
"O	c #FFFF14514103",
"+	c #FFFFFFFFFFFF",
"                                                                                                                                                  ",
"                                                                                                                                                  ",
"  ............................................................................................................................................... ",
"  ............................................................................................................................................... ",
"  ............................................................................................................................................... ",
"  ............................................................................................................................................... ",
"  ............................................................................................................................................... ",
"  ............................................................................................................................................... ",
"  ............................................................................................................................................... ",
"  ............................................................................................................................................... ",
"  ............................................................................................................................................... ",
"  .......XXXXXXXXXXXX.......XXXXXXXXXXXXXXXXXXXXXXXXXXXXXXXXXXXXXXXXXXX..XXXXXXXXXXXXX......XXXXXXXXXXXXX......XXXXXXXXXXXXXXXXXXX............... ",
"  .......XXXXXXXXXXXX.......XXXXXXXXXXXXXXXXXXXXXXXXXXXXXXXXXXXXXXXXXXX..XXXXXXXXXXXXX......XXXXXXXXXXXXX......XXXXXXXXXXXXXXXXXXX............... ",
"  .......XooooooooooX.....XXXooooooooooXXXoooooooooooooooooooooooooooXXXXXooooooooooXXX.....XXoooooooooXX.....XXXooooooooooooooooXXX............. ",
"  .......XooooooooooX.....XXXooooooooooXXXoooooooooooooooooooooooooooXXXXXooooooooooXXX.....XXoooooooooXX.....XXXooooooooooooooooXXX............. ",
"  .......XooOOOOOOooX....XXXoooOOOOOOooXXXooOOOOOOOOOOOOOOOOOOOOOOOOoooXXXooOOOOOOooooX.....XXoOOOOOOOoXX...XXXoooOOOOOOOOOOOOOoooXXXX........... ",
"  .......XooOOOOOOooX..XXXoooOOOOOOOOooXXXooOOOOOOOOOOOOOOOOOOOOOOOOOooXXXooOOOOOOOOooXXX...XXoOOOOOOOoXX.XXXXoooOOOOOOOOOOOOOOOOoooXXX.......... ",
"  .......XooOOOOOOooX..XXXoooOOOOOOOOooXXXooOOOOOOOOOOOOOOOOOOOOOOOOOooXXXooOOOOOOOOooXXX...XXoOOOOOOOoXX.XXXXoooOOOOOOOOOOOOOOOOoooXXX.......... ",
"  .......XooOOOOOOooXXXXXoooOOOOOOOOoooXXXooOOOOOOOOOOOOOOOOOOOOOOOOOooXXXooOOOOOOOOoooXX...XXoOOOOOOOoXXXXXoooOOOOOOOOOOOOOOOOOOOooooXXX........ ",
"  .......XooOOOOOOooXXXoooOOOOOOOOoooXXXXXooOOOOOOOOOOOOOOOOOOOOOOOOoooXXXooOOOOOOOOOOoXXX..XXoOOOOOOOoXXXooooOOOOOOOOOOOOOOOOOOOOOOoooXX........ ",
"  .......XooOOOOOOooXXXoooOOOOOOOOoooXXXXXooOOOOOOOOOOOOOOOOOOOOOOOOoooXXXooOOOOOOOOOOoXXX..XXoOOOOOOOoXXXooooOOOOOOOOOOOOOOOOOOOOOOoooXX........ ",
"  .......XooOOOOOOooXooooOOOOOOOOoooXXX..XooOOOOOOoooooooooooooooooooXXXXXooOOOOOOOOOOoooX..XXoOOOOOOOoXXXooOOOOOOOOOOooooooOOOOOOOOOOoXX........ ",
"  .......XooOOOOOOoooooOOOOOOOOoooXXX....XooOOOOOOooXXXXXXXXXXXXXXXXXXX..XooOOOOOOOOOOOooXXXXXoOOOOOOOoXXXooOOOOOOOOoooXXXooooOOOOOOOOoXX........ ",
"  .......XooOOOOOOoooooOOOOOOOOoooXXX...++++++++++o+++++++XX++++++++++++++++++++O++++++++++++++++++++++++++oOOOOOOOOoooXXXooooOOOOOOOOoXX........ ",
"  .......XooOOOOOOoooOOOOOOOOooooXXX...++      + +o+     +..+     ++           +++           ++           ++OOOOOOooooXXXXXXoooOOOOOOOoXX........ ",
"  .......XooOOOOOOoooOOOOOOOOooooXXX..++  ++++   +o++   ++..++   ++++   ++++    +++   ++++   +++   ++++    +OOOOOOooooXXXXXXoooOOOOOOOoXX........ ",
"  .......XooOOOOOOooOOOOOOOOoooXXX....+  ++oO++  +oo+   +....++ ++..+   +Xo++   +O+   +O+++  +o+   +OO++   +OOOOOOooXXX...XXXXoOOOOOOOoXX........ ",
"  .......XooOOOOOOOOOOOOOOoooXXXX.....+  ++oOO++ +oo+   +XXXXX+ +X..+   +Xoo+   +O+   +O+ ++ +o+   +OO++   +OOOOOOooXX......XXoOOOOOOOoXX........ ",
"  .......XooOOOOOOOOOOOOOOoooXXXX.....+   ++++++++oo+   +XXXXX+ +X..+   +Xo++   +O+   +++ ++ +o+   +O++    +OOOOOOooXX......XXoOOOOOOOoXX........ ",
"  .......XooOOOOOOOOOOOOOoooXXX.......+       ++++oo+   +ooooo+ +X..+   +X++    +O+   ++  ++++o+   +++    ++OOOOOOooXX......XXoOOOOOOOoXX........ ",
"  .......XooOOOOOOOOOOOoooXXX.........++         ++O+   +OOOOO+ +X..+   +++    ++O+       +oooo+        +++oOOOOOOooXX......XXoOOOOOOOoXX........ ",
"  .......XooOOOOOOOOOOOoooXXX..........+          +O+   +OOOOO+ +X..+        +++OO+   ++  +oooo+   +++   ++oOOOOOOooXX......XXoOOOOOOOoXX........ ",
"  .......XooOOOOOOOOOooooXXX..........+++++       +O+   +OOOOO+ +X..+   ++++++OOOO+   +++ ++++o+   +O+    +oOOOOOOooXX......XXoO OOOOOoXX........ ",
"  .......XooOOOOOOOOOOOoooXXX.........+ +X+++++   +O+   +OOOOO+ +X..+   +XooOOOOOO+   +O+ ++ +o+   +O++   +oOOOOOOooXX......XX   OOOOOoXX........ ",
"  .......XooOOOOOOOOOOOoooXXX.........+ ++ooOO++  +O+   +OOOOO+ +X..+   +XooOOOOOO+   +O++++ +o+   +OO+   ++OOOOOOooXX......  oo OOOOOoXX........ ",
"  .......XooOOOOOOOOOOOOOoooXXX.......+  ++oOO++  +O+   ++OOO++ +X..+   +XooOOOOOO+   +OO++  +o+   +OO+    +++OOOOooXX....  oooo OOOOOoXX........ ",
"  .......XooOOOOOOOOOOOOOoooXXX.......+   +++++  ++O++   +++++ ++X.++   +++oOOOOO++   ++++   +++   ++O++   + +OOOOooXX..  oooooo OOOOOoXX........ ",
"  .......XooOOOOOOOOOOOOOOoooXXXX.....+ +       ++ooo++       ++oX.+      +oOOOOO+           ++     +Oo+    ++OOOOooXX  oooooooo OOOOOoXX........ ",
"  .......XooOOOOOOooOOOOOOOOoooXXX....+++++++++++OooXX+++++++++XXX.++++++++oOOOOO++++++++++++++++++++Oo++++++OOOOOoo  oooooooooo OOOOOoXX........ ",
"  .......XooOOOOOOooOOOOOOOOoooXXX.......XooOOOOOOooXXXXXXXXXXXXXX.......XooOOOOOOooXXoooOOOOOOOOOOOOOoXXXooOOOOOO  oooooooooooo OOOOOoXX........ ",
"  .......XooOOOOOOoooOOOOOOOOooooXXX.....XooOOOOOOooX....................XooOOOOOOoo  XooOOOOOOOOOOOOOoXXXooOOOO  oooooooooooooo OOOOOoXX........ ",
"  .......XooOOOOOOoooooOOOOOOOOoooXXX....XooO  OOOooX....................XooOOOOOO  o XoooOOOOOOOOOOOOoXXXooOO  oooooooooooooooo OOOOOoXX........ ",
"  .......XooOOOOOOoooooOOOOOOOOoooXXX....Xo  o OOOooX....................XooOOO   ooo XoooOOOOOOOOOOOOoXXXoo  oooooooooooooooooo OOOOOoXX........ ",
"  .......XooOOOOOOooXooooOOOOOOOOoooXXX..  ooo OOOooXXXXXXXXXXXXXXXXXXX..XooO  oooooo XXXoOOOOOOOOOOOOoXXX  oooooooooooooooooooo OOOOOoXX........ ",
"  .......XooOOOOOOooXXXoooOOOOOOOOoooXX  ooooo OOOoooooooooooooooooooXXXXX   oooooooo .XXoooOOOOOOOOOOoX  ooooooooooooooooooooo  OOOOOoXX........ ",
"  .......XooOOOOOOooXXXoooOOOOOOOOooo  ooooooo OOOoooooooooooooooooooXXX  ooooooooooo .XXoooOOOOOOOOOO  oooooooooooooooooooo   OOOOOOOoXX........ ",
"  .......XooOOOOOOooXXXXXoooOOOOOOO  ooooooooo OOOOOOOOOOOOOOOOOOOOOo   ooooooooooooo .XXXooOOOOOOOO  ooooooooooooooooooo   OOOOOOOOoooXX........ ",
"  .......XooOOOOOOooXXXXXoooOOOOO  ooooooooooo OOOOOOOOOOOOOOOOOOO   oooooooooooooooo .XXXooOOOOOO  oooooooooooooooooo   OOOOOOOOOOOoooXX........ ",
"  .......XooOOOOOOooX..XXXoooOO  ooooooooooooo OOOOOOOOOOOOOOOOO  ooooooooooooooooooo ...XooooOO  oooooooooooooooooo  OOOOOOOOOOOOooooXXX........ ",
"  .......XooOOOOOOooX....XXXo  ooooooooooo  oo OOOOOOOOOOOOOO   ooooooooooooooooooooo ...XXXoo  ooooooooooooooooo   OOOOOOOOOOOOOoooXXX.......... ",
"  .......XooOOOOOOooX....XX  oooooooooo   o oo OOOOOOOOOOOO  ooooooooooooooooooo  ooo ...XXX  oooooooooooooooo   OOOOOOOOOOOOOOOOoooXXX.......... ",
"  .......XooOOOOOOooX....  ooooooooo   XXXo oo OOOOOOOOO   oooooooooooooooooo   O ooo ....  ooooooooooooooo   XoooOOOOOOOOOOOOOoooXXXX........... ",
"  .......XooooooooooX..  oooooooo   oooXXXo oo ooooooo  oooooooooooooooooo   oooo ooo ..  oooooooooooooo   ...XXXooooooooooooooooXXX............. ",
"  .......XooooooooooX  ooooooo   ooooooXXXo oo oooo   oooooooooooooooo    ooooooo ooo   ooooooooooooo   X.....XXXooooooooooooooooXXX............. ",
"  .......XXXXXXXXXX  oooooo   XXXXXXXXXXXXX oo XX  oooooooooooooooo   X..XXXXXXXX ooo oooooooooooo   XXXX......XXXXXXXXXXXXXXXXXXX............... ",
"  ...............  ooooo   ................ oo   ooooooooooooooo   .............. ooooooooooooo   ............................................... ",
"  .............  oooo   ................... ooooooooooooooooo   ................. ooooooooooo  .................................................. ",
"  ...........  ooo   ...................... oooooooooooooo   .................... oooooooo   .................................................... ",
"  .........  oo   ......................... ooooooooooo   ....................... ooooo   ....................................................... ",
"  .......  o   ............................ ooooooo    .......................... oo   .......................................................... ",
"  ........  ............................... oooo   ..............................   ............................................................. ",
"  ......................................... o   ................................................................................................. ",
"  .........................................  .................................................................................................... ",
"  ............................................................................................................................................... ",
"  ............................................................................................................................................... ",
"                                                                                                                                                  "};
