/* XPM */
static const char * kenomenukeno_xpm[] = {
"146 66 5 1",
" 	c #000000000000",
".	c #51445144FFFF",
"X	c #FFFF0000FFFF",
"o	c #FFFFFFFF0000",
"O	c #FFFF14514103",
"                                                                                                                                                  ",
"                                                                                                                                                  ",
"  ............................................................................................................................................... ",
"  ............................................................................................................................................... ",
"  ............................................................................................................................................... ",
"  ............................................................................................................................................... ",
"  ............................................................................................................................................... ",
"  ............................................................................................................................................... ",
"  ............................................................................................................................................... ",
"  ............................................................................................................................................... ",
"  ............................................................................................................................................... ",
"  .......XXXXXXXXXXXX.......XXXXXXXXXXXXXXXXXXXXXXXXXXXXXXXXXXXXXXXXXXX..XXXXXXXXXXXXX......XXXXXXXXXXXXX......XXXXXXXXXXXXXXXXXXX............... ",
"  .......XXXXXXXXXXXX.......XXXXXXXXXXXXXXXXXXXXXXXXXXXXXXXXXXXXXXXXXXX..XXXXXXXXXXXXX......XXXXXXXXXXXXX......XXXXXXXXXXXXXXXXXXX............... ",
"  .......XooooooooooX.....XXXooooooooooXXXoooooooooooooooooooooooooooXXXXXooooooooooXXX.....XXoooooooooXX.....XXXooooooooooooooooXXX............. ",
"  .......XooooooooooX.....XXXooooooooooXXXoooooooooooooooooooooooooooXXXXXooooooooooXXX.....XXoooooooooXX.....XXXooooooooooooooooXXX............. ",
"  .......XooOOOOOOooX....XXXoooOOOOOOooXXXooOOOOOOOOOOOOOOOOOOOOOOOOoooXXXooOOOOOOooooX.....XXoOOOOOOOoXX...XXXoooOOOOOOOOOOOOOoooXXXX........... ",
"  .......XooOOOOOOooX..XXXoooOOOOOOOOooXXXooOOOOOOOOOOOOOOOOOOOOOOOOOooXXXooOOOOOOOOooXXX...XXoOOOOOOOoXX.XXXXoooOOOOOOOOOOOOOOOOoooXXX.......... ",
"  .......XooOOOOOOooX..XXXoooOOOOOOOOooXXXooOOOOOOOOOOOOOOOOOOOOOOOOOooXXXooOOOOOOOOooXXX...XXoOOOOOOOoXX.XXXXoooOOOOOOOOOOOOOOOOoooXXX.......... ",
"  .......XooOOOOOOooXXXXXoooOOOOOOOOoooXXXooOOOOOOOOOOOOOOOOOOOOOOOOOooXXXooOOOOOOOOoooXX...XXoOOOOOOOoXXXXXoooOOOOOOOOOOOOOOOOOOOooooXXX........ ",
"  .......XooOOOOOOooXXXoooOOOOOOOOoooXXXXXooOOOOOOOOOOOOOOOOOOOOOOOOoooXXXooOOOOOOOOOOoXXX..XXoOOOOOOOoXXXooooOOOOOOOOOOOOOOOOOOOOOOoooXX........ ",
"  .......XooOOOOOOooXXXoooOOOOOOOOoooXXXXXooOOOOOOOOOOOOOOOOOOOOOOOOoooXXXooOOOOOOOOOOoXXX..XXoOOOOOOOoXXXooooOOOOOOOOOOOOOOOOOOOOOOoooXX........ ",
"  .......XooOOOOOOooXooooOOOOOOOOoooXXX..XooOOOOOOoooooooooooooooooooXXXXXooOOOOOOOOOOoooX..XXoOOOOOOOoXXXooOOOOOOOOOOooooooOOOOOOOOOOoXX........ ",
"  .......XooOOOOOOoooooOOOOOOOOoooXXX....XooOOOOOOooXXXXXXXXXXXXXXXXXXX..XooOOOOOOOOOOOooXXXXXoOOOOOOOoXXXooOOOOOOOOoooXXXooooOOOOOOOOoXX........ ",
"  .......XooOOOOOOoooooOOOOOOOOoooXXX....XooOOOOOOooXXXXXXXXXXXXXXXXXXX..XooOOOOOOOOOOOooXXXXXoOOOOOOOoXXXooOOOOOOOOoooXXXooooOOOOOOOOoXX........ ",
"  .......XooOOOOOOoooOOOOOOOOooooXXX.....XooOOOOOOooX....................XooOOOOOOOOOOOoooXXXXoOOOOOOOoXXXooOOOOOOooooXXXXXXoooOOOOOOOoXX........ ",
"  .......XooOOOOOOoooOOOOOOOOooooXXX.....XooOOOOOOooX....................XooOOOOOOOOOOOoooXXXXoOOOOOOOoXXXooOOOOOOooooXXXXXXoooOOOOOOOoXX........ ",
"  .......XooOOOOOOooOOOOOOOOoooXXX.......XooOOOOOOooX....................XooOOOOOOOOOOOOOoXXXXoOOOOOOOoXXXooOOOOOOooXXX...XXXXoOOOOOOOoXX........ ",
"  .......XooOOOOOOOOOOOOOOoooXXXX........XooOOOOOOooXXXXXXXXXXXXXX.......XooOOOOOOOOOOOOOoooXXoOOOOOOOoXXXooOOOOOOooXX......XXoOOOOOOOoXX........ ",
"  .......XooOOOOOOOOOOOOOOoooXXXX........XooOOOOOOooXXXXXXXXXXXXXX.......XooOOOOOOOOOOOOOoooXXoOOOOOOOoXXXooOOOOOOooXX......XXoOOOOOOOoXX........ ",
"  .......XooOOOOOOOOOOOOOoooXXX..........XooOOOOOOoooooooooooooooX.......XooOOOOOOooOOOOOOooXXoOOOOOOOoXXXooOOOOOOooXX......XXoOOOOOOOoXX........ ",
"  .......XooOOOOOOOOOOOoooXXX............XooOOOOOOOOOOOOOOOOOOOooX.......XooOOOOOOooOOOOOOoooooOOOOOOOoXXXooOOOOOOooXX......XXoOOOOOOOoXX........ ",
"  .......XooOOOOOOOOOOOoooXXX............XooOOOOOOOOOOOOOOOOOOOooX.......XooOOOOOOooOOOOOOoooooOOOOOOOoXXXooOOOOOOooXX......XXoOOOOOOOoXX........ ",
"  .......XooOOOOOOOOOooooXXX.............XooOOOOOOOOOOOOOOOOOOOooX.......XooOOOOOOooooOOOOOOoooOOOOOOOoXXXooOOOOOOooXX......XXoOOOOOOOoXX........ ",
"  .......XooOOOOOOOOOOOoooXXX............XooOOOOOOOOOOOOOOOOOOOooX.......XooOOOOOOooooOOOOOOoooOOOOOOOoXXXooOOOOOOooXX......XXoOOOOOOOoXX........ ",
"  .......XooOOOOOOOOOOOoooXXX............XooOOOOOOOOOOOOOOOOOOOooX.......XooOOOOOOooooOOOOOOoooOOOOOOOoXXXooOOOOOOooXX......XXoOOOOOOOoXX........ ",
"  .......XooOOOOOOOOOOOOOoooXXX..........XooOOOOOOOOOOOOOOOOOOOooX.......XooOOOOOOoooooOOOOOOOoOOOOOOOoXXXooOOOOOOooXX......XXoOOOOOOOoXX........ ",
"  .......XooOOOOOOOOOOOOOoooXXX..........XooOOOOOOOOOOOOOOOOOOOooX.......XooOOOOOOoooooOOOOOOOoOOOOOOOoXXXooOOOOOOooXX......XXoOOOOOOOoXX........ ",
"  .......XooOOOOOOOOOOOOOOoooXXXX........XooOOOOOOoooooooooooooooX.......XooOOOOOOooXXoOOOOOOOoOOOOOOOoXXXooOOOOOOooXX......XXoOOOOOOOoXX........ ",
"  .......XooOOOOOOooOOOOOOOOoooXXX.......XooOOOOOOooXXXXXXXXXXXXXX.......XooOOOOOOooXXoooOOOOOOOOOOOOOoXXXooOOOOOOooXX......XXoOOOOOOOoXX........ ",
"  .......XooOOOOOOooOOOOOOOOoooXXX.......XooOOOOOOooXXXXXXXXXXXXXX.......XooOOOOOOooXXoooOOOOOOOOOOOOOoXXXooOOOOOOooXX......XXoOOOOOOOoXX........ ",
"  .......XooOOOOOOoooOOOOOOOOooooXXX.....XooOOOOOOooX....................XooOOOOOOooXXXooOOOOOOOOOOOOOoXXXooOOOOOOooXXX...XXXXoOOOOOOOoXX........ ",
"  .......XooOOOOOOoooooOOOOOOOOoooXXX....XooOOOOOOooX....................XooOOOOOOooXXXoooOOOOOOOOOOOOoXXXooOOOOOOooooXXXXXXoooOOOOOOOoXX........ ",
"  .......XooOOOOOOoooooOOOOOOOOoooXXX....XooOOOOOOooX....................XooOOOOOOooXXXoooOOOOOOOOOOOOoXXXooOOOOOOooooXXXXXXoooOOOOOOOoXX........ ",
"  .......XooOOOOOOooXooooOOOOOOOOoooXXX..XooOOOOOOooXXXXXXXXXXXXXXXXXXX..XooOOOOOOooXXXXXoOOOOOOOOOOOOoXXXooOOOOOOOOoooXXXooooOOOOOOOOoXX........ ",
"  .......XooOOOOOOooXXXoooOOOOOOOOoooXXXXXooOOOOOOoooooooooooooooooooXXXXXooOOOOOOooXX.XXoooOOOOOOOOOOoXXXooOOOOOOOOOOooooooOOOOOOOOOOoXX........ ",
"  .......XooOOOOOOooXXXoooOOOOOOOOoooXXXXXooOOOOOOoooooooooooooooooooXXXXXooOOOOOOooXX.XXoooOOOOOOOOOOoXXXooOOOOOOOOOOooooooOOOOOOOOOOoXX........ ",
"  .......XooOOOOOOooXXXXXoooOOOOOOOOoooXXXooOOOOOOOOOOOOOOOOOOOOOOOOoooXXXooOOOOOOooXX.XXXooOOOOOOOOOOoXXXooooOOOOOOOOOOOOOOOOOOOOOOoooXX........ ",
"  .......XooOOOOOOooXXXXXoooOOOOOOOOoooXXXooOOOOOOOOOOOOOOOOOOOOOOOOoooXXXooOOOOOOooXX.XXXooOOOOOOOOOOoXXXooooOOOOOOOOOOOOOOOOOOOOOOoooXX........ ",
"  .......XooOOOOOOooX..XXXoooOOOOOOOOooXXXooOOOOOOOOOOOOOOOOOOOOOOOOOooXXXooOOOOOOooXX...XooooOOOOOOOOoXXXXXoooOOOOOOOOOOOOOOOOOOOooooXXX........ ",
"  .......XooOOOOOOooX....XXXoooOOOOOOooXXXooOOOOOOOOOOOOOOOOOOOOOOOOOooXXXooOOOOOOooXX...XXXooOOOOOOOOoXX.XXXXoooOOOOOOOOOOOOOOOOoooXXX.......... ",
"  .......XooOOOOOOooX....XXXoooOOOOOOooXXXooOOOOOOOOOOOOOOOOOOOOOOOOOooXXXooOOOOOOooXX...XXXooOOOOOOOOoXX.XXXXoooOOOOOOOOOOOOOOOOoooXXX.......... ",
"  .......XooOOOOOOooX.....XXXooooOOOOooXXXooOOOOOOOOOOOOOOOOOOOOOOOOoooXXXooOOOOOOooXX....XXoooOOOOOOOoXX...XXXoooOOOOOOOOOOOOOoooXXXX........... ",
"  .......XooooooooooX.......XXXooooooooXXXoooooooooooooooooooooooooooXXXXXooooooooooXX....XXXXoooooooooXX.....XXXooooooooooooooooXXX............. ",
"  .......XooooooooooX.......XXXooooooooXXXoooooooooooooooooooooooooooXXXXXooooooooooXX....XXXXoooooooooXX.....XXXooooooooooooooooXXX............. ",
"  .......XXXXXXXXXXXX........XXXXXXXXXXXXXXXXXXXXXXXXXXXXXXXXXXXXXXXXXX..XXXXXXXXXXXXX......XXXXXXXXXXXXX......XXXXXXXXXXXXXXXXXXX............... ",
"  ............................................................................................................................................... ",
"  ............................................................................................................................................... ",
"  ............................................................................................................................................... ",
"  ............................................................................................................................................... ",
"  ............................................................................................................................................... ",
"  ............................................................................................................................................... ",
"  ............................................................................................................................................... ",
"  ............................................................................................................................................... ",
"  ............................................................................................................................................... ",
"  ............................................................................................................................................... ",
"                                                                                                                                                  "};
