/* XPM */
static const char * kenoblueb_xpm[] = {
"48 43 3 1",
" 	c #51445144FFFF",
".	c #000000000000",
"X	c #FFFFFFFFFFFF",
"                                                ",
"                                                ",
"                                                ",
"                                                ",
"                ...............                 ",
"              ...................               ",
"           ......XXXXXXXXXXXXX......            ",
"          ....XXXXXXXXXXXXXXXXXXX....           ",
"        ....XXXXXXXXXXXXXXXXXXXXXXX....         ",
"       ...XXXXXXXXXXXXXXXXXXXXXXXXXXX...        ",
"      ...XXXXXXXXXXXXXXXXXXXXXXXXXXXXX...       ",
"     ...XXXXXXXXXXXXXXXXXXXXXXXXXXXXXXX...      ",
"     ..XXXXXXXXXXXXXXXXXXXXXXXXXXXXXXXXX..      ",
"    ..XXXXXXXXXX             XXXXXXXXXXXX..     ",
"   ...XXXXXXXXXXXX    XXXX     XXXXXXXXXX...    ",
"   ..XXXXXXXXXXXXX    XXXXX     XXXXXXXXXX..    ",
"  ...XXXXXXXXXXXXX    XXXXX     XXXXXXXXXX...   ",
"  ..XXXXXXXXXXXXXX    XXXXX     XXXXXXXXXXX..   ",
"  ..XXXXXXXXXXXXXX    XXXXX     XXXXXXXXXXX..   ",
"  ..XXXXXXXXXXXXXX    XXXXX    XXXXXXXXXXXX..   ",
"  ..XXXXXXXXXXXXXX    XXXX    XXXXXXXXXXXXX..   ",
"  ..XXXXXXXXXXXXXX           XXXXXXXXXXXXXX..   ",
"  ..XXXXXXXXXXXXXX    XXXXX    XXXXXXXXXXXX..   ",
"  ..XXXXXXXXXXXXXX    XXXXXX    XXXXXXXXXXX..   ",
"  ..XXXXXXXXXXXXXX    XXXXXX     XXXXXXXXXX..   ",
"  ..XXXXXXXXXXXXXX    XXXXXX     XXXXXXXXXX..   ",
"  ..XXXXXXXXXXXXXX    XXXXXX     XXXXXXXXXX..   ",
"  ...XXXXXXXXXXXXX    XXXXXX     XXXXXXXXX...   ",
"   ..XXXXXXXXXXXXX    XXXXXX     XXXXXXXXX..    ",
"   ...XXXXXXXXXXXX    XXXXX     XXXXXXXXX...    ",
"    ..XXXXXXXXXX              XXXXXXXXXXX..     ",
"     ..XXXXXXXXXXXXXXXXXXXXXXXXXXXXXXXXX..      ",
"     ...XXXXXXXXXXXXXXXXXXXXXXXXXXXXXXX...      ",
"      ...XXXXXXXXXXXXXXXXXXXXXXXXXXXXX...       ",
"       ...XXXXXXXXXXXXXXXXXXXXXXXXXXX...        ",
"        ....XXXXXXXXXXXXXXXXXXXXXXX....         ",
"          ....XXXXXXXXXXXXXXXXXXX....           ",
"           ......XXXXXXXXXXXXX......            ",
"              ...................               ",
"                ...............                 ",
"                                                ",
"                                                ",
"                                                "};
