/* XPM */
static const char * slot_sm_n_xpm[] = {
"20 20 3 1",
" 	c #FFFFFFFFFFFF",
".	c #FFFF14514103",
"X	c #51445144FFFF",
"                    ",
"                    ",
"                    ",
"   ..............   ",
"   .     ..     .   ",
"   . XXX  . XXX .   ",
"   .  XXX .  X  .   ",
"   .. XXX  . X ..   ",
"    . X XX   X .    ",
"    . X  XX  X .    ",
"    . X  XXX X .    ",
"    . X   XXXX .    ",
"   .. X .  XXX .    ",
"   .  X  .  XX .    ",
"   . XXX ..  X .    ",
"   .     ...   .    ",
"   ....... .....    ",
"                    ",
"                    ",
"                    "};
