/* XPM */
static const char * slot_boat2_xpm[] = {
"40 40 8 1",
" 	c #FFFFFFFFFFFF",
".	c #CF3CCF3CCF3C",
"X	c #000000000000",
"o	c #DF7DE38DDF7D",
"O	c #B6DAB2CAB6DA",
"+	c #0000E79DE79D",
"@	c #9E7934D30000",
"#	c #51445144FFFF",
"                                        ",
"                       .X.              ",
"                      .oX.              ",
"                     .ooX..             ",
"                     .ooX..             ",
"                    .oooX. .            ",
"                   .ooooX. .            ",
"                  .oooooX. .            ",
"                 .ooooooX .o.           ",
"                .oooooooX .o.           ",
"                .oooooooX .oo.          ",
"               .ooooooooX .oo.          ",
"              .oooooooooX .oo.          ",
"             .ooooooooooX .ooo.         ",
"            .oooooooooooX .ooo.         ",
"           .ooooooooooooX .oooo.        ",
"           .ooooooooooooX .oooo.        ",
"          .oooooooooooooX .oooo.        ",
"         .ooooooooooooooX .ooooo.       ",
"        .oooooooooooooooX .ooooo.       ",
"       .ooooooooooooooooX .ooooo.       ",
"      .oooooooooooooooooX  .ooooo.      ",
"      .oooooooooooooooooX  .ooooo.      ",
"     .ooooooooooooooooooX  .oooooo.     ",
"    .oooooooooooooooooooX  .oooooo.     ",
"    XXXXXXXXXXXXXXXXXXXXX  .oooooo.     ",
"                        X  .ooooooo.    ",
"               OOOOOOO  X  ...ooooo.    ",
"               O......OOOO    ....oo.   ",
"              O..+++++....OO      ...   ",
"  @@@@@@@     O..+++++....OOOOOOOOOOO   ",
"  @           OOOOOOOOOOOO..........O   ",
"  @OOOOOOOOOOO.............########O    ",
" @@O...........############........O    ",
"@@@O###########...................O     ",
"@@@O.............................O      ",
" ## O.##...##...##...##...##...##   ##  ",
"#  ###  ###  ###  ###  ###  ###  ###    ",
"                                        ",
"                                        "};
