/* XPM */
static const char * slot_j_xpm[] = {
"40 40 3 1",
" 	c #FFFFFFFFFFFF",
".	c #FFFF14514103",
"X	c #51445144FFFF",
"                                        ",
"                                        ",
"                                        ",
"                                        ",
"                                        ",
"                                        ",
"                                        ",
"               .............            ",
"               .           .            ",
"               . XXXXXXXXX .            ",
"               .    XXX    .            ",
"               .... XXX ....            ",
"                  . XXX .               ",
"                  . XXX .               ",
"                  . XXX .               ",
"                  . XXX .               ",
"                  . XXX .               ",
"                  . XXX .               ",
"                  . XXX .               ",
"                  . XXX .               ",
"                  . XXX .               ",
"             ...... XXX .               ",
"            ..   .. XXX .               ",
"            .  X  . XXX .               ",
"            . XXX . XXX .               ",
"            . XXX   XX  .               ",
"            . XXX  XXX ..               ",
"            .  XXXXX   .                ",
"            ..       ...                ",
"             .........                  ",
"                                        ",
"                                        ",
"                                        ",
"                                        ",
"                                        ",
"                                        ",
"                                        ",
"                                        ",
"                                        ",
"                                        "};
