/* XPM */
static const char * slot_9_xpm[] = {
"40 40 3 1",
" 	c #FFFFFFFFFFFF",
".	c #FFFF14514103",
"X	c #51445144FFFF",
"                                        ",
"                                        ",
"                                        ",
"                                        ",
"                                        ",
"                                        ",
"                                        ",
"                                        ",
"                                        ",
"                 ........               ",
"               ...      ..              ",
"              ..   XXXX  ..             ",
"              .  XXX XXX  .             ",
"              . XXX   XXX ..            ",
"              . XXX . XXX  .            ",
"              . XXX . XXXX .            ",
"              . XXX . XXXX .            ",
"              . XXX . XXXX .            ",
"              . XXX   XXXX .            ",
"              .  XXX XXXXX .            ",
"              ..  XXX XXX  .            ",
"               ..     XXX ..            ",
"                .... XXXX .             ",
"                 ..  XXX  .             ",
"               ...  XXXX ..             ",
"              ..   XXXX  .              ",
"              .  XXXX   ..              ",
"              . XXX   ...               ",
"              .     ...                 ",
"              .......                   ",
"                                        ",
"                                        ",
"                                        ",
"                                        ",
"                                        ",
"                                        ",
"                                        ",
"                                        ",
"                                        ",
"                                        "};
