/* XPM */
static const char * slot_cherry_xpm[] = {
"40 40 6 1",
" 	c #FFFFFFFFFFFF",
".	c #2081AAAA0000",
"X	c #38E3FBEE30C2",
"o	c #9E7904100000",
"O	c #FFFF14514103",
"+	c #FFFF659569A6",
"                                        ",
"                                        ",
"      ......                            ",
"     ..XXXX.......                      ",
"      ..XXXXXXXXX..                     ",
"       ..XXXXXXXXX...                   ",
"        ..XXXXXXXXXX.                   ",
"          ....XXXXXX..                  ",
"              ...XXXX..                 ",
"                ....XX..       ooooo    ",
"                    ...ooooooooX.       ",
"                ooooo   ooo oo.X..      ",
"              ooo    ooo   oo..XXX.     ",
"             oo     oo     o .XXXX.     ",
"         OOOoo     oo     o  .XXXXX.    ",
"       OoOOoooO   oo      o  .XXXXX.    ",
"      OOOooooOOO oo      o   .XXXXX.    ",
"     OOOOOOOOOOOo        o   .XXXXXX.   ",
"     OOOOOOOOOOoo        o   .XXXXXX.   ",
"     OO+OOOOOOOoO       oo   .XXXXXX.   ",
"     OO+OOOOOOoOO       o    .XXXXXX.   ",
"     OOO+OOOOoOOO       o    .XXXXXX.   ",
"      OOO+++ooOO      OOoO   .XXXXXX.   ",
"       OOOOooOO     OoOOoOoO  .XXXXX.   ",
"         OooO      OOOooooOOO .XXXXX.   ",
"          o       OOOOOOOOOOOO.XXXX..   ",
"          o       OOOOOOOOOOOO..XXX.    ",
"        OOoO      OO+OOOOOOOOO ..X..    ",
"      OoOOoOoO    OO+OOOOOOOOO  .X.     ",
"     OOOooooOOO   OOO+OOOOOOOO  ...     ",
"    OOOOOOOOOOOO   OOO+++OOOO    .      ",
"    OOOOOOOOOOOO    OOOOOOOO            ",
"    OO+OOOOOOOOO      OOOO              ",
"    OO+OOOOOOOOO                        ",
"    OOO+OOOOOOOO                        ",
"     OOO+++OOOO                         ",
"      OOOOOOOO                          ",
"        OOOO                            ",
"                                        ",
"                                        "};
