/* XPM */
static const char * slot_sm_emerald_xpm[] = {
"20 20 3 1",
" 	c #FFFFFFFFFFFF",
".	c #00008E380000",
"X	c #38E3FBEE30C2",
"                    ",
"  ...............   ",
" .XXX.XXX.XXX.XXX.  ",
" .XXX.XXX.XXX.XXX.  ",
".XXX.XXXX.XXXX.XXX. ",
"................... ",
" .XX.XXXX.XXXX.XX.  ",
" .XXX.XXX.XXX.XXX.  ",
"  .XX.XXX.XXX.XX.   ",
"   .X.XXX.XXX.X.    ",
"   .XX.XX.XX.XX.    ",
"    .X.XX.XX.X.     ",
"     .X.X.X.X.      ",
"     .X.X.X.X.      ",
"      ..X.X..       ",
"      .X...X.       ",
"       .....        ",
"        ...         ",
"        ...         ",
"         .          "};
