/* XPM */
static const char * slot_car3_xpm[] = {
"40 40 5 1",
" 	c #FFFFFFFFFFFF",
".	c #51445144FFFF",
"X	c #0000E79DE79D",
"o	c #00000000D75C",
"O	c #000000000000",
"                                        ",
"                                        ",
"                                        ",
"                                        ",
"                                        ",
"                                        ",
"                                        ",
"                                        ",
"                                        ",
"                  ........              ",
"             .....XXXXXX.XX             ",
"          ...ooXXXXXXXXX.XX             ",
"         ..ooooXXXXXXXXX..XX            ",
"       ..oo.ooooXXXXXXXXX.XXX           ",
"      ..oooo...oXXXXXXXXX.XXX           ",
"     .ooooooooo..................       ",
"    .ooooooooooooooooooooooooooo....    ",
"   .ooooooooooooooooooooooooooooooo..   ",
"  ..ooooooooooooooooooooooooooooooooo.  ",
"  .ooooooOOooooooooooooooooOOooooooooo. ",
" .oooooOOOOOOooooooooooooOOOOOOooooooo. ",
"..oooooOOOOOOooooooooooooOOOOOOooooooo. ",
".oooooOOO  OOOooooooooooOOO  OOOoooooo. ",
"......OOO  OOO..........OOO  OOO....... ",
"       OOOOOO            OOOOOO         ",
"       OOOOOO            OOOOOO         ",
"         OO                OO           ",
"                                        ",
"                                        ",
"                                        ",
"                                        ",
"                                        ",
"                                        ",
"                                        ",
"                                        ",
"                                        ",
"                                        ",
"                                        ",
"                                        ",
"                                        "};
