/* XPM */
static const char * slot_sm_l_xpm[] = {
"20 20 3 1",
" 	c #FFFFFFFFFFFF",
".	c #FFFF14514103",
"X	c #51445144FFFF",
"                    ",
"                    ",
"     ........       ",
"     .      .       ",
"     . XXXX .       ",
"     .  XX  .       ",
"     .. XX ..       ",
"      . XX .        ",
"      . XX ......   ",
"      . XX ..   .   ",
"      . XX .. X .   ",
"     .. XX .  X .   ",
"     .  XX   XX .   ",
"     . XXXXXXXX .   ",
"     .          .   ",
"     ............   ",
"                    ",
"                    ",
"                    ",
"                    "};
