/* XPM */
static const char * slot_4_xpm[] = {
"40 40 3 1",
" 	c #FFFFFFFFFFFF",
".	c #FFFF14514103",
"X	c #51445144FFFF",
"                                        ",
"                                        ",
"                                        ",
"                                        ",
"                                        ",
"                                        ",
"                                        ",
"                                        ",
"                    ......              ",
"                   ..    .              ",
"                  ..  XX .              ",
"                  .  XXX .              ",
"                 .. XXXX .              ",
"                ..  XXXX .              ",
"               ..  XXXXX .              ",
"               .  XX XXX .              ",
"              .. XX  XXX .              ",
"             ..  XX  XXX .              ",
"             .  XX   XXX .              ",
"             . XX  . XXX ...            ",
"             . XX    XXX   .            ",
"             . XXXXXXXXXXX .            ",
"             . XXXXXXXXXXX .            ",
"             .       XXX   .            ",
"             ....... XXX ...            ",
"                   . XXX .              ",
"                   . XXX .              ",
"                   .     .              ",
"                   .......              ",
"                                        ",
"                                        ",
"                                        ",
"                                        ",
"                                        ",
"                                        ",
"                                        ",
"                                        ",
"                                        ",
"                                        ",
"                                        "};
