/* XPM */
static const char * slot_sm_bill1_xpm[] = {
"20 20 3 1",
" 	c #FFFFFFFFFFFF",
".	c #38E3FBEE30C2",
"X	c #082071C60000",
"                    ",
"                    ",
"                    ",
"                    ",
"                    ",
"....................",
".X.XXXXX.XX.XXXXX.X.",
".X......X..X......X.",
".......X.XX.X.......",
"...XX..X.XX.X.XX....",
"...XX..X.XX.X.XX....",
".X......X..X......X.",
".X.XXXX..XX..XXXX.X.",
"....................",
"                    ",
"                    ",
"                    ",
"                    ",
"                    ",
"                    "};
