/* XPM */
static const char * slot_wild_down_xpm[] = {
"40 40 5 1",
" 	c #FFFFFFFFFFFF",
".	c #000000000000",
"X	c #FFFFFFFF0000",
"o	c #FFFF14514103",
"O	c #51445144FFFF",
"                                        ",
"                                        ",
"                                        ",
"                                        ",
"                                        ",
"                                        ",
"    ..................... ........      ",
"    .XXX.XXX.XXXXXX.XXXX. .XXXXXX..     ",
"    ..XX.XX..X..XX...XX.. ..XX..XX.     ",
"     .XX.XX.XX..XX. .XX.   .XX..XX.     ",
"     .XX.XX.X...XX. .XX.....XX..XX.     ",
"     ..XX.XXX. .XX. .XX..X..XX..XX.     ",
"      .XX.XX....XX...XX.XX..XX..XX.     ",
"      ..X..X. .XXXX.XXXXXX.XXXXXX..     ",
"       ...... ....................      ",
"                                        ",
"                                        ",
"          oooo             oooo         ",
"          o..oooo       oooo..o         ",
"          oo....oooo oooo....oo         ",
"           o.OOO...ooo...OOO.o          ",
"           oo.OOOOO...OOOOO.oo          ",
"            o.OOXXOOOOOXXOO.o           ",
"            oo.OOXXXXXXXOO.oo           ",
"             oo.OXXXXXXXO.oo            ",
"              o.OOXXXXXOO.o             ",
"              oo.OXXXXXO.oo             ",
"               o.OOXXXOO.o              ",
"               oo.OOXOO.oo              ",
"                oo.OXO.oo               ",
"                 o.OOO.o                ",
"                 oo.O.oo                ",
"                  o.O.o                 ",
"                  oo.oo                 ",
"                   ooo                  ",
"                                        ",
"                                        ",
"                                        ",
"                                        ",
"                                        "};
