/* XPM */
static const char * slot_boat1_xpm[] = {
"40 40 7 1",
" 	c #FFFFFFFFFFFF",
".	c #CF3CCF3CCF3C",
"X	c #B6DAB2CAB6DA",
"o	c #DF7DE38DDF7D",
"O	c #9E7934D30000",
"+	c #CF3C41030000",
"@	c #51445144FFFF",
"                                        ",
"                              .X        ",
"                             .oX        ",
"                            .ooX        ",
"                            .ooX        ",
"                           .oooX        ",
"                          .ooooX        ",
"                         .oooooX        ",
"                        .ooooooX        ",
"                        .ooooooX        ",
"                       .oooooooX        ",
"                      .ooooooooX        ",
"                     .oooooooooX        ",
"                    .ooooooooooX        ",
"                    .ooooooooooX        ",
"                   .oooooooooooX        ",
"                  .ooooooooooooX        ",
"                 .oooooooooooooX        ",
"                .ooooooooooooooX        ",
"                .ooooooooooooooX        ",
"               .oooooooooooooooX        ",
"              .ooooooooooooooooX        ",
"             .oooooooooooooooooX        ",
"            .ooooooooooooooooooX        ",
"            .ooooooooooooooooooX        ",
"           .oooooooooooooooooooX        ",
"          .ooooooooooooooooooooX        ",
"          XXXXXXXXXXXXXXXXXXXXXX        ",
"                               X        ",
"     XXXXXXXXX                 X        ",
"     X                         X        ",
"     X OOOOOOOOOOOOOOOOOOOOOOOOOOO      ",
"     X O+++++++++++++++++++++++++O      ",
"    XX  O+++++++++++++++++++++++O       ",
"    XXX O+++++++++++++++++++++++O       ",
"    XXX  OO++++++++++++++++++++O        ",
" @@ XX@@   @@+++@@+++@@+++@@+++@@   @@  ",
"@  @@@  @@@  @@@  @@@  @@@  @@@  @@@    ",
"                                        ",
"                                        "};
