/* XPM */
static const char * slot_sm_chip25_xpm[] = {
"20 20 5 1",
" 	c #FFFFFFFFFFFF",
".	c #B6DAB2CAB6DA",
"X	c #000000000000",
"o	c #38E3FBEE30C2",
"O	c #FFFFFFFF0000",
"       ......       ",
"     ..XXXXXX..     ",
"    .ooXXXXXXoo.    ",
"   .ooooXXXXoooo.   ",
"  .oooooooooooooo.  ",
" .ooooXXOOOOXXoooo. ",
" .oooXOOOOOOOOXooo. ",
".XXooXOXXXOXXXXooXX.",
".XXXoOOOOXOXOOOoXXX.",
".XXXoOOXXXOXXXOoXXX.",
".XXXoOOXOOOOOXOoXXX.",
".XXXoOOXXXOXXXOoXXX.",
".XXooXOOOOOOOOXooXX.",
" .oooXOOOOOOOOXooo. ",
" .ooooXXOOOOXXoooo. ",
"  .oooooooooooooo.  ",
"   .ooooXXXXoooo.   ",
"    .ooXXXXXXoo.    ",
"     ..XXXXXX..     ",
"       ......       "};
