/* XPM */
static const char * slot_jackpot_xpm[] = {
"40 40 3 1",
" 	c #FFFFFFFFFFFF",
".	c #FFFF14514103",
"X	c #FFFFFFFF0000",
"                                        ",
"                                        ",
"                .........               ",
"             ...XXXXXXXXX...            ",
"           ..XXXXXXXXXXXXXXX..          ",
"         ..XXXXXXXXXXXXXXXXXXX..        ",
"        .XXXXXXXXXXXXXXXXXXXXXXX.       ",
"       .XXXXXXXXXXXXXXXXXXXXXXXXX.      ",
"      .XXXXXXXXXXXXXXXXXXXXXXXXXXX.     ",
"     .XXXXXXXXXXXXXXXXXXXXXXXXXXXXX.    ",
"    .XX...XXXX.XXXXXX...X.X...X...XX.   ",
"    .XXX.XXXXX.XXXXX..XX..XX.XXX.XXX.   ",
"   .XXXX.XXXX.X.XXXX.XXXX.XX.XX.XXXXX.  ",
"   .XXXX.XXXX.X.XXX.XXXXXXXX.X.XXXXXX.  ",
"   .XXXX.XXX.XXX.XX.XXXXXXXX...XXXXXX.  ",
"  .XXXXX.XXX.....XX.XXXXXXXX.X..XXXXXX. ",
"  .XXXXX.XXX.XXX.XXX.XXXX.XX.XX..XXXXX. ",
"  .XXX.X.XX.XXXXX.XX..XX..XX.XXX..XXXX. ",
"  .XXX..XX...XXX...XX....XX...XX...XXX. ",
"  .XXXXXXXXXXXXXXXXXXXXXXXXXXXXXXXXXXX. ",
"  .XXXXXX......XXX....XXX.......XXXXXX. ",
"  .XXXXXXX.XXX..X..XX..XX.XX.XX.XXXXXX. ",
"   .XXXXXX.XXXX.X.XXXX.XXXXX.XXXXXXXX.  ",
"   .XXXXXX.XXX...XXXXXX.XXXX.XXXXXXXX.  ",
"   .XXXXXX.....X.XXXXXX.XXXX.XXXXXXXX.  ",
"    .XXXXX.XXXXX.XXXXXX.XXXX.XXXXXXX.   ",
"    .XXXXX.XXXXXX.XXXX.XXXXX.XXXXXXX.   ",
"     .XXXX.XXXXXX..XX..XXXXX.XXXXXX.    ",
"      .XX...XXXXXX....XXXXX...XXXX.     ",
"       .XXXXXXXXXXXXXXXXXXXXXXXXX.      ",
"        .XXXXXXXXXXXXXXXXXXXXXXX.       ",
"         ..XXXXXXXXXXXXXXXXXXX..        ",
"           ..XXXXXXXXXXXXXXX..          ",
"             ...XXXXXXXXX...            ",
"                .........               ",
"                                        ",
"                                        ",
"                                        ",
"                                        ",
"                                        "};
