/* XPM */
static const char * slot_5_xpm[] = {
"40 40 3 1",
" 	c #FFFFFFFFFFFF",
".	c #FFFF14514103",
"X	c #51445144FFFF",
"                                        ",
"                                        ",
"                                        ",
"                                        ",
"                                        ",
"                                        ",
"                                        ",
"                                        ",
"               ............             ",
"               .          .             ",
"              .. XXXXXXXX .             ",
"              .  XXXXXXX  .             ",
"              . XXXXXXXX ..             ",
"             .. XX       .              ",
"             .  X  .......              ",
"             . XX      ..               ",
"             . XXXXXXX  ..              ",
"             . XXXXXXXX  .              ",
"             . XXXXXXXXX .              ",
"             .     XXXXX .              ",
"             .....   XXX .              ",
"             .......  XX .              ",
"            ..    ... XX .              ",
"            .  XX  .  XX .              ",
"            . XXXX   XX  .              ",
"            . XXXXX XXX ..              ",
"            .  XXXXXX   .               ",
"            ..        ...               ",
"             ..........                 ",
"                                        ",
"                                        ",
"                                        ",
"                                        ",
"                                        ",
"                                        ",
"                                        ",
"                                        ",
"                                        ",
"                                        ",
"                                        "};
