/* XPM */
static const char * slot_ruby_xpm[] = {
"40 40 3 1",
" 	c #FFFFFFFFFFFF",
".	c #B6DA04100000",
"X	c #FFFF14514103",
"                                        ",
"                                        ",
"                                        ",
"                                        ",
"                                        ",
"                                        ",
"          ...................           ",
"         .XXXX.XXXX.XXXX.XXXX.          ",
"        .XXXX.XXXXX.XXXXX.XXXX.         ",
"       .XXXXX.XXXXX.XXXXX.XXXXX.        ",
"      .XXXXXX.XXXXX.XXXXX.XXXXXX.       ",
"      .XXXXXX.XXXXX.XXXXX.XXXXXX.       ",
"     .XXXXXX.XXXXXX.XXXXXX.XXXXXX.      ",
"    ...............................     ",
"    .XXXXXXX.XXXXXX.XXXXXX.XXXXXX.      ",
"     .XXXXXXX.XXXXX.XXXXX.XXXXXXX.      ",
"     .XXXXXXX.XXXXX.XXXXX.XXXXXX.       ",
"      .XXXXXX.XXXXX.XXXXX.XXXXX.        ",
"       .XXXXXX.XXXX.XXXX.XXXXXX.        ",
"       .XXXXXX.XXXX.XXXX.XXXXX.         ",
"        .XXXXX.XXXX.XXXX.XXXX.          ",
"         .XXXX.XXXX.XXXX.XXXX.          ",
"         .XXXXX.XXX.XXX.XXXX.           ",
"          .XXXX.XXX.XXX.XXX.            ",
"           .XXX.XXX.XXX.XXX.            ",
"            .XXX.XX.XX.XXX.             ",
"            .XXX.XX.XX.XXX.             ",
"             .XX.XX.XX.XX.              ",
"              .XX.X.X.XX.               ",
"              .XX.X.X.XX.               ",
"               .X.X.X.X.                ",
"                ..X.X..                 ",
"                .X...X.                 ",
"                 .....                  ",
"                  ...                   ",
"                  ...                   ",
"                   .                    ",
"                                        ",
"                                        ",
"                                        "};
