/* XPM */
static const char * slot_train_xpm[] = {
"40 40 7 1",
" 	c #FFFFFFFFFFFF",
".	c #000000000000",
"X	c #49244D344924",
"o	c #0000E79DE79D",
"O	c #FFFFFFFF0000",
"+	c #CF3CCF3CCF3C",
"@	c #B6DAB2CAB6DA",
"                                        ",
"                                        ",
"                                        ",
"                                        ",
"                                        ",
"                                        ",
"                                        ",
"                                        ",
"                                        ",
"                                        ",
" ...........                            ",
"  ...........               .....       ",
"   .XXXXXXXX.              .XXXXX.      ",
"   .X......X.              .XXXXX.      ",
"   .X.oooo.X.             OOOOOOOOO     ",
"   .X.oooo.X.              .XXXXX.      ",
"   .X.oooo.X.    ..    ..  .XXXXX.      ",
"   .X.oooo.X.   .XX.  .XX.  .XXX.       ",
"   .X......X.   .XX.  .XX.  .XXX.       ",
"   .XXXXXXXX.   .XX.  .XX.   .X.        ",
"   ................................     ",
"   .XXXXXXXXXXXXXXXXXXXXXXXXXXXXXX.     ",
"   .XXXXXXXXXXXXXXXXXXXXXXXXXXXXXX.     ",
"   .XXXX....XXXXXXX....XXXXXXXXXXX.     ",
"   .XXX.XX.X.XXXXX.XX.X.XXXXXXXXXX.     ",
"   .XX..XX.X..XXX..XX.X..XXXXXXXXX..    ",
"   .X.XX..+.XX.X.XX.. .XX.XXXXXXXX. .   ",
"   ..... ...XX.@... ...XX........... .  ",
"     .  ... ... .  ... ...    ...  ...  ",
"     .  . ..  . .  . ..  .   .. ..   .. ",
"      .. .  ..   .. .  ..    . . .     .",
"       . .  .     . .  .     .. ..      ",
"        ....       ....       ...       ",
"                                        ",
"                                        ",
"                                        ",
"                                        ",
"                                        ",
"                                        ",
"                                        "};
