/* XPM */
static const char * slot_red7_xpm[] = {
"40 40 3 1",
" 	c #FFFFFFFFFFFF",
".	c #000000000000",
"X	c #FFFF14514103",
"                                        ",
"                                        ",
"                                        ",
"                                        ",
"                                        ",
"                                        ",
"                                        ",
"             .................          ",
"             .XXXXXXXXXXXXXXX.          ",
"             .XXXXXXXXXXXXXX..          ",
"            ..XXXXXXXXXXXXXX.           ",
"            .XXXXXXXXXXXXXX..           ",
"          ...XXXX......XXXX.            ",
"          .XXXXX..   .XXXX..            ",
"          .......   ..XXXX.             ",
"                    .XXXXX.             ",
"                    .XXXX..             ",
"                   ..XXXX.              ",
"                   .XXXXX.              ",
"                   .XXXX..              ",
"                  ..XXXX.               ",
"                  .XXXXX.               ",
"                  .XXXXX.               ",
"                 ..XXXX..               ",
"                 .XXXXX.                ",
"                 .XXXXX.                ",
"                 .XXXXX.                ",
"                ..XXXXX.                ",
"                .XXXXX..                ",
"                .XXXXX.                 ",
"                .XXXXX.                 ",
"                .XXXXX.                 ",
"                .......                 ",
"                                        ",
"                                        ",
"                                        ",
"                                        ",
"                                        ",
"                                        ",
"                                        "};
