/* XPM */
static const char * slot_sm_triple7_xpm[] = {
"20 20 3 1",
" 	c #FFFFFFFFFFFF",
".	c #000000000000",
"X	c #FFFF14514103",
"                    ",
"                    ",
"                    ",
"                    ",
"      ........      ",
"      .XXXXXX.      ",
"      .XXXXXX.      ",
"      .X...XX.      ",
"      .....X..      ",
"  .....  .XX......  ",
"  .XXX.  .X...XXX.  ",
"  ...X. ..X. ...X.  ",
"   ..X. .XX.  ..X.  ",
"   .X....X..  .X..  ",
"   .X. .XX.   .X.   ",
"   ... ....   ...   ",
"                    ",
"                    ",
"                    ",
"                    "};
