/* XPM */
static const char * slot_sm_y_xpm[] = {
"20 20 3 1",
" 	c #FFFFFFFFFFFF",
".	c #FFFF14514103",
"X	c #51445144FFFF",
"                    ",
"                    ",
"                    ",
"   ..............   ",
"   .            .   ",
"   . XXXXX  XXX .   ",
"   .  XXX    X  .   ",
"   ..  XX   X  ..   ",
"    .. XXX  X ..    ",
"     .  XX X  .     ",
"     .. XXXX ..     ",
"      .  XX  .      ",
"      .. XX ..      ",
"      .  XX  .      ",
"      . XXXX .      ",
"      .      .      ",
"      ........      ",
"                    ",
"                    ",
"                    "};
