/* XPM */
static const char * slot_2_xpm[] = {
"40 40 3 1",
" 	c #FFFFFFFFFFFF",
".	c #FFFF14514103",
"X	c #51445144FFFF",
"                                        ",
"                                        ",
"                                        ",
"                                        ",
"                                        ",
"                                        ",
"                                        ",
"                                        ",
"                 ........               ",
"                ..      ..              ",
"               ..  XXXX  ..             ",
"              ..  XXXXXX  .             ",
"              .  XXXXXXXX .             ",
"              . XX   XXXX .             ",
"              . X  .  XXX .             ",
"              .   ... XXX .             ",
"              ....... XXX .             ",
"                   .  XX  .             ",
"                  .. XXX ..             ",
"                  .  XX  .              ",
"                 .. XX  ....            ",
"                ..  XX .   .            ",
"               ..  XX  . X .            ",
"              ..  XX     X .            ",
"              .  XXXXXXXXX .            ",
"              . XXXXXXXXXX .            ",
"              . XXXXXXXXX  .            ",
"              .           ..            ",
"              .............             ",
"                                        ",
"                                        ",
"                                        ",
"                                        ",
"                                        ",
"                                        ",
"                                        ",
"                                        ",
"                                        ",
"                                        ",
"                                        "};
