/* XPM */
static const char * slot_i_xpm[] = {
"40 40 3 1",
" 	c #FFFFFFFFFFFF",
".	c #FFFF14514103",
"X	c #51445144FFFF",
"                                        ",
"                                        ",
"                                        ",
"                                        ",
"                                        ",
"                                        ",
"                                        ",
"                                        ",
"               ...........              ",
"               .         .              ",
"               . XXXXXXX .              ",
"               .   XXX   .              ",
"               ... XXX ...              ",
"                 . XXX .                ",
"                 . XXX .                ",
"                 . XXX .                ",
"                 . XXX .                ",
"                 . XXX .                ",
"                 . XXX .                ",
"                 . XXX .                ",
"                 . XXX .                ",
"                 . XXX .                ",
"                 . XXX .                ",
"                 . XXX .                ",
"               ... XXX ...              ",
"               .   XXX   .              ",
"               . XXXXXXX .              ",
"               .         .              ",
"               ...........              ",
"                                        ",
"                                        ",
"                                        ",
"                                        ",
"                                        ",
"                                        ",
"                                        ",
"                                        ",
"                                        ",
"                                        ",
"                                        "};
