/* XPM */
static const char * slot_8_xpm[] = {
"40 40 3 1",
" 	c #FFFFFFFFFFFF",
".	c #FFFF14514103",
"X	c #51445144FFFF",
"                                        ",
"                                        ",
"                                        ",
"                                        ",
"                                        ",
"                                        ",
"                                        ",
"                                        ",
"                .........               ",
"               ..       ..              ",
"              ..  XXXXX  ..             ",
"              .  XXX XXX  .             ",
"              . XXX   XXX .             ",
"              . XXX . XXX .             ",
"              . XXX   XXX .             ",
"              . XXXX  XX  .             ",
"              . XXXXXXX  ..             ",
"              .  XXXXXX  ..             ",
"              .   XXXXXX  ..            ",
"             .. XXX XXXXX  .            ",
"             .  XX   XXXXX .            ",
"             . XXX .  XXXX .            ",
"             . XXX ..  XXX .            ",
"             . XXX ... XXX .            ",
"             . XXX  .  XX  .            ",
"             .  XXX   XXX ..            ",
"             ..   XXXXX   .             ",
"              ...       ...             ",
"                .........               ",
"                                        ",
"                                        ",
"                                        ",
"                                        ",
"                                        ",
"                                        ",
"                                        ",
"                                        ",
"                                        ",
"                                        ",
"                                        "};
