/* XPM */
static const char * slot_sm_boat2_xpm[] = {
"20 20 6 1",
" 	c #FFFFFFFFFFFF",
".	c #B6DAB2CAB6DA",
"X	c #000000000000",
"o	c #CF3CCF3CCF3C",
"O	c #0000E79DE79D",
"+	c #51445144FFFF",
"            .X.     ",
"           .oX.     ",
"          .ooX..    ",
"         .oooX..    ",
"        .ooooX. .   ",
"       .oooooX ..   ",
"      .ooooooX .o.  ",
"     .oooooooX .o.  ",
"    .ooooooooX .o.  ",
"   .oooooooooX .oo. ",
"   XXXXXXXXXXX .oo. ",
"       ......X  .. .",
"      .OOOOOO..   ..",
"      .OOO..........",
" .........++++++++. ",
" .++++++++ooooooo.  ",
" .+oo+oo+oo+oo+oo+  ",
"++ ++ ++ ++ ++ ++ ++",
"                    ",
"                    "};
