/* XPM */
static const char * slot_y_xpm[] = {
"40 40 3 1",
" 	c #FFFFFFFFFFFF",
".	c #FFFF14514103",
"X	c #51445144FFFF",
"                                        ",
"                                        ",
"                                        ",
"                                        ",
"                                        ",
"                                        ",
"                                        ",
"                                        ",
"                                        ",
"          .....................         ",
"          .                   .         ",
"          . XXXXXXXX  XXXXXXX .         ",
"          .   XXXX      XXXX  .         ",
"          ... XXXX  ... XX    .         ",
"            .  XXXX ..  XX ....         ",
"            ..  XXX  . XX  .            ",
"             .. XXXX   XX ..            ",
"              .  XXX  XX  .             ",
"              ..  XXX X  ..             ",
"               .. XXXXX ..              ",
"                .  XXX  .               ",
"                .. XXX ..               ",
"                 . XXX .                ",
"                 . XXX .                ",
"                 . XXX .                ",
"               ... XXX ...              ",
"               .   XXX   .              ",
"               . XXXXXXX .              ",
"               .         .              ",
"               ...........              ",
"                                        ",
"                                        ",
"                                        ",
"                                        ",
"                                        ",
"                                        ",
"                                        ",
"                                        ",
"                                        ",
"                                        "};
