/* XPM */
static const char * slot_sm_chip1_xpm[] = {
"20 20 3 1",
" 	c #FFFFFFFFFFFF",
".	c #B6DAB2CAB6DA",
"X	c #EFBEF3CEEFBE",
"       ......       ",
"     ..XXXXXX..     ",
"    .XXXXXXXXXX.    ",
"   .XXXXXXXXXXXX.   ",
"  .X...X...X...XX.  ",
" .XX.X.X.XXX.XXXXX. ",
" .XX...X.XXX...XXX. ",
".XXX..XX.XXXXX.XXXX.",
".XXX.X.X...X...XXXX.",
".XXXXXXXXXXXXXXXXXX.",
".XXXXXX.XXX.XXXXXXX.",
".XXXXX...X..XXXXXXX.",
".XXXXX.XXXX.XXXXXXX.",
" .XXXX...XX.XXXXXX. ",
" .XXXXXX.XX.XXXXXX. ",
"  .XXX...XX.XXXXX.  ",
"   .XXX.XX...XXX.   ",
"    .XXXXXXXXXX.    ",
"     ..XXXXXX..     ",
"       ......       "};
