/* XPM */
static const char * slot_10_xpm[] = {
"40 40 3 1",
" 	c #FFFFFFFFFFFF",
".	c #FFFF14514103",
"X	c #51445144FFFF",
"                                        ",
"                                        ",
"                                        ",
"                                        ",
"                                        ",
"                                        ",
"                                        ",
"                                        ",
"           ......    .......            ",
"         ...    .  ...     ...          ",
"       ...   XX .  .   XXX   .          ",
"       .   XXXX . .. XXX XXX ..         ",
"       . XXXXXX . .  XX   XX  .         ",
"       .    XXX ... XXX . XXX ..        ",
"       .... XXX ..  XXX . XXX  .        ",
"          . XXX .. XXXX . XXXX .        ",
"          . XXX .. XXXX . XXXX .        ",
"          . XXX .. XXXX . XXXX .        ",
"          . XXX .. XXXX . XXXX .        ",
"          . XXX .. XXXX . XXXX .        ",
"          . XXX .. XXXX . XXXX .        ",
"          . XXX ..  XXX . XXX  .        ",
"          . XXX ... XXX . XXX ..        ",
"         .. XXX ... XXX . XXX .         ",
"       ...  XXX  ..  XX   XX  .         ",
"       .   XXXXX   . XXX XXX ..         ",
"       . XXXXXXXXX .   XXX   .          ",
"       .           ...     ...          ",
"       ............. .......            ",
"                                        ",
"                                        ",
"                                        ",
"                                        ",
"                                        ",
"                                        ",
"                                        ",
"                                        ",
"                                        ",
"                                        ",
"                                        "};
