/* XPM */
static const char * slot_car2_xpm[] = {
"40 40 5 1",
" 	c #FFFFFFFFFFFF",
".	c #BEFB00000820",
"X	c #0000E79DE79D",
"o	c #FFFF14514103",
"O	c #000000000000",
"                                        ",
"                                        ",
"                                        ",
"                                        ",
"                                        ",
"                                        ",
"                                        ",
"                                        ",
"                                        ",
"                                        ",
"                                        ",
"                                        ",
"                                        ",
"             ....     XX                ",
"          ...ooo.     XXX               ",
"       ...oooOoO.     XXXX              ",
"    ...ooooOoOoO.     XXXXX             ",
" ...oooo..................XX            ",
" ........ooooooooooooooooo........      ",
" .oooooooOOooo......oooo...OO..oo...    ",
" .oooooOOOOOOo...ooooooo.OOOOOO.oooo..  ",
" .oooooOOOOOOoooooooooo..OOOOOO..ooooo. ",
"  ...oOOO  OOOooooooooo.OOO  OOO.ooooo. ",
"     .OOO  OOO..........OOO  OOO......  ",
"       OOOOOO            OOOOOO         ",
"       OOOOOO            OOOOOO         ",
"         OO                OO           ",
"                                        ",
"                                        ",
"                                        ",
"                                        ",
"                                        ",
"                                        ",
"                                        ",
"                                        ",
"                                        ",
"                                        ",
"                                        ",
"                                        ",
"                                        "};
