/* XPM */
static const char * slot_sm_5x_xpm[] = {
"20 20 4 1",
" 	c #FFFFFFFFFFFF",
".	c #51445144FFFF",
"X	c #FFFFFFFF0000",
"o	c #FFFF14514103",
"       ......       ",
"     ..XXXXXX..     ",
"    .XXXXXXXXXX.    ",
"   .XXXXXXXXXXXX.   ",
"  .XXXXXXXXXXXXXX.  ",
" .XXoooXXoooXXoooX. ",
" .XoXXXXXXoXXXXoXX. ",
".XXoXXXXXXXoXXoXXXX.",
".XXoooXXXXXoooXXXXX.",
".XXXXooXXXXXooXXXXX.",
".XXXXXoXXXXoXooXXXX.",
".XXXXXoXXXXoXXoXXXX.",
".XoXXooXXXoXXXXoXXX.",
" .XoooXXXoooXXoooX. ",
" .XXXXXXXXXXXXXXXX. ",
"  .XXXXXXXXXXXXXX.  ",
"   .XXXXXXXXXXXX.   ",
"    .XXXXXXXXXX.    ",
"     ..XXXXXX..     ",
"       ......       "};
