/* XPM */
static const char * slot_sm_boat1_xpm[] = {
"20 20 7 1",
" 	c #FFFFFFFFFFFF",
".	c #B6DAB2CAB6DA",
"X	c #000000000000",
"o	c #CF3CCF3CCF3C",
"O	c #FFFF69A630C2",
"+	c #AEBA51440000",
"@	c #51445144FFFF",
"             .X     ",
"            .oX     ",
"           .ooX     ",
"          .oooX     ",
"         .ooooX     ",
"        .oooooX     ",
"        .oooooX     ",
"       .ooooooX     ",
"      .oooooooX     ",
"     .ooooooooX     ",
"    .oooooooooX     ",
"    XXXXXXXXXXX     ",
"              X     ",
"   OOOOOOOOOOOOOO   ",
"   O+++++++++++O    ",
"    O++++++++++O    ",
"  @  @++@++@++@  @  ",
"@@ @@ @@ @@ @@ @@ @@",
"                    ",
"                    "};
