/* XPM */
static const char * slot_0_xpm[] = {
"40 40 3 1",
" 	c #FFFFFFFFFFFF",
".	c #FFFF14514103",
"X	c #51445144FFFF",
"                                        ",
"                                        ",
"                                        ",
"                                        ",
"                                        ",
"                                        ",
"                                        ",
"                                        ",
"                                        ",
"                 .......                ",
"               ...     ...              ",
"               .   XXX   .              ",
"              .. XXX XXX ..             ",
"              .  XX   XX  .             ",
"             .. XXX . XXX ..            ",
"             .  XXX . XXX  .            ",
"             . XXXX . XXXX .            ",
"             . XXXX . XXXX .            ",
"             . XXXX . XXXX .            ",
"             . XXXX . XXXX .            ",
"             . XXXX . XXXX .            ",
"             . XXXX . XXXX .            ",
"             .  XXX . XXX  .            ",
"             .. XXX . XXX ..            ",
"              . XXX . XXX .             ",
"              .  XX   XX  .             ",
"              .. XXX XXX ..             ",
"               .   XXX   .              ",
"               ...     ...              ",
"                 .......                ",
"                                        ",
"                                        ",
"                                        ",
"                                        ",
"                                        ",
"                                        ",
"                                        ",
"                                        ",
"                                        ",
"                                        "};
