/* XPM */
static const char * slot_3_xpm[] = {
"40 40 3 1",
" 	c #FFFFFFFFFFFF",
".	c #FFFF14514103",
"X	c #51445144FFFF",
"                                        ",
"                                        ",
"                                        ",
"                                        ",
"                                        ",
"                                        ",
"                                        ",
"                                        ",
"                 ........               ",
"               ...      ..              ",
"              ..   XXXX  ..             ",
"             ..  XXXXXXX  .             ",
"             .  XX   XXXX .             ",
"             . XX  .  XXX .             ",
"             .    ... XXX .             ",
"             .......  XX  .             ",
"                .    XXX ..             ",
"                . XXXXX   ..            ",
"                . XXXXXXX  .            ",
"                .    XXXXX .            ",
"                ....  XXXX .            ",
"              .......  XXX .            ",
"             ..    ... XXX .            ",
"             .  XX  .  XXX .            ",
"             . XXXX   XXX  .            ",
"             . XXXXX XXX  ..            ",
"             .  XXXXXX   ..             ",
"             ..        ...              ",
"              ..........                ",
"                                        ",
"                                        ",
"                                        ",
"                                        ",
"                                        ",
"                                        ",
"                                        ",
"                                        ",
"                                        ",
"                                        ",
"                                        "};
