/* XPM */
static const char * slot_dbar_xpm[] = {
"40 40 2 1",
" 	c #FFFFFFFFFFFF",
".	c #000000000000",
"                                        ",
"                                        ",
"                                        ",
"                                        ",
"                                        ",
"    ................................    ",
"    ................................    ",
"    ................................    ",
"    .....     .... ....     ........    ",
"    ......  .  ...  ....  .  .......    ",
"    ......  .  ..   ....  .  .......    ",
"    ......    ... .  ...    ........    ",
"    ......  .  .     ...  . ........    ",
"    ......  .  . ..   ..  .  .......    ",
"    .....     .   .       .   ......    ",
"    ................................    ",
"    ................................    ",
"    ................................    ",
"                                        ",
"                                        ",
"    ................................    ",
"    ................................    ",
"    ................................    ",
"    .....     .... ....     ........    ",
"    ......  .  ...  ....  .  .......    ",
"    ......  .  ..   ....  .  .......    ",
"    ......    ... .  ...    ........    ",
"    ......  .  .     ...  . ........    ",
"    ......  .  . ..   ..  .  .......    ",
"    .....     .   .       .   ......    ",
"    ................................    ",
"    ................................    ",
"    ................................    ",
"                                        ",
"                                        ",
"                                        ",
"                                        ",
"                                        ",
"                                        ",
"                                        "};
