/* XPM */
static const char * slot_s_xpm[] = {
"40 40 3 1",
" 	c #FFFFFFFFFFFF",
".	c #FFFF14514103",
"X	c #51445144FFFF",
"                                        ",
"                                        ",
"                                        ",
"                                        ",
"                                        ",
"                                        ",
"                                        ",
"                                        ",
"               ............             ",
"              ..          .             ",
"             ..  XXXXXX X .             ",
"             .  XXX   XXX .             ",
"             . XXX  .  XX .             ",
"             . XXX ...  X .             ",
"             . XXX  ... X .             ",
"             . XXXX   .   .             ",
"             . XXXXXX   ...             ",
"             .  XXXXXXX   .             ",
"             ..   XXXXXXX ..            ",
"             ....  XXXXXX  .            ",
"             .   .   XXXXX .            ",
"             . X ...  XXXX .            ",
"             . X  ...  XXX .            ",
"             . XX  ... XXX .            ",
"             . XXX  .  XX  .            ",
"             . XXXX   XXX ..            ",
"             . X XXXXXXX  .             ",
"             .           ..             ",
"             .............              ",
"                                        ",
"                                        ",
"                                        ",
"                                        ",
"                                        ",
"                                        ",
"                                        ",
"                                        ",
"                                        ",
"                                        ",
"                                        "};
