/* XPM */
static const char * slot_sm_10x_xpm[] = {
"20 20 4 1",
" 	c #FFFFFFFFFFFF",
".	c #51445144FFFF",
"X	c #FFFFFFFF0000",
"o	c #FFFF14514103",
"       ......       ",
"     ..XXXXXX..     ",
"    .XXXXXXXXXX.    ",
"   .XXXXXXXXXXXX.   ",
"  .XXXXXXXXXXXXXX.  ",
" .XoXXooXXoooXXooo. ",
" .XoXoXXoXXoXXXXoX. ",
".XXoXoXXoXXXoXXoXXX.",
".XXoXoXXoXXXoooXXXX.",
".XXoXoXXoXXXXooXXXX.",
".XXoXoXXoXXXoXooXXX.",
".XXoXoXXoXXXoXXoXXX.",
".XXoXoXXoXXoXXXXoXX.",
" .XoXXooXXoooXXooo. ",
" .XXXXXXXXXXXXXXXX. ",
"  .XXXXXXXXXXXXXX.  ",
"   .XXXXXXXXXXXX.   ",
"    .XXXXXXXXXX.    ",
"     ..XXXXXX..     ",
"       ......       "};
