/* XPM */
static const char * slot_sm_chip1k_xpm[] = {
"20 20 5 1",
" 	c #FFFFFFFFFFFF",
".	c #B6DAB2CAB6DA",
"X	c #000000000000",
"o	c #0000E79DE79D",
"O	c #FFFFFFFF0000",
"       ......       ",
"     ..XXXXXX..     ",
"    .ooXXXXXXoo.    ",
"   .ooooXXXXoooo.   ",
"  .oooooooooooooo.  ",
" .ooooXXOOOOXXoooo. ",
" .oooXOOOOOOOOXooo. ",
".XXooXOOXOXOXOXooXX.",
".XXXoOOOXOXOXOOoXXX.",
".XXXoOOOXOXXOOOoXXX.",
".XXXoOOOXOXOXOOoXXX.",
".XXXoOOOXOXOXOOoXXX.",
".XXooXOOXOXOXOXooXX.",
" .oooXOOOOOOOOXooo. ",
" .ooooXXOOOOXXoooo. ",
"  .oooooooooooooo.  ",
"   .ooooXXXXoooo.   ",
"    .ooXXXXXXoo.    ",
"     ..XXXXXX..     ",
"       ......       "};
