/* XPM */
static const char * slot_sm_chip5_xpm[] = {
"20 20 5 1",
" 	c #FFFFFFFFFFFF",
".	c #B6DAB2CAB6DA",
"X	c #000000000000",
"o	c #FFFF14514103",
"O	c #FFFFFFFF0000",
"       ......       ",
"     ..XXXXXX..     ",
"    .ooXXXXXXoo.    ",
"   .ooooXXXXoooo.   ",
"  .oooooooooooooo.  ",
" .ooooXXOOOOXXoooo. ",
" .oooXOOOOOOOOXooo. ",
".XXooXOOXXXXOOXooXX.",
".XXXoOOOXOOOOOOoXXX.",
".XXXoOOOXXXOOOOoXXX.",
".XXXoOOOOOOXOOOoXXX.",
".XXXoOOOXOOXOOOoXXX.",
".XXooXOOOXXOOOXooXX.",
" .oooXOOOOOOOOXooo. ",
" .ooooXXOOOOXXoooo. ",
"  .oooooooooooooo.  ",
"   .ooooXXXXoooo.   ",
"    .ooXXXXXXoo.    ",
"     ..XXXXXX..     ",
"       ......       "};
