/* XPM */
static const char * slot_dollar_xpm[] = {
"40 40 4 1",
" 	c #FFFFFFFFFFFF",
".	c #FFFF14514103",
"X	c #51445144FFFF",
"o	c #38E3FBEE30C2",
"                                        ",
"                                        ",
"                                        ",
"                                        ",
"                                        ",
"                                        ",
"                                        ",
"                  .....                 ",
"                  .XXX.                 ",
"                ...XoX....              ",
"               ..XXXoXXXX..             ",
"              ..XXooooooXX.             ",
"              .XXooXoXoooX.             ",
"              .XooXXoXXooX.             ",
"              .XoooXoXXooX.             ",
"              .XoooooXXXoX.             ",
"              .XooooooXXXX.             ",
"              .XXooooooXX..             ",
"              ..XXooooooXX..            ",
"               ..XXooooooXX.            ",
"              ....XXooooooX.            ",
"              .XXX.XoXooooX.            ",
"              .XoXXXoXXoooX.            ",
"              .XooXXoXXoooX.            ",
"              .XooXXoXXoooX.            ",
"              .XoooXoXoooXX.            ",
"              .XXXoooooXXX..            ",
"              ...XXXoXXX...             ",
"                ...XoX...               ",
"                  .XXX.                 ",
"                  .....                 ",
"                                        ",
"                                        ",
"                                        ",
"                                        ",
"                                        ",
"                                        ",
"                                        ",
"                                        ",
"                                        "};
