/* XPM */
static const char * slot_sm_car2_xpm[] = {
"20 20 5 1",
" 	c #FFFFFFFFFFFF",
".	c #FFFF14514103",
"X	c #0000E79DE79D",
"o	c #000000000000",
"O	c #C71B04100820",
"                    ",
"                    ",
"                    ",
"                    ",
"                    ",
"                    ",
"                    ",
"     ...   X        ",
"  ......   XXX      ",
"................    ",
".....oo.OOO..oo...  ",
"....oooo....oooo....",
"  ..oooo....oooo....",
"     oo      oo     ",
"                    ",
"                    ",
"                    ",
"                    ",
"                    ",
"                    "};
