/* XPM */
static const char * slot_sm_star_red_xpm[] = {
"20 20 3 1",
" 	c #FFFFFFFFFFFF",
".	c #000000000000",
"X	c #FFFF14514103",
"                    ",
"         ..         ",
"         ..         ",
"         ..         ",
"        .XX.        ",
"        .XX.        ",
"        .XX.        ",
" .......XXXX....... ",
"  .XXXXXXXXXXXXXX.  ",
"   .XXXXXXXXXXXX.   ",
"    ..XXXXXXXX..    ",
"      .XXXXXX.      ",
"      .XXXXXX.      ",
"      .XXXXXX.      ",
"      .XX..XX.      ",
"      .X.  .X.      ",
"     .X.    .X.     ",
"     ..      ..     ",
"     .        .     ",
"                    "};
