/* XPM */
static const char * slot_sm_chip100_xpm[] = {
"20 20 4 1",
" 	c #FFFFFFFFFFFF",
".	c #B6DAB2CAB6DA",
"X	c #000000000000",
"o	c #FFFFFFFF0000",
"       ......       ",
"     ..XXXXXX..     ",
"    .  XXXXXX  .    ",
"   .    XXXX    .   ",
"  .              .  ",
" .    XXooooXX    . ",
" .   XooooooooX   . ",
".XX  XooooooooX  XX.",
".XXX oXooXoooXo XXX.",
".XXX oXoXoXoXoX XXX.",
".XXX oXoXoXoXoX XXX.",
".XXX oXooXoooXo XXX.",
".XX  XooooooooX  XX.",
" .   XooooooooX   . ",
" .    XXooooXX    . ",
"  .              .  ",
"   .    XXXX    .   ",
"    .  XXXXXX  .    ",
"     ..XXXXXX..     ",
"       ......       "};
