/* XPM */
static const char * slot_bell_xpm[] = {
"40 40 3 1",
" 	c #FFFFFFFFFFFF",
".	c #FFFF69A630C2",
"X	c #FFFFFFFF0000",
"                                        ",
"                  .....                 ",
"               ....XXX...               ",
"               .XXXXXXXX.               ",
"              ..XXX.XXXX..              ",
"              .XX...XXXXX.              ",
"             ..X..XXXXXXX..             ",
"             .XX.XXXXXXXXX.             ",
"             .XX.XXXXXXXXX.             ",
"             .X..XXXXXXXXX.             ",
"            ..X.XXXXXXXXXX..            ",
"            .XX.XXXXXXXXXXX.            ",
"            .X..XXXXXXXXXXX.            ",
"           ..X.XXXXXXXXXXXX..           ",
"           .XX.XXXXXXXXXXXXX.           ",
"          ..X..XXXXXXXXXXXXX..          ",
"        ...XX.XXXXXXXXXXXXXXX...        ",
"       ..XXX..XXXXXXXXXXXXXXXXX..       ",
"      ..XXX..XXXXXXXXXXXXXXXXXXX..      ",
"    ...XXX..XXXXXXXXXXXXXXXXXXXXX...    ",
"   ..XXX...XXXXXXXXXXXXXXXXXXXXXXXX..   ",
"   .XXX..XXXXXXXXXXXXXXXXXXXXXXXXXXX.   ",
"  ..XX..XXXXXXXXXXXXXXXXXXXXXXXXXXXX..  ",
"  .XX..XXXXXXXXXXXXXXXXXXXXXXXXXXXXXX.  ",
" ..XX.XXXXXXXXXXXXXXXXXXXXXXXXXXXXXXX.. ",
" .XXXXXXXXXXXXXXXXXXXXXXXXXXXXXXXXXXXX. ",
" .XXXXXXXXXXXXXXXXXXXXXXXXXXXXXXXXXXXX. ",
" .XXXXXXXXXXXXXXXXXXXXXXXXXXXXXXXXXXXX. ",
" .XXXX.....XXXXXXXXXXXXXXXXXXXXXXXXXXX. ",
"  .XXXXXXXX.............XXXXXXXXXXXXX.  ",
"   ...XXXXXXXXXXXXXXXXXXXXXXXXXXXX...   ",
"      .....XXXXXXXXXXXXXXXXXX.....      ",
"           ..................           ",
"                   .X.                  ",
"                   .X.                  ",
"                   .X.                  ",
"                  .XXX.                 ",
"                  .XXX.                 ",
"                  .XXX.                 ",
"                   ...                  "};
