/* XPM */
static const char * slot_sm_cherry_xpm[] = {
"20 20 4 1",
" 	c #FFFFFFFFFFFF",
".	c #38E3FBEE30C2",
"X	c #A69951440820",
"o	c #FFFF14514103",
"                    ",
"       .........XX  ",
"        ... XXXXX.  ",
"     oooo XXX  XX.  ",
"    oooooXX   XXX.  ",
"   oooooooo  X X .  ",
"   oooooooo XXXX .  ",
"   ooooooooXX X ..  ",
"   oooooooXX  X ..  ",
"    ooooooX   X  .  ",
"     ooooXX  oXoo   ",
"         X  oooooo  ",
"    ooooX  oooooooo ",
"   oooooo  oooooooo ",
"  oooooooo oooooooo ",
"  oooooooo oooooooo ",
"  oooooooo  oooooo  ",
"  oooooooo   oooo   ",
"   oooooo           ",
"    oooo            "};
