/* XPM */
static const char * slot_sm_float_xpm[] = {
"20 20 6 1",
" 	c #FFFFFFFFFFFF",
".	c #FFFFFFFF0000",
"X	c #000000000000",
"o	c #FFFF69A630C2",
"O	c #FFFF14514103",
"+	c #51445144FFFF",
"         ..         ",
"       XooooX       ",
"       XoOOoX       ",
"       XooooX       ",
"      X X  X X      ",
"      X X  X X      ",
"      X X  X X      ",
"      X X  X X      ",
"      X X  X X      ",
"     X  X  X  X     ",
"     X  X  X  X     ",
"     X  X  X  X     ",
"     oooooooooo     ",
"     oOOOOOOOOo     ",
"     oOOOOOOOOo     ",
"     oOoooooooo     ",
"  +  +oo+oo+oo+  +  ",
"++ ++ ++ ++ ++ ++ ++",
"                    ",
"                    "};
