/* XPM */
static const char * slot_sm_car1_xpm[] = {
"20 20 5 1",
" 	c #FFFFFFFFFFFF",
".	c #000000000000",
"X	c #0000E79DE79D",
"o	c #B6DAB2CAB6DA",
"O	c #CF3CCF3CCF3C",
"                    ",
"                    ",
"                    ",
"                    ",
"                    ",
"                    ",
"      .    X        ",
"    . ..   XX       ",
"    . ..   XXX      ",
" ooooooooooooooo    ",
"oOOOOOOOOOOOOOooooo ",
"oOOOO..OOOOOO..OOOoo",
"ooOO....OOOO....OOOo",
"  oo....oooo....ooo ",
"     ..      ..     ",
"                    ",
"                    ",
"                    ",
"                    ",
"                    "};
