/* XPM */
static const char * slot_sm_horseshoe_xpm[] = {
"20 20 4 1",
" 	c #FFFFFFFFFFFF",
".	c #B6DAB2CAB6DA",
"X	c #CF3CCF3CCF3C",
"o	c #000000000000",
"                    ",
"        ....        ",
"      ..XooX..      ",
"     .oX....Xo.     ",
"    .o..    .Xo.    ",
"   .X.       ..X.   ",
"   .X.        .X.   ",
"  .o.          .o.  ",
"  .o.          .o.  ",
"  .X.          .X.  ",
"  .X.          .X.  ",
"   .o.        .o.   ",
"   .o.        .o.   ",
"   .X.        .X.   ",
"    .X.      .X.    ",
"    .X.      .X.    ",
"    .o.      .o.    ",
"    .o.      .o.    ",
"   ..X.      .X..   ",
"   ..X.      .X..   "};
