/* XPM */
static const char * slot_chip5_xpm[] = {
"40 40 5 1",
" 	c #FFFFFFFFFFFF",
".	c #B6DAB2CAB6DA",
"X	c #000000000000",
"o	c #FFFF14514103",
"O	c #FFFFFFFF0000",
"               ..........               ",
"            ...XXXXXXXXXX...            ",
"          ..oooXXXXXXXXXXooo..          ",
"         .oooooXXXXXXXXXXooooo.         ",
"       ..oooooooXXXXXXXXooooooo..       ",
"      .oooooooooXXXXXXXXooooooooo.      ",
"     .ooooooooooXXXXXXXXoooooooooo.     ",
"    .ooooooooo  XooooooX  ooooooooo.    ",
"   .ooooooooo XXX      XXX ooooooooo.   ",
"   .oooooooo o    OOOO    o oooooooo.   ",
"  .oooooooo o  OOOOOOOOOO  o oooooooo.  ",
"  .ooooooo o  OOOOOOOOOOOO  o ooooooo.  ",
" .ooooooo o  OOOOOOOOOOOOOO  o ooooooo. ",
" .oooooo X  OOOOOOOOOOOOOOOO  X oooooo. ",
" .oooooo X OOOOOOOXXXXXOOOOOO X oooooo. ",
".XXXoooo X OOOOOOOXXXOOOOOOOO X oooXXXX.",
".XXXXXXXo  OOOOOOXXOOOOOOOOOO  oXXXXXXX.",
".XXXXXXXo OOOOOOOXXXXOOOOOOOOO oXXXXXXX.",
".XXXXXXXo OOOOOOOOXXXXOOOOOOOO oXXXXXXX.",
".XXXXXXXo OOOOOOOOOOXXOOOOOOOO oXXXXXXX.",
".XXXXXXXo OOOOOOOXOOXXOOOOOOOO oXXXXXXX.",
".XXXXXXXo  OOOOOOXXOXXOOOOOOO  oXXXXXXX.",
".XXXoooo X OOOOOOXXXXOOOOOOOO X oooXXXX.",
" .oooooo X OOOOOOOOOOOOOOOOOO X oooooo. ",
" .oooooo X  OOOOOOOOOOOOOOOO  X oooooo. ",
" .ooooooo o   OOOOOOOOOOOOO  o ooooooo. ",
"  .ooooooo o  OOOOOOOOOOOO  o ooooooo.  ",
"  .oooooooo o  OOOOOOOOOO  o oooooooo.  ",
"   .oooooooo o    OOOO    o oooooooo.   ",
"   .ooooooooo XXX      XXX ooooooooo.   ",
"    .ooooooooo  XooooooX  ooooooooo.    ",
"     .ooooooooooXXXXXXXXoooooooooo.     ",
"      .oooooooooXXXXXXXXooooooooo.      ",
"       ..ooooooXXXXXXXXXXoooooo..       ",
"         .oooooXXXXXXXXXXooooo.         ",
"          ..oooXXXXXXXXXXooo..          ",
"            ...XXXXXXXXXX...            ",
"               ..........               ",
"                                        ",
"                                        "};
