/* XPM */
static const char * slot_sm_orange_xpm[] = {
"20 20 3 1",
" 	c #FFFFFFFFFFFF",
".	c #FFFF69A630C2",
"X	c #FFFFFFFF0000",
"                    ",
"                    ",
"       ......       ",
"      ........      ",
"    ............    ",
"   .......X....X.   ",
"   ..X...........   ",
"  X...............  ",
"  .X.......X......  ",
"  .X..X...........  ",
"  .X..............  ",
"  .X...........X..  ",
"  X.....X.........  ",
"   ..............   ",
"   ..............   ",
"    ....X..X....    ",
"      ........      ",
"       ......       ",
"                    ",
"                    "};
