/* XPM */
static const char * slot_sm_w_xpm[] = {
"20 20 3 1",
" 	c #FFFFFFFFFFFF",
".	c #FFFF14514103",
"X	c #51445144FFFF",
"                    ",
"                    ",
"                    ",
"................... ",
".                 . ",
". XXXX XXXX  XXXX . ",
".  XX   XX    XX  . ",
".. XX   XX  . X  .. ",
" .  XX   XX   X ..  ",
" .. XX   XX  X  .   ",
"  . XX  XXX  X ..   ",
"  .  XX X XX X .    ",
"  .. XXX  XXX  .    ",
"   .  XX   XX ..    ",
"   .. XX . XX .     ",
"    .    .    .     ",
"    ...........     ",
"                    ",
"                    ",
"                    "};
