/* XPM */
static const char * slot_sm_jackpot_xpm[] = {
"20 20 3 1",
" 	c #FFFFFFFFFFFF",
".	c #FFFF14514103",
"X	c #FFFFFFFF0000",
"       ......       ",
"     ..XXXXXX..     ",
"    .XXXXXXXXXX.    ",
"   .XXXXXXXXXXXX.   ",
"  .X.XX..XXX..X.X.  ",
" .XX.X.XX.X.XXX.X.. ",
" .XX.X....X.XXX..X. ",
".X.X.X.XX.X.XXX.X.X.",
".X...X.XX.XX..X.X.X.",
".XXXXXXXXXXXXXXXXXX.",
".XXX...X....X...XXX.",
".XXX.X.X.XX.XX.XXXX.",
".XXX...X.XX.XX.XXXX.",
" .XX.XXX.XX.XX.XXX. ",
" .XX.XXX....XX.XXX. ",
"  .XXXXXXXXXXXXXX.  ",
"   .XXXXXXXXXXXX.   ",
"    .XXXXXXXXXX.    ",
"     ..XXXXXX..     ",
"       ......       "};
