/* XPM */
static const char * slot_sm_dollar_xpm[] = {
"20 20 4 1",
" 	c #FFFFFFFFFFFF",
".	c #FFFF14514103",
"X	c #51445144FFFF",
"o	c #38E3FBEE30C2",
"                    ",
"                    ",
"        .....       ",
"       ..XXX...     ",
"      ..XXoXXX.     ",
"      .XXooooX.     ",
"      .XoXoXoX.     ",
"      .XoXoXXX.     ",
"      .XoXoXX..     ",
"      .XXoooX..     ",
"      ..XXoXoX.     ",
"      ...XoXoX.     ",
"      .XXXoXoX.     ",
"      .XoXoXoX.     ",
"      .XooooXX.     ",
"      .XXXoXX..     ",
"      ...XXX..      ",
"        .....       ",
"                    ",
"                    "};
