/* XPM */
static const char * slot_chip1_xpm[] = {
"40 40 3 1",
" 	c #FFFFFFFFFFFF",
".	c #B6DAB2CAB6DA",
"X	c #DF7DDF7DDF7D",
"               ..........               ",
"            ...XXXXXXXXXX...            ",
"          ..XXXXXXXXXXXXXXXX..          ",
"         .XXXXXXXXXXXXXXXXXXXX.         ",
"       ..XXXXXXXXXXXXXXXXXXXXXX..       ",
"      .XXXXXXXXXXXXXXXXXXXXXXXXXX.      ",
"     .XXX......XXXXX...X.XX.....XX.     ",
"    .XXXXX..XX..XXX..XX..X..XX..XXX.    ",
"   .XXXXXX..XX..XX..XXXX.X..XXX.XXXX.   ",
"   .XXXXXX..XX..XX..XXXXXX...XXXXXXX.   ",
"  .XXXXXXX.....XXX..XXXXXXX....XXXXXX.  ",
"  .XXXXXXX..X..XXX..XXXXXXXXX...XXXXX.  ",
" .XXXXXXXX..XX..XX..XXXXXX.XXX..XXXXXX. ",
" .XXXXXXXX..XXX..XX..XXX.X..XX..XXXXXX. ",
" .XXXXXXX....X....XX....XX.....XXXXXXX. ",
".XXXXXXXXXXXXXXXXXXXXXXXXXXXXXXXXXXXXXX.",
".XXXXXXXXXXXXXXXXXXXXXXXXXXXXXXXXXXXXXX.",
".XXXXXXXXXXXXXXXXXXXXXXXXXXXXXXXXXXXXXX.",
".XXXXXXXXXXXXXXXXXXXXXXXXXXXXXXXXXXXXXX.",
".XXXXXXXXXXXXXXX.XXXXXXXXXXXXXXXXXXXXXX.",
".XXXXXXXXXXXXXX...XXXX..XXXXXXXXXXXXXXX.",
".XXXXXXXXXXXXX.X...XX...XXXXXXXXXXXXXXX.",
".XXXXXXXXXXXXX...X.XXX..XXXXXXXXXXXXXXX.",
" .XXXXXXXXXXXX....XXXX..XXXXXXXXXXXXXX. ",
" .XXXXXXXXXXXXX....XXX..XXXXXXXXXXXXXX. ",
" .XXXXXXXXXXXXXX...XXX..XXXXXXXXXXXXXX. ",
"  .XXXXXXXXXXX.X.X.XXX..XXXXXXXXXXXXX.  ",
"  .XXXXXXXXXXX.X...XXX..XXXXXXXXXXXXX.  ",
"   .XXXXXXXXXXX...XXX....XXXXXXXXXXX.   ",
"   .XXXXXXXXXXXX.XXXXXXXXXXXXXXXXXXX.   ",
"    .XXXXXXXXXXXXXXXXXXXXXXXXXXXXXX.    ",
"     .XXXXXXXXXXXXXXXXXXXXXXXXXXXX.     ",
"      .XXXXXXXXXXXXXXXXXXXXXXXXXX.      ",
"       ..XXXXXXXXXXXXXXXXXXXXXX..       ",
"         .XXXXXXXXXXXXXXXXXXXX.         ",
"          ..XXXXXXXXXXXXXXXX..          ",
"            ...XXXXXXXXXX...            ",
"               ..........               ",
"                                        ",
"                                        "};
