/* XPM */
static const char * slot_x2_xpm[] = {
"40 40 4 1",
" 	c #FFFFFFFFFFFF",
".	c #51445144FFFF",
"X	c #FFFFFFFF0000",
"o	c #FFFF14514103",
"                                        ",
"                                        ",
"                                        ",
"                                        ",
"                                        ",
"                                        ",
"                                        ",
"                                        ",
"    .................... ........       ",
"    .XXXXXXXXXXXXXXXXXX...XXXXXX..      ",
"    .XooooooooXXooooooX..XXooooXX..     ",
"    .XXXooooXXXXXXooXXX.XXooooooXX.     ",
"    ...XXoooXX..XXoXX..XXooooooooX.     ",
"      ..XooooX.XXooX...XooXXXooooX.     ",
"       .XXoooXXXooXX. .XoXX.XXoooX.     ",
"       ..XXoooXXoXX.. .XXX...XoooX.     ",
"        ..XooooooX..  .......XoooX.     ",
"         .XXooooXX.        .XXooXX.     ",
"         ..XooooXX..      ..XoooX..     ",
"         ..XoooooXX.      .XXooXX.      ",
"        ..XXooooooX..    ..XooXX....    ",
"        .XXooXXoooXX.   ..XXooX.XXX.    ",
"       ..XooXXXooooX.. ..XXooXX.XoX.    ",
"      ..XXooX XXooooX...XXooXXXXXoX.    ",
"    ...XXooXX  XooooXX.XXoooooooooX.    ",
"    .XXXoooXXXXXXooooXXXooooooooooX.    ",
"    .XooooooXXooooooooXXoooooooooXX.    ",
"    .XXXXXXXXXXXXXXXXXXXXXXXXXXXXX..    ",
"    ...............................     ",
"                                        ",
"                                        ",
"                                        ",
"                                        ",
"                                        ",
"                                        ",
"                                        ",
"                                        ",
"                                        ",
"                                        ",
"                                        "};
