/* XPM */
static const char * slot_horseshoe_xpm[] = {
"40 40 4 1",
" 	c #FFFFFFFFFFFF",
".	c #B6DAB2CAB6DA",
"X	c #CF3CCF3CCF3C",
"o	c #000000000000",
"                                        ",
"                                        ",
"              ............              ",
"           ....XXXXXXXXXX....           ",
"          ...XXXXXXXXXXXXXX...          ",
"        ....XooXXXooooXXXooX....        ",
"       ...XXoXXXXXXXXXXXXXXoXX...       ",
"      ..XXXoXXX..........XXXoXXX..      ",
"      .XXXXXX...        ...XXXXXX.      ",
"     .XXXXXX.              .XXXXXX.     ",
"     .XXoXX.                .XXoXX.     ",
"     .XoXX.                  .XXoX.     ",
"    ..XoX..                  ..XoX..    ",
"    .XXoX.                    .XoXX.    ",
"    .XXXX.                    .XXXX.    ",
"    .XXXX..                  ..XXXX.    ",
"    .XXoXX.                  .XXoXX.    ",
"    .XXoXX.                  .XXoXX.    ",
"    ..XoXX.                  .XXoX..    ",
"     .XXoX..                ..XoXX.     ",
"     .XXXX..                ..XXXX.     ",
"     ..XXXX.                .XXXX..     ",
"      .XoXX..              ..XXoX.      ",
"      .XXoX..              ..XoXX.      ",
"      ..XoXX.              .XXoX..      ",
"       .XoXX.              .XXoX.       ",
"       .XXXX.              .XXoX.       ",
"       .XXXX.              .XXXX.       ",
"       .XXXX.              .XXXX.       ",
"       .XoXX.              .XXoX.       ",
"      ..XoXX..            ..XXoX..      ",
"     ..XXoXXX.            .XXXoXX..     ",
"    ..XXXoXXX.            .XXXoXXX..    ",
"   ..XXXXXXXX.            .XXXXXXXX..   ",
"   .XXXXXXXXX.            .XXXXXXXXX.   ",
"   .XXXXXXXXX.            .XXXXXXXXX.   ",
"   ..XXXXXXXX.            .XXXXXXXX..   ",
"    ..........            ..........    ",
"                                        ",
"                                        "};
