/* XPM */
static const char * slot_boat3_xpm[] = {
"40 40 8 1",
" 	c #FFFFFFFFFFFF",
".	c #CF3CCF3CCF3C",
"X	c #000000000000",
"o	c #DF7DE38DDF7D",
"O	c #B6DAB2CAB6DA",
"+	c #0000E79DE79D",
"@	c #FFFF14514103",
"#	c #51445144FFFF",
"                                        ",
"                          .X.           ",
"                         .oX.           ",
"                         .oX..          ",
"                        .ooX..          ",
"                       .oooX..          ",
"        .X             .oooX.o.         ",
"        .X            .ooooX.o.         ",
"       .oX           .oooooX.oo.        ",
"       .oX           .oooooX.oo.        ",
"      .ooX          .ooooooX.oo.        ",
"      .ooX         .oooooooX.ooo.       ",
"     .oooX         .oooooooX.ooo.       ",
"     .oooX        .ooooooooX .oo.       ",
"     .oooX        .ooooooooX .ooo.      ",
"    .ooooX       .oooooooooX .ooo.      ",
"    .ooooX      .ooooooooooX .ooo.      ",
"   .oooooX      .ooooooooooX .oooo.     ",
"   .oooooX     .oooooooooooX .oooo.     ",
"   .oooooX    .ooooooooooooX .oooo.     ",
"  .ooooooX    .ooooooooooooX .ooooo.    ",
"  .ooooooX   .oooooooooooooX .ooooo.    ",
" .oooooooX  .ooooooooooooooX .oooooo.   ",
" .oooooooX  .ooooooooooooooX .oooooo.   ",
".ooooooooX .oooooooooooooooX ..ooooo.   ",
".ooooooooX XXXXXXXXXXXXXXXXX   ...ooo.  ",
"XXXXXXXXXX                 X      .oo.  ",
"         X         OOOOOOOOOOOOOOO ...  ",
"OOOOOO   X         Ooo++ooooo++ooO   .. ",
"Oo++oO   X         Ooo++ooooo++ooO    . ",
"Oo++oO   X         OOOOOOOOOOOOOOOOOOOO ",
"OOOOOOOOOOOOOOOOOOOoooooooooooooooooooO ",
"Oooooooooooooooooooo@@@@@@@@@@@@@@@@@O  ",
" O@@@@@@@@@@@@@@@@@@oooooooooooooooooO  ",
" OooooooooooooooooooooooooooooooooooO   ",
" OooooooooooooooooooooooooooooooooooO   ",
" ##ooo##ooo##ooo##ooo##ooo##ooo##ooO##  ",
"#  ###  ###  ###  ###  ###  ###  ###    ",
"                                        ",
"                                        "};
