/* XPM */
static const char * slot_k_xpm[] = {
"40 40 3 1",
" 	c #FFFFFFFFFFFF",
".	c #FFFF14514103",
"X	c #51445144FFFF",
"                                        ",
"                                        ",
"                                        ",
"                                        ",
"                                        ",
"                                        ",
"                                        ",
"                                        ",
"           ....................         ",
"           .                  .         ",
"           . XXXXXXX  XXXXXXX .         ",
"           .   XXX     XXX    .         ",
"           ... XXX ..  XX  ....         ",
"             . XXX .  XX  ..            ",
"             . XXX   XX  ..             ",
"             . XXX  XX  ..              ",
"             . XXX XX  ..               ",
"             . XXXXXX  ..               ",
"             . XXXXXXX  ..              ",
"             . XXX XXXX  ..             ",
"             . XXX  XXXX  ..            ",
"             . XXX   XXXX  ..           ",
"             . XXX .  XXXX  ..          ",
"             . XXX ..  XXXX  ..         ",
"           ... XXX ...  XXXX  ..        ",
"           .   XXX   ..  XXXX  .        ",
"           . XXXXXXX .. XXXXXX .        ",
"           .         ..        .        ",
"           .....................        ",
"                                        ",
"                                        ",
"                                        ",
"                                        ",
"                                        ",
"                                        ",
"                                        ",
"                                        ",
"                                        ",
"                                        ",
"                                        "};
