/* XPM */
static const char * slot_car1_xpm[] = {
"40 40 5 1",
" 	c #FFFFFFFFFFFF",
".	c #000000000000",
"X	c #0000E79DE79D",
"o	c #B6DAB2CAB6DA",
"O	c #CF3CCF3CCF3C",
"                                        ",
"                                        ",
"                                        ",
"                                        ",
"                                        ",
"                                        ",
"                                        ",
"                                        ",
"                                        ",
"                                        ",
"                                        ",
"                                        ",
"           . ..                         ",
"           . ..       XX                ",
"           .         .XXX               ",
"           . ...    . XXXX              ",
"           . ...   . .XXXXX             ",
"      ooooooooooooooooooooooo           ",
"   oooOOOOOOOOOOOOOOOOOOOOOOOooooooo    ",
"  oOOOOOOOOOOOOOOOOOOOOOOOOooooOOOOOoo  ",
"  oOOOOOOO..OOOOOOOOOOOOOooo..oooOOOOOo ",
"  oOOOOO......OOOOOOOOOOOo......oOOOOOo ",
"  ooooOO......OOOOOOOOOOoo......ooOOOOo ",
"    ooo...  ...OOOOOOOOOo...  ...oOOOoo ",
"      o...  ...oooooooooo...  ...ooooo  ",
"        ......            ......        ",
"        ......            ......        ",
"          ..                ..          ",
"                                        ",
"                                        ",
"                                        ",
"                                        ",
"                                        ",
"                                        ",
"                                        ",
"                                        ",
"                                        ",
"                                        ",
"                                        ",
"                                        "};
