/* XPM */
static const char * slot_n_xpm[] = {
"40 40 3 1",
" 	c #FFFFFFFFFFFF",
".	c #FFFF14514103",
"X	c #51445144FFFF",
"                                        ",
"                                        ",
"                                        ",
"                                        ",
"                                        ",
"                                        ",
"                                        ",
"                                        ",
"                                        ",
"          ........    .........         ",
"          .      ..   .       .         ",
"          . XXXX  ..  . XXXXX .         ",
"          .  XXXX  .. .  XXX  .         ",
"          ..  XXXX  ....  X  ..         ",
"           .. XXXXX  .... X ..          ",
"            . XXXXXX  ... X .           ",
"            . X XXXXX  .. X .           ",
"            . X  XXXXX  . X .           ",
"            . X   XXXXX   X .           ",
"            . X .  XXXXX  X .           ",
"            . X ..  XXXXX X .           ",
"            . X ...  XXXX X .           ",
"            . X . ..  XXXXX .           ",
"            . X .  ..  XXXX .           ",
"           .. X ..  ..  XXX .           ",
"          ..  X  ..  ..  XX .           ",
"          .  XXX  .   .. XX .           ",
"          . XXXXX .    .  X .           ",
"          .       .    ..   .           ",
"          .........     .....           ",
"                                        ",
"                                        ",
"                                        ",
"                                        ",
"                                        ",
"                                        ",
"                                        ",
"                                        ",
"                                        ",
"                                        "};
