/* XPM */
static const char * slot_star_blue_xpm[] = {
"40 40 3 1",
" 	c #FFFFFFFFFFFF",
".	c #000000000000",
"X	c #51445144FFFF",
"                                        ",
"                                        ",
"                                        ",
"                   .                    ",
"                   .                    ",
"                  .X.                   ",
"                  .X.                   ",
"                 .XXX.                  ",
"                 .XXX.                  ",
"                .XXXXX.                 ",
"                .XXXXX.                 ",
"               .XXXXXXX.                ",
"               .XXXXXXX.                ",
"              .XXXXXXXXX.               ",
"              .XXXXXXXXX.               ",
"             .XXXXXXXXXXX.              ",
"             .XXXXXXXXXXX.              ",
" ............XXXXXXXXXXXXX............  ",
"  ..XXXXXXXXXXXXXXXXXXXXXXXXXXXXXXX..   ",
"    ..XXXXXXXXXXXXXXXXXXXXXXXXXXX..     ",
"      ..XXXXXXXXXXXXXXXXXXXXXXX..       ",
"        ..XXXXXXXXXXXXXXXXXX...         ",
"          .XXXXXXXXXXXXXXXXX.           ",
"         .XXXXXXXXXXXXXXXXXXX.          ",
"         .XXXXXXXXXXXXXXXXXXX.          ",
"        .XXXXXXXXXXXXXXXXXXXXX.         ",
"        .XXXXXXXXXXXXXXXXXXXXX.         ",
"       .XXXXXXXXXXX.XXXXXXXXXXX.        ",
"       .XXXXXXXXX.. ..XXXXXXXXX.        ",
"      .XXXXXXXX..     ..XXXXXXXX.       ",
"      .XXXXXX..         ..XXXXXX.       ",
"     .XXXXXX.             .XXXXXX.      ",
"     .XXXX..               ..XXXX.      ",
"    .XXX..                   ..XXX.     ",
"    .X..                       ..X.     ",
"   ...                           ...    ",
"   .                               .    ",
"                                        ",
"                                        ",
"                                        "};
