/* XPM */
static const char * slot_plum_xpm[] = {
"40 40 3 1",
" 	c #FFFFFFFFFFFF",
".	c #FFFF0000FFFF",
"X	c #BEFB0C30BEFB",
"                                        ",
"                                        ",
"                                        ",
"                                        ",
"               .........                ",
"             .............              ",
"           ........X........            ",
"         ......X..............          ",
"        ...................X...         ",
"       .........................        ",
"      ..............X............       ",
"      ......X............X.......       ",
"     .............................      ",
"    ...XX..........................     ",
"    ..X.X.....................X....     ",
"    ..X.X...............X..........     ",
"   ...X.X........X..................    ",
"   ...XX............................    ",
"   .................................    ",
"   .............................X...    ",
"   .................................    ",
"   .........X......X.......X........    ",
"   .................................    ",
"   ....X............................    ",
"    ...............................     ",
"    ...........................X...     ",
"    ................X..............     ",
"     .............................      ",
"      ....X......................       ",
"      ....................X......       ",
"       .........................        ",
"        ........X..............         ",
"         .....................          ",
"           .................            ",
"             .............              ",
"               .........                ",
"                                        ",
"                                        ",
"                                        ",
"                                        "};
