/* XPM */
static const char * slot_sm_abar_xpm[] = {
"20 20 2 1",
" 	c #FFFFFFFFFFFF",
".	c #000000000000",
"                    ",
"                    ",
"                    ",
"                    ",
"                    ",
"                    ",
" .................. ",
" .. ...  ..    .  . ",
" . . ...  . .. . .. ",
" .   ...  . ... ... ",
" . . ... .  ... ... ",
" . .  .  .. ..   .. ",
" .................. ",
"                    ",
"                    ",
"                    ",
"                    ",
"                    ",
"                    ",
"                    "};
