/* XPM */
static const char * slot_wild_xpm[] = {
"40 40 5 1",
" 	c #FFFFFFFFFFFF",
".	c #FFFFFFFF0000",
"X	c #FFFF69A630C2",
"o	c #FFFF14514103",
"O	c #000000000000",
"                                        ",
"                                        ",
"                         .              ",
"              .         ..              ",
" .            ..        ...             ",
" ..          ....      ..X.             ",
" ...         .XX..    ..XX.             ",
" .X..        .XXX..  ..XXX.             ",
" .XX...     ..XoXX.. .XXoX..            ",
" ..XXX..    .XXooXX...XooXX..........   ",
"  .XoXX..   .XooooXXXXXoooXXXXXXXXXX.   ",
"  .XooXX.. ..XoooooooooooooooooooooX.   ",
"  .XoooXX...XXoooooooooooooooooooooX.   ",
"  .XooooXXXXXooooooooooooooooooooooX.   ",
"  .XoooooooooooooooooooooooooooooooX.   ",
"  .XOOOOOOOOOOOOOOOOOOOOOoOOOOOOOOoX..  ",
" ..XO...O...O......O....OoO......OOXX.. ",
" .XXOO..O..OO.OO..OOO..OOoOO..OO..OoXX. ",
"..XooO..O..O..OO..OoO..OoooO..OO..OooX..",
"..XooO..O..O.OOO..OoO..OOOOO..OO..OoXX..",
" .XXoOO..O...OoO..OoO..OO.OO..OO..OoX.. ",
" ..XXoO..O..OOOO..OOO..O..OO..OO..OXX.  ",
"  ..XXOO.OO.OoO....O......O......OOX..  ",
"   ..XoOOOOOOoOOOOOOOOOOOOOOOOOOOOoX.   ",
"    .XXooooooooooooooooooooooooooooX.   ",
"    ..XoooooooooooooXXXXXooooooooooX.   ",
"     .XooooooooooooXX...XXoooXXXXXXX..  ",
"     .XoooXXXXXXoooX.. ..XXooX....XXX.  ",
"     .XooXX....XoooX.   ..XXXX.  ..XX.  ",
"    ..XoXX..  .XoooX.    ..XX..   ..X.  ",
"    .XXXX..   .XXoXX.     ..X.     ...  ",
"    .XX...    ..XoX..      ...      ... ",
"    .X..       .XXX.        .        .. ",
"    ...        ..XX.                  . ",
"   ...          .XX.                    ",
"   ..           .X..                    ",
"   .            ...                     ",
"                 ..                     ",
"                 ..                     ",
"                                        "};
