/* XPM */
static const char * slot_a_xpm[] = {
"40 40 3 1",
" 	c #FFFFFFFFFFFF",
".	c #FFFF14514103",
"X	c #51445144FFFF",
"                                        ",
"                                        ",
"                                        ",
"                                        ",
"                                        ",
"                                        ",
"                                        ",
"                                        ",
"                 ......                 ",
"                 .    ..                ",
"                .. XX  .                ",
"                .  XXX ..               ",
"                . XXXX  .               ",
"               .. XXXXX .               ",
"               .  X XXX ..              ",
"               . XX XXX  .              ",
"              .. XX  XXX .              ",
"              .  X   XXX ..             ",
"              . XX . XXX  .             ",
"             .. X  .  XXX .             ",
"             .  X     XXX ..            ",
"            .. XXXXXXXXXX  .            ",
"            .  X      XXXX ..           ",
"           .. XX ....  XXX  .           ",
"          ..  XX ..... XXXX ...         ",
"          .  XXX  ..   XXXX   .         ",
"          . XXXXX .. XXXXXXXX .         ",
"          .       ..          .         ",
"          .....................         ",
"                                        ",
"                                        ",
"                                        ",
"                                        ",
"                                        ",
"                                        ",
"                                        ",
"                                        ",
"                                        ",
"                                        ",
"                                        "};
