/* XPM */
static const char * slot_sm_s_xpm[] = {
"20 20 3 1",
" 	c #FFFFFFFFFFFF",
".	c #FFFF14514103",
"X	c #51445144FFFF",
"                    ",
"                    ",
"      ..........    ",
"     ..        .    ",
"     .  XXXX X .    ",
"     . XX   XX .    ",
"     . XX    X .    ",
"     . XXX     .    ",
"     .  XXXX  ..    ",
"     ..   XXX  .    ",
"     .     XXX .    ",
"     . X    XX .    ",
"     . XX   XX .    ",
"     . XXXXXX  .    ",
"     .        ..    ",
"     ..........     ",
"                    ",
"                    ",
"                    ",
"                    "};
