/* XPM */
static const char * slot_sm_wild_xpm[] = {
"20 20 3 1",
" 	c #FFFF14514103",
".	c #FFFFFFFFFFFF",
"X	c #FFFFFFFF0000",
" ...................",
"  ...... ...........",
" . ....   ...... ...",
".    ..    ....  ...",
".          ...    ..",
".           .     ..",
".                 ..",
". X   X X X   XX   .",
". X   X X X   X X   ",
". X X X X X   X X   ",
"  X X X X X   X X   ",
"   X X  X XXX XX    ",
"                   .",
"                  ..",
"  .               ..",
"...     .   ..    ..",
"....   ...  ..   ...",
"....   .... ...  ...",
"....  .......... ...",
".... ..............."};
