/* XPM */
static const char * slot_float_xpm[] = {
"40 40 6 1",
" 	c #FFFFFFFFFFFF",
".	c #FFFFFFFF0000",
"X	c #000000000000",
"o	c #CF3C41030000",
"O	c #FFFF14514103",
"+	c #51445144FFFF",
"                  ...                   ",
"                  ...                   ",
"                  ...                   ",
"             XoooXoooXoooX              ",
"             XoooXoooXoooX              ",
"             XoooXoooXoooX              ",
"            X oooXoooXooo X             ",
"            X    X   X    X             ",
"            X    X   X    X             ",
"            X   X     X   X             ",
"           X    X     X    X            ",
"           X    X     X    X            ",
"           X    X     X    X            ",
"           X    X     X    X            ",
"          X     X     X     X           ",
"          X     X     X     X           ",
"          X     X     X     X           ",
"          X     X     X     X           ",
"          X     X     X     X           ",
"         X      X     X      X          ",
"         X     X       X     X          ",
"         X     X       X     X          ",
"         X     X       X     X          ",
"        X      X       X      X         ",
"        X      X       X      X         ",
"        X      X       X      X         ",
"        ooooooooooooooooooooooo         ",
"        oOOOOOOOOOOOOOOOOOOOOOo         ",
"        oOOOOOOOOOOOOOOOOOOOOOo         ",
"         oOOOOOOOOOOOOOOOOOOOo          ",
"         oOOOOOOOOOOOOOOOOOOOo          ",
"          oOOOOOOOOOOOOOOOOOo           ",
"          oOOOOOOOOOOOOOOOOOo           ",
"           oOOOOOOOOOOOOOOOo            ",
"            oOOOOOOOOOOOOOo             ",
"            oOOOOOOOOOOOOOo             ",
" ++   ++   ++OOO++OOO++OOO++   ++   ++  ",
"+  +++  +++  +++  +++  +++  +++  +++    ",
"                                        ",
"                                        "};
