/* XPM */
static const char * slot_5x_xpm[] = {
"40 40 4 1",
" 	c #FFFFFFFFFFFF",
".	c #51445144FFFF",
"X	c #FFFFFFFF0000",
"o	c #FFFF14514103",
"               ..........               ",
"            ...XXXXXXXXXX...            ",
"          ..XXXXXXXXXXXXXXXX..          ",
"         .XXXXXXXXXXXXXXXXXXXX.         ",
"       ..XXXXXXXXXXXXXXXXXXXXXX..       ",
"      .XXXXXXXXXXXXXXXXXXXXXXXXXX.      ",
"     .XXXXXXXXXXXXXXXXXXXXXXXXXXXX.     ",
"    .XXXXXXXXXXXXXXXXXXXXXXXXXXXXXX.    ",
"   .XXXXXXXXXXXXXXXXXXXXXXXXXXXXXXXX.   ",
"   .XXXXXXXXXXXoooXXoooXXoooXXXXXXXX.   ",
"  .XXXXXXXXXXXoXXXXXXoXXXXoXXXXXXXXXX.  ",
"  .XXXXXXXXXXXoXXXXXXXoXXoXXXXXXXXXXX.  ",
" .XXXXXXXXXXXXoooXXXXXoooXXXXXXXXXXXXX. ",
" .XXXXXXXXXXXXXXooXXXXXooXXXXXXXXXXXXX. ",
" .XXXXXXXXXXXXXXXoXXXXoXooXXXXXXXXXXXX. ",
".XXXXXXXXXXXXXXXXoXXXXoXXoXXXXXXXXXXXXX.",
".XXXXXXXXXXXXoXXooXXXoXXXXoXXXXXXXXXXXX.",
".XXXXXXXXXXXXXoooXXXoooXXoooXXXXXXXXXXX.",
".XXXXXXXXXXXXXXXXXXXXXXXXXXXXXXXXXXXXXX.",
".XXXXXXXXXXXXXXXXXXXXXXXXXXXXXXXXXXXXXX.",
".XXXXXXXooooooXXXXXoXXXXoooXXXoooXXXXXX.",
".XXXXXXXXoXXXooXXXXoXXXXXoXXXXXoXXXXXXX.",
".XXXXXXXXoXXXXoXXXoXoXXXXXoXXXoXXXXXXXX.",
" .XXXXXXXoXXXooXXXoXoXXXXXXoXXoXXXXXXX. ",
" .XXXXXXXoooooXXXoXXXoXXXXXoooXXXXXXXX. ",
" .XXXXXXXoXXXXXXXoooooXXXXXXoXXXXXXXXX. ",
"  .XXXXXXoXXXXXXXoXXXoXXXXXXoXXXXXXXX.  ",
"  .XXXXXXoXXXXXXoXXXXXoXXXXXoXXXXXXXX.  ",
"   .XXXXoooXXXXoooXXXoooXXXoooXXXXXX.   ",
"   .XXXXXXXXXXXXXXXXXXXXXXXXXXXXXXXX.   ",
"    .XXXXXXXXXXXXXXXXXXXXXXXXXXXXXX.    ",
"     .XXXXXXXXXXXXXXXXXXXXXXXXXXXX.     ",
"      .XXXXXXXXXXXXXXXXXXXXXXXXXX.      ",
"       ..XXXXXXXXXXXXXXXXXXXXXX..       ",
"         .XXXXXXXXXXXXXXXXXXXX.         ",
"          ..XXXXXXXXXXXXXXXX..          ",
"            ...XXXXXXXXXX...            ",
"               ..........               ",
"                                        ",
"                                        "};
