/* XPM */
static const char * slot_plane_xpm[] = {
"40 40 4 1",
" 	c #FFFFFFFFFFFF",
".	c #B6DAB2CAB6DA",
"X	c #CF3CCF3CCF3C",
"o	c #000000000000",
"                                        ",
"                                        ",
"                                        ",
"                                        ",
"                                        ",
"                                        ",
"       ....                             ",
"        .XX.                            ",
"         .XX..                          ",
"          .XXX.                         ",
"           .XXX.                        ",
".....      .XXXX.                       ",
" .XXX.      .XXXX.                      ",
" .XXX.       .XXXX..                    ",
"  .XXX.       .XXXXX.                   ",
"  .XXXX...........................      ",
" ..XXXX.XXXXXXXXXXXXXXXXXXXXXXXXXo..... ",
" .X......XXoXoXoXoXoXoXoXoXoXoXXXooXXX. ",
" .XXXXXXXXXXXXXXXXXXXXXXXXXXXXXXXXXXXX. ",
" ....XXXXXXXXXXXXXXXXXXXXXXXXXXXXX..... ",
"  .XX.............................      ",
"  .XXX.      .XXXXXXX.                  ",
" .XXX.      .XXXXXX..                   ",
" .X..      .XXXXXX.                     ",
" ..       .XXXXX..                      ",
"         .XXXXX.                        ",
"        .XXXX..                         ",
"       .XXXX.                           ",
"      .XXXX.                            ",
"     .XXX..                             ",
"    .XXX.                               ",
"   .XX..                                ",
"  ....                                  ",
"                                        ",
"                                        ",
"                                        ",
"                                        ",
"                                        ",
"                                        ",
"                                        "};
