/* XPM */
static const char * slot_bill1_xpm[] = {
"40 40 3 1",
" 	c #FFFFFFFFFFFF",
".	c #38E3FBEE30C2",
"X	c #104071C60000",
"                                        ",
"                                        ",
"                                        ",
"                                        ",
"                                        ",
"                                        ",
"                                        ",
"                                        ",
"                                        ",
"                                        ",
".....XX.X.X.X.X.X.......X..XX.X.X.X.....",
"..X..XXXXXXXXXXX..XXXXX..XXXXXXXXXX..X..",
"..X..X...........X.....X..........X..X..",
"..X..X.X.X.X.X..X.......X..X.X.X..X..X..",
"..X..X.X.X.X.X.X...XXX...X.X.X.X..X..X..",
"..X..X.........X..XX.XX..X........X..X..",
"....X.........X...XXXXXX..X........X....",
"XXXX..........X...XX.X.X..X.........XXXX",
"..............X..X.X.XXX..X.............",
"........XX....X..XX.XXXX..X..XX.........",
"XXXX...XXXX...X..XX.XX.X..X.XXXX....XXXX",
"....X..XXXX...X..XX.X.XX..X.XXXX...X....",
"..X..X..XX....X...XX.XX...X..XX...X..X..",
"..X..X.........X...XXXX..X........X..X..",
"..X..X.........X...XXXX..X........X..X..",
"..X..XXXXXXXXX..X..X....X..XXXXXXXX..X..",
"..X..X.X.X.X.XX..X...X.X..XX.X.X.XX..X..",
".....X.X.X.X.X.X..XXXXX..X.X.X.X..X.....",
"                                        ",
"                                        ",
"                                        ",
"                                        ",
"                                        ",
"                                        ",
"                                        ",
"                                        ",
"                                        ",
"                                        ",
"                                        ",
"                                        "};
