/* XPM */
static const char * slot_1_xpm[] = {
"40 40 3 1",
" 	c #FFFFFFFFFFFF",
".	c #FFFF14514103",
"X	c #51445144FFFF",
"                                        ",
"                                        ",
"                                        ",
"                                        ",
"                                        ",
"                                        ",
"                                        ",
"                                        ",
"                  ......                ",
"                ...    .                ",
"              ...   XX .                ",
"              .   XXXX .                ",
"              . XXXXXX .                ",
"              .    XXX .                ",
"              .... XXX .                ",
"                 . XXX .                ",
"                 . XXX .                ",
"                 . XXX .                ",
"                 . XXX .                ",
"                 . XXX .                ",
"                 . XXX .                ",
"                 . XXX .                ",
"                 . XXX .                ",
"                .. XXX ..               ",
"              ...  XXX  ...             ",
"              .   XXXXX   .             ",
"              . XXXXXXXXX .             ",
"              .           .             ",
"              .............             ",
"                                        ",
"                                        ",
"                                        ",
"                                        ",
"                                        ",
"                                        ",
"                                        ",
"                                        ",
"                                        ",
"                                        ",
"                                        "};
