/* XPM */
static const char * slot_wild_up_xpm[] = {
"40 40 5 1",
" 	c #FFFFFFFFFFFF",
".	c #FFFF14514103",
"X	c #000000000000",
"o	c #51445144FFFF",
"O	c #FFFFFFFF0000",
"                                        ",
"                                        ",
"                                        ",
"                                        ",
"                   ...                  ",
"                  ..X..                 ",
"                  .XoX.                 ",
"                 ..XoX..                ",
"                 .XoooX.                ",
"                ..XoOoX..               ",
"               ..XooOooX..              ",
"               .XooOOOooX.              ",
"              ..XoOOOOOoX..             ",
"              .XooOOOOOooX.             ",
"             ..XoOOOOOOOoX..            ",
"            ..XooOOOOOOOooX..           ",
"            .XooOOoooooOOooX.           ",
"           ..XoooooXXXoooooX..          ",
"           .XoooXXX...XXXoooX.          ",
"          ..XXXX.... ....XXXX..         ",
"          .XX....       ....XX.         ",
"          ....             ....         ",
"                                        ",
"                                        ",
"    XXXXXXXXXXXXXXXXXXXXX XXXXXXXX      ",
"    XOOOXOOOXOOOOOOXOOOOX XOOOOOOXX     ",
"    XXOOXOOXXOXXOOXXXOOXX XXOOXXOOX     ",
"     XOOXOOXOOXXOOX XOOX   XOOXXOOX     ",
"     XOOXOOXOXXXOOX XOOXXXXXOOXXOOX     ",
"     XXOOXOOOX XOOX XOOXXOXXOOXXOOX     ",
"      XOOXOOXXXXOOXXXOOXOOXXOOXXOOX     ",
"      XXOXXOX XOOOOXOOOOOOXOOOOOOXX     ",
"       XXXXXX XXXXXXXXXXXXXXXXXXXX      ",
"                                        ",
"                                        ",
"                                        ",
"                                        ",
"                                        ",
"                                        ",
"                                        "};
