/* XPM */
static const char * slot_o_xpm[] = {
"40 40 3 1",
" 	c #FFFFFFFFFFFF",
".	c #FFFF14514103",
"X	c #51445144FFFF",
"                                        ",
"                                        ",
"                                        ",
"                                        ",
"                                        ",
"                                        ",
"                                        ",
"                                        ",
"                ..........              ",
"              ...        ...            ",
"             ..   XXXXXX   ..           ",
"            ..  XXXX  XXXX  ..          ",
"            .  XXX      XXX  .          ",
"           .. XXXX      XXXX ..         ",
"           .  XXX        XXX  .         ",
"           . XXXX        XXXX .         ",
"           . XXX          XXX .         ",
"           . XXX          XXX .         ",
"           . XXX          XXX .         ",
"           . XXX          XXX .         ",
"           . XXX          XXX .         ",
"           . XXXX        XXXX .         ",
"           .  XXX        XXX  .         ",
"           .. XXXX      XXXX ..         ",
"            .  XXX      XXX  .          ",
"            ..  XXXX  XXXX  ..          ",
"             ..   XXXXXX   ..           ",
"              ...        ...            ",
"                ..........              ",
"                                        ",
"                                        ",
"                                        ",
"                                        ",
"                                        ",
"                                        ",
"                                        ",
"                                        ",
"                                        ",
"                                        ",
"                                        "};
