/* XPM */
static const char * slot_6_xpm[] = {
"40 40 3 1",
" 	c #FFFFFFFFFFFF",
".	c #FFFF14514103",
"X	c #51445144FFFF",
"                                        ",
"                                        ",
"                                        ",
"                                        ",
"                                        ",
"                                        ",
"                                        ",
"                                        ",
"                    .......             ",
"                  ...     .             ",
"                ...   XXX .             ",
"               ..   XXXX  .             ",
"               .  XXXX   ..             ",
"              .. XXXX  ...              ",
"              .  XXX  ..                ",
"              . XXXX ....               ",
"             .. XXX     ..              ",
"             .  XXX XXX  ..             ",
"             . XXXXX XXX  .             ",
"             . XXXX   XXX .             ",
"             . XXXX . XXX .             ",
"             . XXXX . XXX .             ",
"             . XXXX . XXX .             ",
"             .  XXX . XXX .             ",
"             .. XXX   XXX .             ",
"              .  XXX XXX  .             ",
"              ..  XXXX   ..             ",
"               ..      ...              ",
"                ........                ",
"                                        ",
"                                        ",
"                                        ",
"                                        ",
"                                        ",
"                                        ",
"                                        ",
"                                        ",
"                                        ",
"                                        ",
"                                        "};
