/* XPM */
static const char * slot_7_xpm[] = {
"40 40 3 1",
" 	c #FFFFFFFFFFFF",
".	c #FFFF14514103",
"X	c #51445144FFFF",
"                                        ",
"                                        ",
"                                        ",
"                                        ",
"                                        ",
"                                        ",
"                                        ",
"                                        ",
"              ..............            ",
"              .            .            ",
"              . XXXXXXXXXX .            ",
"             .. XXXXXXXXXX .            ",
"             .  XXXXXXXXX  .            ",
"             . XX      XX ..            ",
"             . X  ... XX  .             ",
"             .   .... XX ..             ",
"             ..... . XXX .              ",
"                  .. XX  .              ",
"                  .  XX ..              ",
"                  . XXX .               ",
"                 .. XX  .               ",
"                 .  XX ..               ",
"                 . XXX .                ",
"                .. XXX .                ",
"                .  XX  .                ",
"                . XXX ..                ",
"                . XXX .                 ",
"                .     .                 ",
"                .......                 ",
"                                        ",
"                                        ",
"                                        ",
"                                        ",
"                                        ",
"                                        ",
"                                        ",
"                                        ",
"                                        ",
"                                        ",
"                                        "};
