/* XPM */
static const char * slot_sm_car3_xpm[] = {
"20 20 4 1",
" 	c #FFFFFFFFFFFF",
".	c #51445144FFFF",
"X	c #0000E79DE79D",
"o	c #000000000000",
"                    ",
"                    ",
"                    ",
"                    ",
"        ....        ",
"      ..XXX.X       ",
"     .XXXXX.XX      ",
"    ...XXXX.XXX     ",
"   ............     ",
"  ................  ",
" .................. ",
".....oo......oo.....",
"....oooo....oooo....",
" ...oooo....oooo....",
"     oo      oo     ",
"                    ",
"                    ",
"                    ",
"                    ",
"                    "};
