/* XPM */
static const char * slot_sm_7_xpm[] = {
"20 20 3 1",
" 	c #FFFFFFFFFFFF",
".	c #FFFF14514103",
"X	c #51445144FFFF",
"                    ",
"                    ",
"                    ",
"     ..........     ",
"     .        .     ",
"     . XXXXXX .     ",
"     . XXXXXX .     ",
"     . X   XX .     ",
"     .     X  .     ",
"     .... XX ..     ",
"       .. X  .      ",
"       .  X ..      ",
"      .. XX .       ",
"      .  X  .       ",
"      . XX ..       ",
"      .    .        ",
"      ......        ",
"                    ",
"                    ",
"                    "};
