/* XPM */
static const char * slot_sm_bell_xpm[] = {
"20 20 3 1",
" 	c #FFFFFFFFFFFF",
".	c #BEFB8E380820",
"X	c #FFFFFFFF0000",
"                    ",
"       ......       ",
"      ..XXXX..      ",
"     ..XXXXXX..     ",
"     .XXX.XXXX.     ",
"     .XX.XXXXX.     ",
"     .XX.XXXXX.     ",
"    ..XX.XXXXX..    ",
"   ..XXX.XXXXXX..   ",
"   .XXX.XXXXXXXX.   ",
"  ..XX.XXXXXXXXX..  ",
"  .XXXXXXXXXXXXXX.  ",
" ..XXXXXXXXXXXXXX.. ",
" .XXXXXXXXXXXXXXXX. ",
" .XXX.XXXXXXXXXXXX. ",
" .XXXX.......XXXXX. ",
"  ...XXXXXXXXXX...  ",
"     ..........     ",
"         XX         ",
"         XX         "};
