/* XPM */
static const char * slot_chip10k_xpm[] = {
"40 40 4 1",
" 	c #FFFFFFFFFFFF",
".	c #B6DAB2CAB6DA",
"X	c #000000000000",
"o	c #FFFFFFFF0000",
"               ..........               ",
"            ...          ...            ",
"          ..XXX          XXX..          ",
"         .XXXXX          XXXXX.         ",
"       ..XXXXXXX        XXXXXXX..       ",
"      .XXXXXXXXX        XXXXXXXXX.      ",
"     .XXXXXXXXXX        XXXXXXXXXX.     ",
"    .XXXXXXXXX.. XXXXXX ..XXXXXXXXX.    ",
"   .XXXXXXXXX.   ......   .XXXXXXXXX.   ",
"   .XXXXXXXX.X....oooo....X.XXXXXXXX.   ",
"  .XXXXXXXX.X..oooooooooo..X.XXXXXXXX.  ",
"  .XXXXXXX.X..oooooooooooo..X.XXXXXXX.  ",
" .XXXXXXX.X..oooooooooooooo..X.XXXXXXX. ",
" .XXXXXX. ..oXXoooXXXoXXXooo.. .XXXXXX. ",
" .XXXXXX. .oXXXooXXoXXoXXoooo. .XXXXXX. ",
".   XXXX. .ooXXooXXoXXoXXoooo. .XXX    .",
".       X..ooXXooXXoXXoXXooXX..X       .",
".       X.oooXXooXXoXXoXXoXXoo.X       .",
".       X.oooXXooXXoXXoXXXXooo.X       .",
".       X.oooXXooXXoXXoXXoXXoo.X       .",
".       X.oooXXooXXoXXoXXooXXo.X       .",
".       X..oXXXXooXXXoXXXooXXX.X       .",
".   XXXX. .oooooooooooooooooo. .XXX    .",
" .XXXXXX. .oooooooooooooooooo. .XXXXXX. ",
" .XXXXXX. ..oooooooooooooooo.. .XXXXXX. ",
" .XXXXXXX.X...ooooooooooooo..X.XXXXXXX. ",
"  .XXXXXXX.X..oooooooooooo..X.XXXXXXX.  ",
"  .XXXXXXXX.X..oooooooooo..X.XXXXXXXX.  ",
"   .XXXXXXXX.X....oooo....X.XXXXXXXX.   ",
"   .XXXXXXXXX.   ......   .XXXXXXXXX.   ",
"    .XXXXXXXXX.. XXXXXX ..XXXXXXXXX.    ",
"     .XXXXXXXXXX        XXXXXXXXXX.     ",
"      .XXXXXXXXX        XXXXXXXXX.      ",
"       ..XXXXXX          XXXXXX..       ",
"         .XXXXX          XXXXX.         ",
"          ..XXX          XXX..          ",
"            ...          ...            ",
"               ..........               ",
"                                        ",
"                                        "};
