/* XPM */
static const char * slot_sm_b_xpm[] = {
"20 20 3 1",
" 	c #FFFFFFFFFFFF",
".	c #FFFF14514103",
"X	c #51445144FFFF",
"                    ",
"                    ",
"    ...........     ",
"    .         ..    ",
"    . XXXXXXX  .    ",
"    .  XX   XX .    ",
"    .. XX . XX .    ",
"     . XX   XX .    ",
"     . XXXXXX  .    ",
"     . XX   XX .    ",
"     . XX   XX .    ",
"    .. XX . XX .    ",
"    .  XX   XX .    ",
"    . XXXXXXX  .    ",
"    .         ..    ",
"    ...........     ",
"                    ",
"                    ",
"                    ",
"                    "};
