/* XPM */
static const char * slot_sm_boat3_xpm[] = {
"20 20 7 1",
" 	c #FFFFFFFFFFFF",
".	c #B6DAB2CAB6DA",
"X	c #000000000000",
"o	c #CF3CCF3CCF3C",
"O	c #0000E79DE79D",
"+	c #FFFF14514103",
"@	c #51445144FFFF",
"             .X.    ",
"            .oX.    ",
"    .X      .oX..   ",
"    .X     .ooX..   ",
"   .oX    .oooX..   ",
"   .oX    .oooX.o.  ",
"  .ooX   .ooooX ..  ",
"  .ooX  .oooooX ..  ",
"  .ooX  .oooooX .o. ",
" .oooX .ooooooX .o. ",
" .oooX XXXXXXXX .o. ",
" XXXXX     ..... ...",
" ... X     .O.O.   .",
" .O. X    ..........",
" .........++++++++. ",
" .++++++++ooooooo.  ",
" .@oo@oo@oo@oo@oo@  ",
"@@ @@ @@ @@ @@ @@ @@",
"                    ",
"                    "};
