/* XPM */
static const char * slot_b_xpm[] = {
"40 40 3 1",
" 	c #FFFFFFFFFFFF",
".	c #FFFF14514103",
"X	c #51445144FFFF",
"                                        ",
"                                        ",
"                                        ",
"                                        ",
"                                        ",
"                                        ",
"                                        ",
"                                        ",
"                                        ",
"            .............               ",
"            .           ...             ",
"            . XXXXXXXXX   ..            ",
"            .   XXX   XXX  .            ",
"            ... XXX .  XXX .            ",
"              . XXX .. XXX .            ",
"              . XXX .. XXX .            ",
"              . XXX .. XXX .            ",
"              . XXX .  XX  .            ",
"              . XXX   XX  ..            ",
"              . XXXXXXXXX  ..           ",
"              . XXX    XXX  .           ",
"              . XXX ..  XXX .           ",
"              . XXX ... XXX .           ",
"              . XXX . . XXX .           ",
"              . XXX ... XXX .           ",
"            ... XXX ..  XXX .           ",
"            .   XXX    XXX  .           ",
"            . XXXXXXXXXX   ..           ",
"            .            ...            ",
"            ..............              ",
"                                        ",
"                                        ",
"                                        ",
"                                        ",
"                                        ",
"                                        ",
"                                        ",
"                                        ",
"                                        ",
"                                        "};
