/* XPM */
static const char * slot_sm_o_xpm[] = {
"20 20 3 1",
" 	c #FFFFFFFFFFFF",
".	c #FFFF14514103",
"X	c #51445144FFFF",
"                    ",
"                    ",
"                    ",
"     .........      ",
"    ..       ..     ",
"   ..  XXXXX  ..    ",
"   .  XX   XX  .    ",
"   . XX  .  XX .    ",
"   . XX ... XX .    ",
"   . XX . . XX .    ",
"   . XX . . XX .    ",
"   . XX ... XX .    ",
"   . XX  .  XX .    ",
"   .  XX   XX  .    ",
"   ..  XXXXX  ..    ",
"    ..       ..     ",
"     .........      ",
"                    ",
"                    ",
"                    "};
