/* XPM */
static const char * slot_sm_train_xpm[] = {
"20 20 5 1",
" 	c #FFFFFFFFFFFF",
".	c #38E33CF338E3",
"X	c #0000E79DE79D",
"o	c #596561855965",
"O	c #000000000000",
"                    ",
"                    ",
"                    ",
"                    ",
"                    ",
"......        ..    ",
" ......      ....   ",
" .XXXo.      ....   ",
" .XXXo. .. .  ..    ",
" .XXXo. .. .  ..    ",
" ...............    ",
" .ooooooooooooo.    ",
" .ooOOoooOOoooo.    ",
" .oOooOoOooO....    ",
" ..OooO.OooO OO ..  ",
"    OO   OO  OO  .. ",
"                    ",
"                    ",
"                    ",
"                    "};
