/* XPM */
static const char * slot_sm_a_xpm[] = {
"20 20 3 1",
" 	c #FFFFFFFFFFFF",
".	c #FFFF14514103",
"X	c #51445144FFFF",
"                    ",
"                    ",
"                    ",
"       ......       ",
"       .    .       ",
"      .. XX ..      ",
"      .  XX  .      ",
"     .. XXXX ..     ",
"     .  X XX  .     ",
"     . XX  XX .     ",
"    .. X   XX ..    ",
"    .  XXXXXX  .    ",
"   .. XX    XX ..   ",
"   .  X  .  XX  .   ",
"   . XXX . XXXX .   ",
"   .     .      .   ",
"   ..............   ",
"                    ",
"                    ",
"                    "};
