/* XPM */
static const char * slot_w_xpm[] = {
"40 40 3 1",
" 	c #FFFFFFFFFFFF",
".	c #FFFF14514103",
"X	c #51445144FFFF",
"                                        ",
"                                        ",
"                                        ",
"                                        ",
"                                        ",
"                                        ",
"                                        ",
"                                        ",
"                                        ",
"      .............................     ",
"      .                           .     ",
"      . XXXXXXXX XXXXXXXX  XXXXXX .     ",
"      .   XXXX     XXXX      XX   .     ",
"      ... XXXX ...  XXX ...  X  ...     ",
"        .  XXX  ..  XXX ... XX ..       ",
"        .. XXXX .. XXXX  .  X  .        ",
"         . XXXX .. XXXXX . XX ..        ",
"         .  XXX .  X XXX . XX .         ",
"         .. XXX   XX XXX . X  .         ",
"          . XXXX  X  XXX   X ..         ",
"          .  XXX XX   XXX XX .          ",
"          .. XXX X  . XXX X  .          ",
"           . XXXXX .. XXXXX ..          ",
"           .  XXXX ..  XXXX .           ",
"           .. XXX  ... XXX  .           ",
"            . XXX .. . XXX ..           ",
"            .  X  .  .  X  .            ",
"            .. X ..  .. X ..            ",
"             .   .    .   .             ",
"             .....    .....             ",
"                                        ",
"                                        ",
"                                        ",
"                                        ",
"                                        ",
"                                        ",
"                                        ",
"                                        ",
"                                        ",
"                                        "};
