/* XPM */
static const char * slot_triple7_xpm[] = {
"40 40 3 1",
" 	c #FFFFFFFFFFFF",
".	c #000000000000",
"X	c #FFFF14514103",
"                                        ",
"                                        ",
"                                        ",
"                                        ",
"                                        ",
"                                        ",
"           .................            ",
"           .XXXXXXXXXXXXXXX.            ",
"           .XXXXXXXXXXXXXX..            ",
"          ..XXXXXXXXXXXXXX.             ",
"          .XXXXXXXXXXXXXX..             ",
"        ...XXXX......XXXX.              ",
"        .XXXXX..   .XXXX..              ",
"        .......   ..XXXX.               ",
"                  .XXXXX.               ",
"                  .XXXX..               ",
"                 ..XXXX.                ",
"    ..........   .XXXXX.  ..........    ",
"    .XXXXXXXX.   .XXXX..  .XXXXXXXX.    ",
"    .XXXXXXXX.  ..XXXX.   .XXXXXXXX.    ",
"    .XXXXXXX..  .XXXXX.   .XXXXXXX..    ",
"    .X....XX.   .XXXXX.   .X....XX.     ",
"    ... .XX..  ..XXXX..   ... .XX..     ",
"        .XX.   .XXXXX.        .XX.      ",
"       ..XX.   .XXXXX.       ..XX.      ",
"       .XX..   .XXXXX.       .XX..      ",
"      ..XX.   ..XXXXX.      ..XX.       ",
"      .XXX.   .XXXXX..      .XXX.       ",
"      .XX..   .XXXXX.       .XX..       ",
"     ..XX.    .XXXXX.      ..XX.        ",
"     .XXX.    .XXXXX.      .XXX.        ",
"     .....    .......      .....        ",
"                                        ",
"                                        ",
"                                        ",
"                                        ",
"                                        ",
"                                        ",
"                                        ",
"                                        "};
