/* XPM */
static const char * slot_star_white_xpm[] = {
"40 40 2 1",
" 	c #FFFFFFFFFFFF",
".	c #000000000000",
"                                        ",
"                                        ",
"                                        ",
"                   .                    ",
"                   .                    ",
"                  . .                   ",
"                  . .                   ",
"                 .   .                  ",
"                 .   .                  ",
"                .     .                 ",
"                .     .                 ",
"               .       .                ",
"               .       .                ",
"              .         .               ",
"              .         .               ",
"             .           .              ",
"             .           .              ",
" ............             ............  ",
"  ..                               ..   ",
"    ..                           ..     ",
"      ..                       ..       ",
"        ..                  ...         ",
"          .                 .           ",
"         .                   .          ",
"         .                   .          ",
"        .                     .         ",
"        .                     .         ",
"       .           .           .        ",
"       .         .. ..         .        ",
"      .        ..     ..        .       ",
"      .      ..         ..      .       ",
"     .      .             .      .      ",
"     .    ..               ..    .      ",
"    .   ..                   ..   .     ",
"    . ..                       .. .     ",
"   ...                           ...    ",
"   .                               .    ",
"                                        ",
"                                        ",
"                                        "};
