/* XPM */
static const char * slot_sm_chip10k_xpm[] = {
"20 20 4 1",
" 	c #FFFFFFFFFFFF",
".	c #B6DAB2CAB6DA",
"X	c #000000000000",
"o	c #FFFFFFFF0000",
"       ......       ",
"     ..      ..     ",
"    .XX      XX.    ",
"   .XXXX    XXXX.   ",
"  .XXXXXXXXXXXXXX.  ",
" .XXXX  oooo  XXXX. ",
" .XXX oooooooo XXX. ",
".  XX oooooooo XX  .",
".   XoXooXooXoXX   .",
".   XoXoXoXoXXoX   .",
".   XoXoXoXoXXoX   .",
".   XoXooXooXoXX   .",
".  XX oooooooo XX  .",
" .XXX oooooooo XXX. ",
" .XXXX  oooo  XXXX. ",
"  .XXXXXXXXXXXXXX.  ",
"   .XXXX    XXXX.   ",
"    .XX      XX.    ",
"     ..      ..     ",
"       ......       "};
