/* XPM */
static const char * slot_sm_plane_xpm[] = {
"20 20 4 1",
" 	c #FFFFFFFFFFFF",
".	c #B6DAB2CAB6DA",
"X	c #CF3CCF3CCF3C",
"o	c #000000000000",
"                    ",
"                    ",
"    ...             ",
"     . .            ",
"      .X..          ",
"...   .XXX.         ",
".XX.   .XXX.        ",
" .XX............... ",
"..XX.XoXoXoXoXoXXoo.",
"...XXXXXXXXXXXXXXXX.",
" .X................ ",
".XX.   .XXXX.       ",
".X.    .XXX.        ",
"..    .XXX.         ",
"     .XXX.          ",
"    .XXX.           ",
"    .XX.            ",
"   ....             ",
"                    ",
"                    "};
