/* XPM */
static const char * slot_chip100_xpm[] = {
"40 40 4 1",
" 	c #FFFFFFFFFFFF",
".	c #B6DAB2CAB6DA",
"X	c #000000000000",
"o	c #FFFFFFFF0000",
"               ..........               ",
"            ...XXXXXXXXXX...            ",
"          ..   XXXXXXXXXX   ..          ",
"         .     XXXXXXXXXX     .         ",
"       ..       XXXXXXXX       ..       ",
"      .         XXXXXXXX         .      ",
"     .          XXXXXXXX          .     ",
"    .         ..X      X..         .    ",
"   .         .XXX......XXX.         .   ",
"   .        . ....oooo.... .        .   ",
"  .        . ..oooooooooo.. .        .  ",
"  .       . ..oooooooooooo.. .       .  ",
" .       . ..oooooooooooooo.. .       . ",
" .      .X..oooooooooooooooo..X.      . ",
" .      .X.ooXXoooXXXoooXXXoo.X.      . ",
".XXX    .X.oXXXooXXoXXoXXoXXo.X.   XXXX.",
".XXXXXXX ..ooXXooXXoXXoXXoXXo.. XXXXXXX.",
".XXXXXXX .oooXXooXXoXXoXXoXXoo. XXXXXXX.",
".XXXXXXX .oooXXooXXoXXoXXoXXoo. XXXXXXX.",
".XXXXXXX .oooXXooXXoXXoXXoXXoo. XXXXXXX.",
".XXXXXXX .oooXXooXXoXXoXXoXXoo. XXXXXXX.",
".XXXXXXX ..ooXXooXXoXXoXXoXXo.. XXXXXXX.",
".XXX    .X.oXXXXooXXXoooXXXoo.X.   XXXX.",
" .      .X.oooooooooooooooooo.X.      . ",
" .      .X..oooooooooooooooo..X.      . ",
" .       . ...ooooooooooooo.. .       . ",
"  .       . ..oooooooooooo.. .       .  ",
"  .        . ..oooooooooo.. .        .  ",
"   .        . ....oooo.... .        .   ",
"   .         .XXX......XXX.         .   ",
"    .         ..X      X..         .    ",
"     .          XXXXXXXX          .     ",
"      .         XXXXXXXX         .      ",
"       ..      XXXXXXXXXX      ..       ",
"         .     XXXXXXXXXX     .         ",
"          ..   XXXXXXXXXX   ..          ",
"            ...XXXXXXXXXX...            ",
"               ..........               ",
"                                        ",
"                                        "};
