/* XPM */
static const char * slot_double7_xpm[] = {
"40 40 3 1",
" 	c #FFFFFFFFFFFF",
".	c #000000000000",
"X	c #FFFF14514103",
"                                        ",
"                                        ",
"                                        ",
"                                        ",
"                                        ",
"                                        ",
"               .................        ",
"               .XXXXXXXXXXXXXXX.        ",
"               .XXXXXXXXXXXXXX..        ",
"              ..XXXXXXXXXXXXXX.         ",
"              .XXXXXXXXXXXXXX..         ",
"            ...XXXX......XXXX.          ",
"            .XXXXX..   .XXXX..          ",
"            .......   ..XXXX.           ",
"                      .XXXXX.           ",
"                      .XXXX..           ",
"                     ..XXXX.            ",
"        ..........   .XXXXX.            ",
"        .XXXXXXXX.   .XXXX..            ",
"        .XXXXXXXX.  ..XXXX.             ",
"        .XXXXXXX..  .XXXXX.             ",
"        .X....XX.   .XXXXX.             ",
"        ... .XX..  ..XXXX..             ",
"            .XX.   .XXXXX.              ",
"           ..XX.   .XXXXX.              ",
"           .XX..   .XXXXX.              ",
"          ..XX.   ..XXXXX.              ",
"          .XXX.   .XXXXX..              ",
"          .XX..   .XXXXX.               ",
"         ..XX.    .XXXXX.               ",
"         .XXX.    .XXXXX.               ",
"         .....    .......               ",
"                                        ",
"                                        ",
"                                        ",
"                                        ",
"                                        ",
"                                        ",
"                                        ",
"                                        "};
