/* XPM */
static const char * slot_sm_any7_xpm[] = {
"20 20 5 1",
" 	c #FFFFFFFFFFFF",
".	c #000000000000",
"X	c #FFFF14514103",
"o	c #514451445144",
"O	c #51445144FFFF",
"                    ",
"                    ",
"                    ",
"                    ",
"      ........      ",
"      .XXXXXX.      ",
"   oo .oXooXXoo  oo ",
"  o  o.Xo..oO.o  o  ",
"   ooo..o..o..o oo  ",
"  o  o  o.Oo. o o   ",
"  o  o  o.Oo.  oo   ",
"   oo oooo oo  o    ",
"        .  .   o    ",
"       .. ..  o     ",
"       .  .  oo     ",
"       ....         ",
"                    ",
"                    ",
"                    ",
"                    "};
